<svg width="346" height="446" viewBox="0 0 346 446" fill="none" xmlns="http://www.w3.org/2000/svg">
<g filter="url(#filter0_d_268_31785)">
<path fill-rule="evenodd" clip-rule="evenodd" d="M295.391 261.33L277.234 228.564L247.559 245.011L257.588 263.121L266.969 280.043C267.381 282.496 268.162 284.904 269.359 287.117C275.264 298.063 289.943 308.715 296.666 305.121C303.395 301.534 305.431 282.226 302.771 271.737C301.744 267.689 298.947 264.059 295.391 261.33Z" fill="#D9ECF7"/>
<path fill-rule="evenodd" clip-rule="evenodd" d="M279.624 232.872L277.234 228.564L250.145 249.683L257.406 262.782L259.193 254.356C259.193 254.356 273.812 253.068 279.624 232.871V232.872Z" fill="#5F90B0"/>
<path fill-rule="evenodd" clip-rule="evenodd" d="M289.35 263.591C291.03 262.075 292.594 260.501 294.042 258.893L295.391 261.331C295.913 261.732 296.413 262.149 296.896 262.581C295.23 264.512 293.39 266.392 291.395 268.195C283.655 275.178 274.979 279.663 267.203 281.261C267.115 280.862 267.036 280.456 266.969 280.044L265.098 276.669C272.89 275.08 281.587 270.595 289.35 263.592V263.591Z" fill="#14284B"/>
<g filter="url(#filter1_bd_268_31785)">
<path fill-rule="evenodd" clip-rule="evenodd" d="M248.527 195.277C232.526 195.277 219.562 208.246 219.562 224.241C219.562 235.954 226.618 246.518 237.442 251.001C248.265 255.487 260.724 253.008 269.003 244.727C277.286 236.438 279.765 223.982 275.286 213.158C270.801 202.336 260.239 195.278 248.526 195.278L248.527 195.277Z" fill="#14284B"/>
</g>
</g>
<g filter="url(#filter2_d_268_31785)">
<path fill-rule="evenodd" clip-rule="evenodd" d="M87.0314 171.127L114.839 196.23L92.104 221.417L76.7354 207.542L62.37 194.578C60.0804 193.619 57.9127 192.318 56.0273 190.65C46.6989 182.418 39.6468 165.713 44.6676 159.974C49.6836 154.234 68.9488 156.619 78.57 161.583C82.2765 163.499 85.1776 167.042 87.0323 171.126L87.0314 171.127Z" fill="#D9ECF7"/>
<path fill-rule="evenodd" clip-rule="evenodd" d="M111.182 192.928L114.838 196.23L88.1421 217.839L88.1344 217.833L77.0215 207.802L85.6365 207.963C85.6365 207.963 90.1984 194.016 111.183 192.928H111.182Z" fill="#5F90B0"/>
<path fill-rule="evenodd" clip-rule="evenodd" d="M83.4642 176.501C85.3237 175.209 87.2073 174.038 89.0985 172.996L87.0316 171.127C86.7609 170.534 86.47 169.948 86.157 169.381C83.902 170.569 81.6508 171.933 79.4428 173.47C70.8853 179.429 64.557 186.861 61.2402 194.075C61.6156 194.253 61.989 194.42 62.3692 194.58L65.2358 197.162C68.5477 189.933 74.8866 182.476 83.4642 176.501Z" fill="#14284B"/>
<g filter="url(#filter3_bd_268_31785)">
<path fill-rule="evenodd" clip-rule="evenodd" d="M115.603 195.276C123.285 195.276 130.655 198.328 136.088 203.763C141.516 209.193 144.567 216.558 144.567 224.24C144.567 235.953 137.51 246.517 126.687 251C115.865 255.486 103.407 253.007 95.1258 244.726C86.8448 236.437 84.3642 223.981 88.8484 213.157C93.3277 202.335 103.89 195.277 115.603 195.277V195.276Z" fill="#14284B"/>
</g>
</g>
<g filter="url(#filter4_f_268_31785)">
<path d="M182.71 399.975C183.048 400.804 184.223 400.804 184.561 399.975L209.71 338.378C209.978 337.72 209.494 337 208.784 337L158.488 337C157.778 337 157.294 337.72 157.563 338.378L182.71 399.975Z" fill="#A5D8FA" fill-opacity="0.8"/>
</g>
<path fill-rule="evenodd" clip-rule="evenodd" d="M154.36 308.587H209.901C219.368 308.587 224.276 301.554 224.276 312.361C224.276 322.482 218.431 345.918 209.901 346.69C201.027 347.489 191.86 349.835 182.947 349.835C173.344 349.835 163.932 347.475 154.36 346.69C145.829 345.991 140.027 322.36 140.027 312.242C140.027 301.433 144.891 308.587 154.36 308.587Z" fill="#5F90B0"/>
<path fill-rule="evenodd" clip-rule="evenodd" d="M154.36 306.292H209.901C219.368 306.292 224.276 299.261 224.276 310.069C224.276 320.19 218.431 343.626 209.901 344.398C201.027 345.199 191.86 347.543 182.947 347.543C173.344 347.543 163.932 345.183 154.36 344.398C145.829 343.699 140.027 320.068 140.027 309.948C140.027 299.142 144.891 306.292 154.36 306.292Z" fill="#12294B"/>
<path fill-rule="evenodd" clip-rule="evenodd" d="M154.36 306.206H209.901C219.368 306.206 224.276 300.289 224.276 309.387C224.276 317.914 218.323 336.981 209.901 338.305L182.952 342.528L154.36 338.305C145.927 337.053 140.027 317.811 140.027 309.288C140.027 300.185 144.891 306.206 154.36 306.206Z" fill="#5F90B0"/>
<path fill-rule="evenodd" clip-rule="evenodd" d="M156.882 303.846H207.386C215.995 303.846 220.455 304.72 220.455 313.001C220.455 320.751 215.041 331.83 207.386 333.027L182.879 336.871L156.881 333.027C149.213 331.898 143.844 320.656 143.844 312.908C143.844 304.633 148.265 303.846 156.881 303.846H156.882Z" fill="#12294B"/>
<g filter="url(#filter5_bd_268_31785)">
<path fill-rule="evenodd" clip-rule="evenodd" d="M181.905 187.529C137.386 183.367 105.026 197.84 113.228 245.283C121.436 292.726 141.753 324.178 182.254 330.216C222.753 324.178 242.692 292.726 250.9 245.283C259.102 197.84 226.745 183.367 182.223 187.529C182.17 187.535 182.119 187.535 182.068 187.538C182.009 187.534 181.957 187.534 181.905 187.529Z" fill="#D9ECF7"/>
<path fill-rule="evenodd" clip-rule="evenodd" d="M181.905 187.529C137.386 183.367 105.026 197.84 113.228 245.283C121.436 292.726 141.753 324.178 182.254 330.216C222.753 324.178 242.692 292.726 250.9 245.283C259.102 197.84 226.745 183.367 182.223 187.529C182.17 187.535 182.119 187.535 182.068 187.538C182.009 187.534 181.957 187.534 181.905 187.529Z" stroke="#D9ECF7" stroke-width="0.31968"/>
<path fill-rule="evenodd" clip-rule="evenodd" d="M178.735 187.261C135.86 184.079 105.218 198.976 113.23 245.282C119.734 282.885 133.85 310.438 159.589 323.261C142.053 308.522 152.662 310.579 140.052 299.174C127.443 287.756 122.948 249.595 122.948 249.595C122.948 249.595 120.368 203.924 133.964 209.872C147.559 215.825 172.236 215.96 172.236 215.96C210.365 205.153 198.344 194.695 178.736 187.262L178.735 187.261Z" fill="#EDF4FF"/>
<path fill-rule="evenodd" clip-rule="evenodd" d="M178.735 187.261C135.86 184.079 105.218 198.976 113.23 245.282C119.734 282.885 133.85 310.438 159.589 323.261C142.053 308.522 152.662 310.579 140.052 299.174C127.443 287.756 122.948 249.595 122.948 249.595C122.948 249.595 120.368 203.924 133.964 209.872C147.559 215.825 172.236 215.96 172.236 215.96C210.365 205.153 198.344 194.695 178.736 187.262L178.735 187.261Z" stroke="#D9ECF7" stroke-width="0.288"/>
<path fill-rule="evenodd" clip-rule="evenodd" d="M233.156 196.788C233.156 196.788 254.485 209.408 240.26 262.354C230.381 299.131 215.303 302.585 212.941 318.49C236.667 301.432 246.957 273.673 250.901 245.282C254.843 216.891 248.338 204.901 234.265 195.674C233.906 196.017 233.534 196.386 233.155 196.788H233.156Z" stroke="#A8CFE6" stroke-width="0.31968"/>
<path fill-rule="evenodd" clip-rule="evenodd" d="M182.063 231.48C195.901 231.48 207.115 242.7 207.115 256.538C207.115 266.673 201.011 275.809 191.65 279.683C182.287 283.563 171.511 281.418 164.344 274.252C157.184 267.092 155.036 256.316 158.917 246.951C162.792 237.592 171.925 231.481 182.063 231.481V231.48Z" fill="#5F90B0"/>
<path fill-rule="evenodd" clip-rule="evenodd" d="M206.728 252.116C204.176 263.247 194.208 271.548 182.308 271.548C182.223 271.548 182.144 271.548 182.068 271.548C169.844 271.433 159.712 262.569 157.639 250.913C157.222 252.72 157.004 254.605 157.004 256.538C157.004 270.376 168.222 281.59 182.062 281.59C195.9 281.59 207.114 270.376 207.114 256.538C207.114 255.028 206.982 253.552 206.728 252.115V252.116Z" fill="#14284B"/>
<path fill-rule="evenodd" clip-rule="evenodd" d="M182.068 206.798C162.353 206.794 144.395 202.97 130.883 196.698C130.332 196.444 129.779 196.179 129.24 195.911C128.447 196.432 127.677 196.974 126.926 197.538C123.921 199.814 121.312 202.48 119.15 205.552C125.526 210.323 133.926 214.328 143.728 217.251C154.983 220.604 168.083 222.532 182.068 222.538C196.045 222.532 209.145 220.605 220.401 217.251C230.203 214.328 238.603 210.323 244.978 205.552C242.817 202.48 240.206 199.814 237.202 197.538C236.452 196.975 235.683 196.432 234.891 195.911C234.348 196.178 233.796 196.444 233.245 196.698C219.734 202.97 201.776 206.794 182.069 206.798H182.068Z" fill="#5F90B0"/>
<path fill-rule="evenodd" clip-rule="evenodd" d="M182.068 206.798C162.353 206.794 144.395 202.97 130.883 196.698C130.332 196.444 129.779 196.179 129.24 195.911C128.447 196.432 127.677 196.974 126.926 197.538C123.921 199.814 121.312 202.48 119.15 205.552C125.526 210.323 133.926 214.328 143.728 217.251C154.983 220.604 168.082 222.532 182.068 222.538C196.045 222.532 209.145 220.605 220.401 217.251C230.203 214.328 238.603 210.323 244.978 205.552C242.817 202.48 240.206 199.814 237.202 197.538C236.452 196.975 235.683 196.432 234.891 195.911C234.348 196.178 233.796 196.444 233.245 196.698C219.734 202.97 201.776 206.794 182.069 206.798H182.068Z" stroke="#5F90B0" stroke-width="0.288"/>
<path fill-rule="evenodd" clip-rule="evenodd" d="M182.068 293.162C190.866 293.162 198.769 289.338 204.213 283.266L245.952 267.886C246.75 265.621 247.355 261.642 248.072 259.314L204.213 276.385C198.769 282.459 190.866 286.283 182.068 286.283H182.062C173.412 286.283 165.624 282.589 160.188 276.695L116.057 259.314C116.785 261.632 117.332 265.485 118.14 267.74L160.188 283.569C165.619 289.47 173.411 293.162 182.062 293.162H182.068Z" fill="#5F90B0"/>
<path fill-rule="evenodd" clip-rule="evenodd" d="M182.068 293.162C190.866 293.162 198.769 289.338 204.213 283.266L245.952 267.886C246.75 265.621 247.355 261.642 248.072 259.314L204.213 276.385C198.769 282.459 190.866 286.283 182.068 286.283H182.062C173.412 286.283 165.624 282.589 160.188 276.695L116.057 259.314C116.785 261.632 117.332 265.485 118.14 267.74L160.188 283.569C165.619 289.47 173.411 293.162 182.062 293.162H182.068Z" stroke="#5F90B0" stroke-width="0.288"/>
<path fill-rule="evenodd" clip-rule="evenodd" d="M157.666 250.794C162.879 241.649 173.198 235.266 185.072 235C189.77 234.891 194.223 235.755 198.218 237.384C193.854 233.704 188.218 231.479 182.062 231.479C170.203 231.479 160.265 239.724 157.666 250.794Z" fill="#A8CFE6"/>
<path fill-rule="evenodd" clip-rule="evenodd" d="M157.666 250.794C162.879 241.649 173.198 235.266 185.072 235C189.77 234.891 194.223 235.755 198.218 237.384C193.854 233.704 188.218 231.479 182.062 231.479C170.203 231.479 160.265 239.724 157.666 250.794Z" stroke="#A8CFE6" stroke-width="0.640319"/>
<path fill-rule="evenodd" clip-rule="evenodd" d="M237.678 270.938L245.674 267.991L245.954 267.886C246.752 265.621 247.356 261.642 248.074 259.314L248.001 259.34L240.261 262.355C239.434 265.437 238.57 268.288 237.678 270.938Z" fill="#4D7691"/>
<path fill-rule="evenodd" clip-rule="evenodd" d="M237.678 270.938L245.674 267.991L245.954 267.886C246.752 265.621 247.356 261.642 248.074 259.314L248.001 259.34L240.261 262.355C239.434 265.437 238.57 268.288 237.678 270.938Z" stroke="#4D7691" stroke-width="0.31968"/>
<path fill-rule="evenodd" clip-rule="evenodd" d="M125.425 263.001L116.057 259.314C116.769 262.314 117.115 264.912 118.14 267.74L127.274 271.184C126.531 268.241 125.958 265.637 125.425 263.002V263.001Z" stroke="#B8CFE2" stroke-width="0.640319"/>
</g>
<g filter="url(#filter6_bd_268_31785)">
<path fill-rule="evenodd" clip-rule="evenodd" d="M266.518 95.2461C250.519 95.2461 237.551 108.21 237.551 124.209C237.551 135.925 244.607 146.485 255.431 150.963C266.253 155.449 278.711 152.97 286.997 144.689C295.278 136.408 297.757 123.949 293.272 113.126C288.795 102.304 278.233 95.2461 266.518 95.2461Z" fill="#5F90B0"/>
<path fill-rule="evenodd" clip-rule="evenodd" d="M261.208 103.068C249.379 103.068 239.791 112.657 239.791 124.483C239.791 133.15 245.01 140.96 253.01 144.276C261.016 147.593 270.228 145.76 276.355 139.637C282.483 133.506 284.317 124.293 280.999 116.292C277.682 108.287 269.874 103.068 261.208 103.068Z" fill="#14284B"/>
<path fill-rule="evenodd" clip-rule="evenodd" d="M204.084 88.9437C204.084 88.9437 216.755 82.7814 218.978 82.143C263.355 69.3184 280.245 177.828 182.068 179.293V89.7529C182.068 89.7529 193.878 91.5347 204.084 88.9437Z" fill="#14284B"/>
<path fill-rule="evenodd" clip-rule="evenodd" d="M265.681 103.815C265.681 103.815 281.326 91.1475 268.848 67.8656C256.364 44.5798 238.859 30.6118 238.859 30.6118C227.441 -7.44063 196.104 41.4185 233.64 36.5753C233.64 36.5753 269.963 63.2086 265.681 103.815Z" fill="#14284B"/>
<path fill-rule="evenodd" clip-rule="evenodd" d="M97.6133 95.2461C113.606 95.2461 126.577 108.21 126.577 124.209C126.577 135.925 119.52 146.485 108.696 150.963C97.8735 155.449 85.4156 152.97 77.1288 144.689C68.8479 136.408 66.3673 123.949 70.8543 113.126C75.3375 102.304 85.8955 95.2461 97.6143 95.2461H97.6133Z" fill="#5F90B0"/>
<path fill-rule="evenodd" clip-rule="evenodd" d="M102.92 103.068C114.748 103.068 124.337 112.657 124.337 124.483C124.337 133.15 119.118 140.96 111.119 144.276C103.112 147.593 93.8992 145.76 87.7744 139.637C81.6438 133.506 79.815 124.293 83.1289 116.292C86.4457 108.287 94.2525 103.068 102.92 103.068Z" fill="#14284B"/>
<path fill-rule="evenodd" clip-rule="evenodd" d="M160.046 88.9437C160.046 88.9437 147.375 82.7814 145.151 82.143C100.776 69.3184 83.885 177.828 182.069 179.293V89.7529C182.069 89.7529 170.251 91.5347 160.047 88.9437H160.046Z" fill="#14284B"/>
<path fill-rule="evenodd" clip-rule="evenodd" d="M97.6133 95.2461C113.606 95.2461 126.577 108.21 126.577 124.209C126.577 135.925 119.52 146.485 108.696 150.963C97.8735 155.449 85.4156 152.97 77.1288 144.689C68.8479 136.408 66.3673 123.949 70.8543 113.126C75.3375 102.304 85.8955 95.2461 97.6143 95.2461H97.6133Z" fill="#5F90B0"/>
<path fill-rule="evenodd" clip-rule="evenodd" d="M98.4472 103.814C98.4472 103.814 82.8021 91.1472 95.2802 67.8653C107.764 44.5795 125.27 30.6115 125.27 30.6115C136.192 -5.78397 168.244 41.4442 130.488 36.575C130.488 36.575 94.1656 63.2083 98.4472 103.814Z" fill="#14284B"/>
<path fill-rule="evenodd" clip-rule="evenodd" d="M102.92 103.068C114.748 103.068 124.337 112.657 124.337 124.483C124.337 133.15 119.118 140.96 111.119 144.276C103.112 147.593 93.8992 145.76 87.7744 139.637C81.6438 133.506 79.815 124.293 83.1289 116.292C86.4457 108.287 94.2525 103.068 102.92 103.068Z" fill="#14284B"/>
<path fill-rule="evenodd" clip-rule="evenodd" d="M182.068 41.6562C182.068 41.6562 236.728 44.4019 257.036 71.6418C277.344 98.8866 266.942 160.304 266.942 160.304C266.942 160.304 248.754 210.329 182.068 207.362C115.374 210.329 97.1875 160.304 97.1875 160.304C97.1875 160.304 86.7849 98.8866 107.092 71.6418C127.4 44.4028 182.067 41.6562 182.067 41.6562H182.068Z" fill="#D9ECF7"/>
<path fill-rule="evenodd" clip-rule="evenodd" d="M182.068 41.6562C182.068 41.6562 236.728 44.4019 257.036 71.6418C277.344 98.8866 266.942 160.304 266.942 160.304C266.942 160.304 248.754 210.329 182.068 207.362C115.374 210.329 97.1875 160.304 97.1875 160.304C97.1875 160.304 86.7849 98.8866 107.092 71.6418C127.4 44.4028 182.067 41.6562 182.067 41.6562H182.068Z" stroke="#D9ECF7" stroke-width="0.288"/>
<g filter="url(#filter7_bd_268_31785)">
<path fill-rule="evenodd" clip-rule="evenodd" d="M204.724 89.8803C204.724 89.8803 217.395 83.7248 219.624 83.0806C263.999 70.2617 280.885 178.766 182.707 180.231C84.5324 178.766 101.417 70.2617 145.791 83.0806C148.02 83.7248 160.687 89.8803 160.687 89.8803C167.442 91.5939 197.975 91.5939 204.723 89.8803H204.724Z" fill="#14284B"/>
</g>
<path fill-rule="evenodd" clip-rule="evenodd" d="M204.724 89.8803C204.724 89.8803 217.395 83.7248 219.624 83.0806C263.999 70.2617 280.885 178.766 182.707 180.231C84.5324 178.766 101.417 70.2617 145.791 83.0806C148.02 83.7248 160.687 89.8803 160.687 89.8803C167.442 91.5939 197.975 91.5939 204.723 89.8803H204.724Z" stroke="#14284B" stroke-width="0.31968"/>
<path fill-rule="evenodd" clip-rule="evenodd" d="M128.775 26.7048C128.775 26.7048 136.557 13.5691 143.368 22.0008C143.368 22.0008 137.288 17.6223 128.775 26.7048Z" fill="#5288B6"/>
<path fill-rule="evenodd" clip-rule="evenodd" d="M234.831 26.7048C234.831 26.7048 227.049 13.5691 220.238 22.0008C220.238 22.0008 226.321 17.6223 234.831 26.7048Z" fill="#5288B6"/>
<path fill-rule="evenodd" clip-rule="evenodd" d="M206.167 96.235C206.167 96.235 218.839 90.0785 221.061 89.4363C233.005 85.9841 242.952 91.3179 249.202 100.983C250.088 102.348 250.895 103.797 251.631 105.323C252.182 106.48 252.692 107.683 253.155 108.917C252.884 107.598 252.567 106.308 252.202 105.047C251.707 103.333 251.126 101.682 250.468 100.093C244.832 86.5573 233.349 77.9883 218.978 82.1413C216.754 82.7797 204.084 88.9419 204.084 88.9419C201.254 89.6609 194.26 90.0785 186.584 90.1918C185.092 90.212 183.578 90.2283 182.068 90.2283C180.552 90.2283 179.035 90.2177 177.546 90.1918C169.869 90.0776 162.873 89.6609 160.046 88.9419C160.046 88.9419 147.375 82.7797 145.151 82.1413C130.782 77.9883 119.297 86.5563 113.661 100.093C113.006 101.682 112.422 103.333 111.926 105.047C108.975 115.276 109.063 127.505 113.229 139.058C110.817 127.807 111.97 116.448 115.765 107.344C116.348 105.953 116.99 104.615 117.694 103.333C123.803 92.2078 134.361 85.7182 147.234 89.4363C149.464 90.0785 162.131 96.235 162.131 96.235C165.256 97.0318 173.469 97.458 182.069 97.5166C192.047 97.5838 202.541 97.1556 206.168 96.235H206.167Z" fill="#425685"/>
<g filter="url(#filter8_bd_268_31785)">
<path fill-rule="evenodd" clip-rule="evenodd" d="M182.067 41.6562C182.067 41.6562 195.807 41.4325 212.067 45.861C209.477 53.662 202.362 72.428 193.4 73.7672C182.245 75.429 182.067 75.0488 182.067 75.0334C182.062 75.0478 181.89 75.429 170.728 73.7672C161.764 72.429 154.651 53.6629 152.062 45.861C168.323 41.4325 182.068 41.6562 182.068 41.6562H182.067Z" fill="#14284B"/>
</g>
<path fill-rule="evenodd" clip-rule="evenodd" d="M182.067 41.6562C182.067 41.6562 195.807 41.4325 212.067 45.861C209.477 53.662 202.362 72.428 193.4 73.7672C182.245 75.429 182.067 75.0488 182.067 75.0334C182.062 75.0478 181.89 75.429 170.728 73.7672C161.764 72.429 154.651 53.6629 152.062 45.861C168.323 41.4325 182.068 41.6562 182.068 41.6562H182.067Z" stroke="#14284B" stroke-width="0.288"/>
<path fill-rule="evenodd" clip-rule="evenodd" d="M182.067 47.3967C182.067 47.3967 191.083 47.2517 201.76 50.1567C200.062 55.2764 195.39 67.5999 189.504 68.4764C182.181 69.5689 182.067 69.3125 182.067 69.3097C182.062 69.3135 181.946 69.5689 174.624 68.4764C168.738 67.5999 164.066 55.2764 162.367 50.1567C173.044 47.2517 182.067 47.3967 182.067 47.3967Z" fill="#5F90B0"/>
<path fill-rule="evenodd" clip-rule="evenodd" d="M182.068 51.4841C182.068 51.4841 187.724 51.3958 194.42 53.2188C193.355 56.4281 190.426 64.1561 186.734 64.709C182.141 65.3897 182.068 65.2342 182.068 65.2303C182.062 65.2342 181.993 65.3897 177.395 64.709C173.703 64.1561 170.776 56.4281 169.707 53.2188C176.407 51.3958 182.068 51.4841 182.068 51.4841Z" fill="#14284B"/>
<path fill-rule="evenodd" clip-rule="evenodd" d="M210.477 50.3617C225.395 53.4951 244.171 59.5104 256.487 70.9267C246.208 57.745 227.811 50.4375 211.878 46.418C211.492 47.5623 211.025 48.9015 210.476 50.3607L210.477 50.3617ZM112.097 77.0631C121.692 64.1953 138.958 56.7869 154.498 52.5581C153.577 50.2464 152.822 48.1152 152.249 46.4189C136.029 50.5066 117.259 58.0061 107.092 71.641C103.144 76.9382 100.36 83.5229 98.4303 90.6979C98.0299 92.1879 97.6651 93.7075 97.3378 95.2455C96.9 97.2912 96.5199 99.3715 96.1973 101.465C96.0504 102.402 95.9208 103.339 95.796 104.282C93.9164 118.693 94.4357 133.684 95.3362 144.527C95.6069 147.822 95.9151 150.739 96.2002 153.135C96.733 157.624 97.1871 160.302 97.1871 160.302C97.1871 160.302 98.4466 163.661 101.404 168.631C103.962 172.93 105.419 175.016 109.911 180.113C108.264 176.963 106.598 174.552 104.82 171.287C102.977 167.885 102.192 165.725 102.192 165.725C102.192 165.725 101.348 160.757 100.613 153.015C100.399 150.793 100.196 148.344 100.026 145.714C99.228 133.557 99.0975 117.632 101.847 103.096C102.315 100.63 102.863 98.2051 103.509 95.8435C105.434 88.776 108.2 82.2922 112.096 77.0631H112.097Z" fill="#EDF4FF"/>
<path fill-rule="evenodd" clip-rule="evenodd" d="M234.682 195.932C259.068 181.965 266.942 160.303 266.942 160.303C266.942 160.303 267.397 157.626 267.925 153.137C268.213 150.741 268.521 147.823 268.791 144.529C269.694 133.685 270.214 118.695 268.333 104.284C268.208 103.341 268.078 102.404 267.931 101.467C267.61 99.3732 267.229 97.2929 266.791 95.2471C266.463 93.7092 266.099 92.1905 265.696 90.6996C264.349 85.6788 262.579 80.9451 260.28 76.7422C262.687 82.3985 264.327 88.7259 265.412 95.2663C265.624 96.5863 265.822 97.913 265.994 99.2455C266.166 100.535 266.311 101.817 266.44 103.109C266.462 103.314 266.483 103.521 266.505 103.725C268.046 119.773 266.821 135.867 265.734 145.429C265.322 149.043 264.93 151.726 264.712 153.116C264.602 153.819 264.535 154.196 264.535 154.196C264.535 154.196 255.511 178.43 226.92 191.95C214.687 197.736 198.868 201.56 178.641 200.679C160.253 201.476 145.514 198.393 133.79 193.482C122.263 188.649 113.659 182.048 107.389 175.638C108.63 178.232 110.344 181.091 113.321 183.695C117.634 187.95 122.957 192.216 129.446 195.934C129.42 195.95 129.4 195.966 129.373 195.984C129.728 196.154 130.083 196.325 130.442 196.492C130.586 196.565 130.739 196.634 130.883 196.701C144.394 202.972 162.352 206.796 182.067 206.8C201.774 206.796 219.733 202.972 233.244 196.701C233.388 196.634 233.54 196.565 233.686 196.492C234.043 196.325 234.4 196.154 234.753 195.984C234.726 195.967 234.705 195.95 234.68 195.934L234.682 195.932Z" fill="#A8CFE6"/>
<path fill-rule="evenodd" clip-rule="evenodd" d="M234.682 195.932C259.068 181.965 266.942 160.303 266.942 160.303C266.942 160.303 267.397 157.626 267.925 153.137C268.213 150.741 268.521 147.823 268.791 144.529C269.694 133.685 270.214 118.695 268.333 104.284C268.208 103.341 268.078 102.404 267.931 101.467C267.61 99.3732 267.229 97.2929 266.791 95.2471C266.463 93.7092 266.099 92.1905 265.696 90.6996C264.349 85.6788 262.579 80.9451 260.28 76.7422C262.687 82.3985 264.327 88.7259 265.412 95.2663C265.624 96.5863 265.822 97.913 265.994 99.2455C266.166 100.535 266.311 101.817 266.44 103.109C266.462 103.314 266.483 103.521 266.505 103.725C268.046 119.773 266.821 135.867 265.734 145.429C265.322 149.043 264.93 151.726 264.712 153.116C264.602 153.819 264.535 154.196 264.535 154.196C264.535 154.196 255.511 178.43 226.92 191.95C214.687 197.736 198.868 201.56 178.641 200.679C160.253 201.476 145.514 198.393 133.79 193.482C122.263 188.649 113.659 182.048 107.389 175.638C108.63 178.232 110.344 181.091 113.321 183.695C117.634 187.95 122.957 192.216 129.446 195.934C129.42 195.95 129.4 195.966 129.373 195.984C129.728 196.154 130.083 196.325 130.442 196.492C130.586 196.565 130.739 196.634 130.883 196.701C144.394 202.972 162.352 206.796 182.067 206.8C201.774 206.796 219.733 202.972 233.244 196.701C233.388 196.634 233.54 196.565 233.686 196.492C234.043 196.325 234.4 196.154 234.753 195.984C234.726 195.967 234.705 195.95 234.68 195.934L234.682 195.932Z" stroke="#A8CFE6" stroke-width="0.288"/>
<path fill-rule="evenodd" clip-rule="evenodd" d="M70.4829 127.751C70.4829 113.418 80.849 101.511 94.4935 99.1143C93.8579 98.1207 93.2176 96.9687 92.6407 95.666C79.0144 98.0267 68.6445 109.908 68.6445 124.209C68.6445 129.693 70.1709 134.822 72.8215 139.193C71.3172 135.683 70.482 131.815 70.482 127.751H70.4829Z" fill="#87B2CF"/>
<path fill-rule="evenodd" clip-rule="evenodd" d="M293.62 122.236C293.62 136.246 282.422 147.636 268.489 147.944C268.303 149.866 268.109 151.604 267.926 153.136C283.27 152.402 295.484 139.73 295.484 124.209C295.484 109.908 285.114 98.0276 271.487 95.666C271.328 96.027 271.166 96.3707 270.999 96.7038C283.745 98.234 293.62 109.083 293.62 122.235V122.236Z" fill="#425685"/>
<path fill-rule="evenodd" clip-rule="evenodd" d="M155.853 118.771L136.941 110.636V110.765C135.801 110.364 134.525 110.927 134.061 112.057C133.577 113.229 134.139 114.578 135.307 115.061C139.711 116.89 144.139 118.729 148.567 120.552L156.833 123.955C157.328 124.16 157.328 124.861 156.832 125.065L148.567 128.465C144.139 130.286 139.711 132.131 135.307 133.953C134.138 134.438 133.577 135.792 134.061 136.965C134.525 138.096 135.801 138.656 136.941 138.257V138.386L155.853 130.251L163.826 126.87C164.738 126.349 165.591 126.069 165.853 125.137V125.131C165.907 124.953 165.93 124.761 165.93 124.541V124.479C165.93 124.259 165.906 124.067 165.853 123.889V123.884C165.592 122.953 164.738 122.67 163.826 122.15L155.853 118.769V118.771Z" fill="#4AF0FC"/>
<path fill-rule="evenodd" clip-rule="evenodd" d="M155.853 118.771L136.941 110.636V110.765C135.801 110.364 134.525 110.927 134.061 112.057C133.577 113.229 134.139 114.578 135.307 115.061C139.711 116.89 144.139 118.729 148.567 120.552L158.181 124.511L148.567 128.465C144.139 130.286 139.711 132.131 135.307 133.953C134.138 134.438 133.577 135.792 134.061 136.965C134.525 138.096 135.801 138.656 136.941 138.257V138.386L155.853 130.251L163.826 126.87C164.738 126.349 165.591 126.069 165.853 125.137V125.131C165.907 124.953 165.93 124.761 165.93 124.541V124.479C165.93 124.259 165.906 124.067 165.853 123.889V123.884C165.592 122.953 164.738 122.67 163.826 122.15L155.853 118.769V118.771Z" stroke="#4AF0FC" stroke-width="0.288"/>
<path fill-rule="evenodd" clip-rule="evenodd" d="M209.358 118.771L228.269 110.636V110.765C229.412 110.364 230.688 110.927 231.154 112.057C231.641 113.229 231.077 114.578 229.906 115.061C225.5 116.89 221.072 118.729 216.644 120.552L208.378 123.955C207.883 124.16 207.883 124.861 208.379 125.065L216.644 128.465C221.072 130.286 225.5 132.131 229.906 133.953C231.077 134.438 231.641 135.792 231.154 136.965C230.688 138.096 229.412 138.656 228.269 138.257V138.386L209.358 130.251L201.385 126.87C200.478 126.349 199.618 126.069 199.358 125.137V125.131C199.306 124.953 199.279 124.761 199.279 124.541V124.479C199.279 124.259 199.306 124.067 199.358 123.889V123.884C199.617 122.953 200.478 122.67 201.385 122.15L209.358 118.769V118.771Z" fill="#4AF0FC"/>
<path fill-rule="evenodd" clip-rule="evenodd" d="M209.358 118.771L228.269 110.636V110.765C229.412 110.364 230.688 110.927 231.154 112.057C231.641 113.229 231.077 114.578 229.906 115.061C225.5 116.89 221.072 118.729 216.644 120.552L207.03 124.511L216.644 128.465C221.072 130.286 225.5 132.131 229.906 133.953C231.077 134.438 231.641 135.792 231.154 136.965C230.688 138.096 229.412 138.656 228.269 138.257V138.386L209.358 130.251L201.385 126.87C200.478 126.349 199.618 126.069 199.358 125.137V125.131C199.306 124.953 199.279 124.761 199.279 124.541V124.479C199.279 124.259 199.306 124.067 199.358 123.889V123.884C199.617 122.953 200.478 122.67 201.385 122.15L209.358 118.769V118.771Z" stroke="#4AF0FC" stroke-width="0.288"/>
</g>
<defs>
<filter id="filter0_d_268_31785" x="211.562" y="191.277" width="100.338" height="126.555" filterUnits="userSpaceOnUse" color-interpolation-filters="sRGB">
<feFlood flood-opacity="0" result="BackgroundImageFix"/>
<feColorMatrix in="SourceAlpha" type="matrix" values="0 0 0 0 0 0 0 0 0 0 0 0 0 0 0 0 0 0 127 0" result="hardAlpha"/>
<feOffset dy="4"/>
<feGaussianBlur stdDeviation="4"/>
<feComposite in2="hardAlpha" operator="out"/>
<feColorMatrix type="matrix" values="0 0 0 0 0 0 0 0 0 0 0 0 0 0 0 0 0 0 0.25 0"/>
<feBlend mode="normal" in2="BackgroundImageFix" result="effect1_dropShadow_268_31785"/>
<feBlend mode="normal" in="SourceGraphic" in2="effect1_dropShadow_268_31785" result="shape"/>
</filter>
<filter id="filter1_bd_268_31785" x="204.562" y="180.277" width="87.9258" height="87.9307" filterUnits="userSpaceOnUse" color-interpolation-filters="sRGB">
<feFlood flood-opacity="0" result="BackgroundImageFix"/>
<feGaussianBlur in="BackgroundImageFix" stdDeviation="7.5"/>
<feComposite in2="SourceAlpha" operator="in" result="effect1_backgroundBlur_268_31785"/>
<feColorMatrix in="SourceAlpha" type="matrix" values="0 0 0 0 0 0 0 0 0 0 0 0 0 0 0 0 0 0 127 0" result="hardAlpha"/>
<feOffset dy="4"/>
<feGaussianBlur stdDeviation="4"/>
<feComposite in2="hardAlpha" operator="out"/>
<feColorMatrix type="matrix" values="0 0 0 0 0 0 0 0 0 0 0 0 0 0 0 0 0 0 0.25 0"/>
<feBlend mode="normal" in2="effect1_backgroundBlur_268_31785" result="effect2_dropShadow_268_31785"/>
<feBlend mode="normal" in="SourceGraphic" in2="effect2_dropShadow_268_31785" result="shape"/>
</filter>
<filter id="filter2_d_268_31785" x="35" y="152.629" width="117.566" height="112.578" filterUnits="userSpaceOnUse" color-interpolation-filters="sRGB">
<feFlood flood-opacity="0" result="BackgroundImageFix"/>
<feColorMatrix in="SourceAlpha" type="matrix" values="0 0 0 0 0 0 0 0 0 0 0 0 0 0 0 0 0 0 127 0" result="hardAlpha"/>
<feOffset dy="4"/>
<feGaussianBlur stdDeviation="4"/>
<feComposite in2="hardAlpha" operator="out"/>
<feColorMatrix type="matrix" values="0 0 0 0 0 0 0 0 0 0 0 0 0 0 0 0 0 0 0.25 0"/>
<feBlend mode="normal" in2="BackgroundImageFix" result="effect1_dropShadow_268_31785"/>
<feBlend mode="normal" in="SourceGraphic" in2="effect1_dropShadow_268_31785" result="shape"/>
</filter>
<filter id="filter3_bd_268_31785" x="71.6426" y="180.276" width="87.9238" height="87.9307" filterUnits="userSpaceOnUse" color-interpolation-filters="sRGB">
<feFlood flood-opacity="0" result="BackgroundImageFix"/>
<feGaussianBlur in="BackgroundImageFix" stdDeviation="7.5"/>
<feComposite in2="SourceAlpha" operator="in" result="effect1_backgroundBlur_268_31785"/>
<feColorMatrix in="SourceAlpha" type="matrix" values="0 0 0 0 0 0 0 0 0 0 0 0 0 0 0 0 0 0 127 0" result="hardAlpha"/>
<feOffset dy="4"/>
<feGaussianBlur stdDeviation="4"/>
<feComposite in2="hardAlpha" operator="out"/>
<feColorMatrix type="matrix" values="0 0 0 0 0 0 0 0 0 0 0 0 0 0 0 0 0 0 0.25 0"/>
<feBlend mode="normal" in2="effect1_backgroundBlur_268_31785" result="effect2_dropShadow_268_31785"/>
<feBlend mode="normal" in="SourceGraphic" in2="effect2_dropShadow_268_31785" result="shape"/>
</filter>
<filter id="filter4_f_268_31785" x="129.528" y="309.039" width="108.218" height="119.518" filterUnits="userSpaceOnUse" color-interpolation-filters="sRGB">
<feFlood flood-opacity="0" result="BackgroundImageFix"/>
<feBlend mode="normal" in="SourceGraphic" in2="BackgroundImageFix" result="shape"/>
<feGaussianBlur stdDeviation="13.9804" result="effect1_foregroundBlur_268_31785"/>
</filter>
<filter id="filter5_bd_268_31785" x="96.793" y="171.69" width="170.541" height="173.687" filterUnits="userSpaceOnUse" color-interpolation-filters="sRGB">
<feFlood flood-opacity="0" result="BackgroundImageFix"/>
<feGaussianBlur in="BackgroundImageFix" stdDeviation="7.5"/>
<feComposite in2="SourceAlpha" operator="in" result="effect1_backgroundBlur_268_31785"/>
<feColorMatrix in="SourceAlpha" type="matrix" values="0 0 0 0 0 0 0 0 0 0 0 0 0 0 0 0 0 0 127 0" result="hardAlpha"/>
<feOffset dy="4"/>
<feGaussianBlur stdDeviation="4"/>
<feComposite in2="hardAlpha" operator="out"/>
<feColorMatrix type="matrix" values="0 0 0 0 0 0 0 0 0 0 0 0 0 0 0 0 0 0 0.25 0"/>
<feBlend mode="normal" in2="effect1_backgroundBlur_268_31785" result="effect2_dropShadow_268_31785"/>
<feBlend mode="normal" in="SourceGraphic" in2="effect2_dropShadow_268_31785" result="shape"/>
</filter>
<filter id="filter6_bd_268_31785" x="53.6445" y="1" width="256.84" height="221.633" filterUnits="userSpaceOnUse" color-interpolation-filters="sRGB">
<feFlood flood-opacity="0" result="BackgroundImageFix"/>
<feGaussianBlur in="BackgroundImageFix" stdDeviation="7.5"/>
<feComposite in2="SourceAlpha" operator="in" result="effect1_backgroundBlur_268_31785"/>
<feColorMatrix in="SourceAlpha" type="matrix" values="0 0 0 0 0 0 0 0 0 0 0 0 0 0 0 0 0 0 127 0" result="hardAlpha"/>
<feOffset dy="6"/>
<feGaussianBlur stdDeviation="3"/>
<feComposite in2="hardAlpha" operator="out"/>
<feColorMatrix type="matrix" values="0 0 0 0 0 0 0 0 0 0 0 0 0 0 0 0 0 0 0.25 0"/>
<feBlend mode="normal" in2="effect1_backgroundBlur_268_31785" result="effect2_dropShadow_268_31785"/>
<feBlend mode="normal" in="SourceGraphic" in2="effect2_dropShadow_268_31785" result="shape"/>
</filter>
<filter id="filter7_bd_268_31785" x="95.5254" y="67.0283" width="174.365" height="128.202" filterUnits="userSpaceOnUse" color-interpolation-filters="sRGB">
<feFlood flood-opacity="0" result="BackgroundImageFix"/>
<feGaussianBlur in="BackgroundImageFix" stdDeviation="7.5"/>
<feComposite in2="SourceAlpha" operator="in" result="effect1_backgroundBlur_268_31785"/>
<feColorMatrix in="SourceAlpha" type="matrix" values="0 0 0 0 0 0 0 0 0 0 0 0 0 0 0 0 0 0 127 0" result="hardAlpha"/>
<feOffset dy="4"/>
<feGaussianBlur stdDeviation="4"/>
<feComposite in2="hardAlpha" operator="out"/>
<feColorMatrix type="matrix" values="0 0 0 0 0 0 0 0 0 0 0 0 0 0 0 0 0 0 0.25 0"/>
<feBlend mode="normal" in2="effect1_backgroundBlur_268_31785" result="effect2_dropShadow_268_31785"/>
<feBlend mode="normal" in="SourceGraphic" in2="effect2_dropShadow_268_31785" result="shape"/>
</filter>
<filter id="filter8_bd_268_31785" x="137.062" y="26.6543" width="90.0039" height="63.4268" filterUnits="userSpaceOnUse" color-interpolation-filters="sRGB">
<feFlood flood-opacity="0" result="BackgroundImageFix"/>
<feGaussianBlur in="BackgroundImageFix" stdDeviation="7.5"/>
<feComposite in2="SourceAlpha" operator="in" result="effect1_backgroundBlur_268_31785"/>
<feColorMatrix in="SourceAlpha" type="matrix" values="0 0 0 0 0 0 0 0 0 0 0 0 0 0 0 0 0 0 127 0" result="hardAlpha"/>
<feOffset dy="4"/>
<feGaussianBlur stdDeviation="4"/>
<feComposite in2="hardAlpha" operator="out"/>
<feColorMatrix type="matrix" values="0 0 0 0 0 0 0 0 0 0 0 0 0 0 0 0 0 0 0.25 0"/>
<feBlend mode="normal" in2="effect1_backgroundBlur_268_31785" result="effect2_dropShadow_268_31785"/>
<feBlend mode="normal" in="SourceGraphic" in2="effect2_dropShadow_268_31785" result="shape"/>
</filter>
</defs>
</svg>
