<svg width="25" height="24" viewBox="0 0 25 24" fill="none" xmlns="http://www.w3.org/2000/svg">
<path d="M12.7667 0C9.50772 0 9.09871 0.0142504 7.8187 0.072501C6.54119 0.131002 5.66918 0.333254 4.90617 0.630007C4.11691 0.93651 3.4474 1.34651 2.7804 2.01377C2.11289 2.68078 1.70288 3.35028 1.39538 4.13929C1.09788 4.90255 0.895376 5.77481 0.837876 7.05182C0.780625 8.33184 0.765625 8.74109 0.765625 12.0001C0.765625 15.2592 0.780125 15.6669 0.838126 16.9469C0.896877 18.2244 1.09913 19.0964 1.39563 19.8595C1.70238 20.6487 2.11239 21.3182 2.77965 21.9852C3.4464 22.6527 4.11591 23.0637 4.90467 23.3702C5.66818 23.667 6.54043 23.8692 7.8177 23.9277C9.09771 23.986 9.50647 24.0002 12.7652 24.0002C16.0245 24.0002 16.4323 23.986 17.7123 23.9277C18.9898 23.8692 19.8628 23.667 20.6263 23.3702C21.4153 23.0637 22.0838 22.6527 22.7506 21.9852C23.4181 21.3182 23.8281 20.6487 24.1356 19.8597C24.4306 19.0964 24.6331 18.2242 24.6931 16.9472C24.7506 15.6672 24.7656 15.2592 24.7656 12.0001C24.7656 8.74109 24.7506 8.33209 24.6931 7.05207C24.6331 5.77456 24.4306 4.90255 24.1356 4.13954C23.8281 3.35028 23.4181 2.68078 22.7506 2.01377C22.0831 1.34626 21.4156 0.93626 20.6256 0.630007C19.8606 0.333254 18.9881 0.131002 17.7106 0.072501C16.4305 0.0142504 16.023 0 12.763 0H12.7667ZM11.6902 2.16252C12.0097 2.16202 12.3662 2.16252 12.7667 2.16252C15.9708 2.16252 16.3505 2.17402 17.6158 2.23152C18.7858 2.28502 19.4208 2.48053 19.8438 2.64478C20.4038 2.86228 20.8031 3.12228 21.2228 3.54229C21.6428 3.96229 21.9028 4.3623 22.1208 4.9223C22.2851 5.34481 22.4808 5.97981 22.5341 7.14982C22.5916 8.41484 22.6041 8.79484 22.6041 11.9974C22.6041 15.1999 22.5916 15.5799 22.5341 16.8449C22.4806 18.0149 22.2851 18.6499 22.1208 19.0724C21.9033 19.6325 21.6428 20.0312 21.2228 20.451C20.8028 20.871 20.4041 21.131 19.8438 21.3485C19.4213 21.5135 18.7858 21.7085 17.6158 21.762C16.3508 21.8195 15.9708 21.832 12.7667 21.832C9.56247 21.832 9.18271 21.8195 7.9177 21.762C6.74769 21.708 6.11268 21.5125 5.68943 21.3482C5.12942 21.1307 4.72942 20.8707 4.30941 20.4507C3.88941 20.0307 3.6294 19.6317 3.4114 19.0714C3.24715 18.6489 3.0514 18.0139 2.99815 16.8439C2.94065 15.5789 2.92915 15.1989 2.92915 11.9944C2.92915 8.78984 2.94065 8.41184 2.99815 7.14682C3.05165 5.97681 3.24715 5.34181 3.4114 4.9188C3.6289 4.3588 3.88941 3.95879 4.30941 3.53879C4.72942 3.11878 5.12942 2.85878 5.68943 2.64078C6.11243 2.47578 6.74769 2.28077 7.9177 2.22702C9.02471 2.17702 9.45372 2.16202 11.6902 2.15952V2.16252ZM19.1723 4.15504C18.3773 4.15504 17.7323 4.7993 17.7323 5.59456C17.7323 6.38957 18.3773 7.03457 19.1723 7.03457C19.9673 7.03457 20.6123 6.38957 20.6123 5.59456C20.6123 4.79955 19.9673 4.15454 19.1723 4.15454V4.15504ZM12.7667 5.83756C9.36346 5.83756 6.60419 8.59684 6.60419 12.0001C6.60419 15.4034 9.36346 18.1614 12.7667 18.1614C16.17 18.1614 18.9283 15.4034 18.9283 12.0001C18.9283 8.59684 16.1698 5.83756 12.7665 5.83756H12.7667ZM12.7667 8.00008C14.9758 8.00008 16.7668 9.79085 16.7668 12.0001C16.7668 14.2091 14.9758 16.0002 12.7667 16.0002C10.5575 16.0002 8.76671 14.2091 8.76671 12.0001C8.76671 9.79085 10.5575 8.00008 12.7667 8.00008V8.00008Z" fill="#F8F9FA"/>
</svg>
