<svg width="25" height="24" viewBox="0 0 25 24" fill="none" xmlns="http://www.w3.org/2000/svg">
<path d="M0.765625 1.71921C0.765625 0.76997 1.55464 0 2.528 0H23.0032C23.9766 0 24.7656 0.769972 24.7656 1.71921V22.2808C24.7656 23.2303 23.9766 24 23.0032 24L2.528 24C1.55464 24 0.765625 23.2303 0.765625 22.2808V1.71921ZM8.18069 20.0905V9.25314H4.57856V20.0905H8.18069ZM6.37961 7.77349C7.63575 7.77349 8.41759 6.9413 8.41759 5.90131C8.39418 4.8379 7.63575 4.02881 6.40344 4.02881C5.17126 4.02881 4.36563 4.8379 4.36563 5.90131C4.36563 6.9413 5.1473 7.77349 6.35613 7.77349H6.37961ZM13.7427 20.0905V14.0385C13.7427 13.7146 13.7661 13.391 13.8612 13.1594C14.1216 12.5123 14.7143 11.8421 15.7094 11.8421C17.0129 11.8421 17.5343 12.8359 17.5343 14.2928V20.0905H21.1361V13.8765C21.1361 10.5478 19.359 8.99884 16.9891 8.99884C15.0783 8.99884 14.2215 10.049 13.7428 10.7875V10.8248H13.7188C13.7267 10.8125 13.7347 10.8 13.7428 10.7875V9.25314H10.1407C10.188 10.27 10.1407 20.0905 10.1407 20.0905H13.7427Z" fill="#F8F9FA"/>
</svg>
