<svg width="25" height="24" viewBox="0 0 25 24" fill="none" xmlns="http://www.w3.org/2000/svg">
<path d="M12.7656 0C6.13832 0 0.765625 5.37255 0.765625 11.9998C0.765625 18.6273 6.13832 23.9994 12.7656 23.9994C19.3935 23.9994 24.7656 18.6273 24.7656 11.9998C24.7656 5.37298 19.3935 0.000573176 12.7654 0.000573176L12.7656 0ZM18.2686 17.3071C18.0537 17.6596 17.5923 17.7714 17.2398 17.555C14.4223 15.8341 10.8755 15.4443 6.69846 16.3986C6.29594 16.4904 5.89472 16.2382 5.80301 15.8355C5.71087 15.4328 5.96206 15.0316 6.36558 14.9399C10.9367 13.8956 14.8577 14.3452 18.0207 16.2783C18.3732 16.4947 18.485 16.9546 18.2686 17.3071ZM19.7374 14.0397C19.4666 14.4799 18.8905 14.6189 18.4506 14.3481C15.2251 12.3655 10.3082 11.7913 6.49297 12.9494C5.99817 13.0989 5.47558 12.82 5.32541 12.3261C5.17638 11.8313 5.45537 11.3097 5.94931 11.1592C10.3073 9.8369 15.7252 10.4774 19.4293 12.7537C19.8692 13.0245 20.0082 13.6004 19.7374 14.0397ZM19.8635 10.6373C15.996 8.34018 9.61508 8.12897 5.92252 9.24967C5.32956 9.42951 4.7025 9.09477 4.52281 8.50182C4.34312 7.90858 4.67757 7.28195 5.27095 7.10169C9.50975 5.8149 16.5563 6.06352 21.009 8.70687C21.5435 9.02341 21.7183 9.71223 21.4016 10.2449C21.0864 10.7782 20.3957 10.954 19.8641 10.6373H19.8635Z" fill="#F8F9FA"/>
</svg>
