<svg width="25" height="24" viewBox="0 0 25 24" fill="none" xmlns="http://www.w3.org/2000/svg">
<path d="M12.8419 2.99805C12.8504 2.99806 12.8596 2.99809 12.8695 2.99811L12.9757 2.99844C14.2084 3.00297 20.456 3.04826 22.1405 3.50112C23.1732 3.77809 23.9863 4.59432 24.2623 5.63042C24.4142 6.19966 24.5201 6.95626 24.5939 7.73439L24.6083 7.89026C24.6199 8.0203 24.6306 8.15064 24.6405 8.2805L24.6521 8.43605C24.7507 9.80721 24.7622 11.0903 24.7635 11.371L24.7637 11.4089C24.7637 11.412 24.7637 11.4171 24.7637 11.4171V11.4383C24.7637 11.4383 24.7637 11.4434 24.7637 11.4465L24.7635 11.4844C24.7621 11.7757 24.7498 13.1466 24.6405 14.575L24.6282 14.731L24.6151 14.8872C24.5408 15.7461 24.4294 16.5989 24.2623 17.225C23.9863 18.2611 23.1732 19.0775 22.1405 19.3543C20.3999 19.8224 13.7868 19.8552 12.8695 19.8575L12.7988 19.8577C12.793 19.8577 12.7879 19.8577 12.7836 19.8577L12.7547 19.8577C12.7547 19.8577 12.7481 19.8577 12.7437 19.8577L12.6578 19.8575C12.1943 19.8564 10.276 19.8474 8.26708 19.7784L8.01024 19.7693C7.96738 19.7677 7.92451 19.7661 7.88164 19.7645L7.62451 19.7543L7.36796 19.7434C5.7037 19.6704 4.11692 19.5506 3.38697 19.3543C2.35434 19.0775 1.54119 18.2611 1.26521 17.225C1.09801 16.5989 0.98654 15.7461 0.912229 14.8872L0.899123 14.731L0.886812 14.575C0.781492 13.1985 0.766203 11.8755 0.763984 11.5204L0.763719 11.4696C0.7637 11.465 0.763685 11.4608 0.763672 11.4569V11.3985C0.763685 11.3946 0.7637 11.3904 0.763719 11.3859L0.763984 11.335C0.765994 11.0134 0.778723 9.898 0.859343 8.66787L0.869778 8.51356C0.871578 8.48776 0.873408 8.46192 0.875269 8.43605L0.886812 8.2805C0.896747 8.15064 0.907484 8.0203 0.919087 7.89026L0.933431 7.73439C1.00727 6.95626 1.11321 6.19966 1.26521 5.63042C1.54119 4.59432 2.35434 3.77809 3.38697 3.50112C4.11692 3.30488 5.7037 3.18517 7.36796 3.11215L7.62451 3.10128L7.88164 3.09112C7.92451 3.08949 7.96738 3.08788 8.01024 3.0863L8.26708 3.07717C10.1478 3.01261 11.949 3.00066 12.5516 2.99844L12.6578 2.99811C12.6677 2.99809 12.6769 2.99806 12.6854 2.99805H12.8419ZM10.3637 7.81484V15.0406L16.5988 11.4279L10.3637 7.81484Z" fill="#F8F9FA"/>
</svg>
