<svg width="1439" height="830" viewBox="0 0 1439 830" fill="none" xmlns="http://www.w3.org/2000/svg">
<g clip-path="url(#clip0_331_45987)">
<path fill-rule="evenodd" clip-rule="evenodd" d="M994.803 648.961C995.022 651.169 994.286 649.815 996.581 651.443C1001.02 654.581 1001.17 651.231 1006.38 652.593C1005.01 656.293 1004.31 653.005 1001.63 654.627C1003.16 656.42 1003.83 656.273 1007.16 656.013C1008.77 653.902 1008.44 653.128 1011.39 653.379C1011.17 657.313 1010.7 653.662 1009.99 657.155C1014.13 656.405 1012.49 654.62 1014.39 653.764C1016.49 652.825 1016.81 654.58 1018.09 655.598C1015.98 656.005 1015.79 655.221 1014.36 655.914C1015.51 659.836 1015.55 656.91 1018.96 658.485C1018.61 660.034 1019.95 659.487 1016.37 658.96C1017.23 661.294 1015.01 659.981 1018.43 660.815C1019.29 661.025 1019.04 660.546 1020.54 660.883C1022.92 665.01 1020.52 666.429 1021.11 669.856C1027.21 669.837 1025.9 670.118 1025.12 666.021C1024.07 660.49 1026.11 662.223 1029.43 662.374L1028.6 659.798C1028.52 659.078 1028.77 657.701 1028.77 656.525C1026.98 657.043 1028.24 656.673 1027.2 657.611C1027.17 657.638 1026.75 658.355 1026.18 658.825C1025.36 656.366 1027.39 655.372 1029.97 655.413C1029.38 660.719 1030.24 658.959 1031.67 662.492C1033.42 661.624 1032.14 662.365 1032.89 661.409L1035.01 662.125C1035.67 658.491 1032.78 659.925 1032.29 657.525C1034.45 658.288 1035.93 661.516 1038.88 659.772C1037.9 657.969 1038.07 658.788 1036.02 657.615C1039.13 657.012 1037.39 657.331 1037.42 656.202C1033.49 652.435 1034.72 655.582 1032.11 653.75L1037.11 653.122C1037.56 653.669 1037.53 653.569 1037.99 654.397C1038.09 654.567 1038.34 655.096 1038.43 655.28C1039.75 658.192 1039.49 658.749 1043.05 658.818L1041.09 656.54L1046.46 656.327C1045.05 654.768 1042.32 654.412 1040.5 653.304C1044.39 653.023 1042.31 653.782 1045.43 653.812L1050.05 652.054C1046.79 650.255 1047.64 653.378 1044.91 652.051C1047.45 650.424 1050.12 650.987 1051.57 648.196L1050.17 647.898C1050.06 647.902 1049.86 647.921 1049.74 647.938C1048.32 648.146 1049.91 647.823 1048.23 648.708C1049.75 646.943 1049.95 647.723 1050.89 644.982C1050.77 644.913 1050.54 644.931 1050.46 644.927L1049.65 644.876C1047.29 644.876 1049.66 646.186 1048.21 644.982C1049.01 643.644 1049.65 641.746 1048.69 640.134C1048.58 640.292 1048.48 640.517 1048.41 640.646C1048.36 640.773 1048.22 640.996 1048.15 641.15C1046.73 644.136 1045.42 647.178 1041.33 646.43C1042.96 645.02 1042.95 645.92 1044.16 644.953C1045.89 643.562 1045.7 641.818 1048.26 640.145C1050.54 638.67 1049.57 639.94 1050.54 637.907C1048.25 636.721 1045.29 638.672 1044.23 640.556C1041.24 645.906 1042.2 641.918 1039.41 645.339C1038.69 642.945 1036.42 644.62 1040.32 643.383C1043.1 642.496 1043.08 642.286 1043.04 638.863C1039.84 640.118 1042.67 638.363 1040.33 641.357C1039.13 641.162 1039.5 640.175 1038.04 639.547C1037.21 642.156 1036.73 641.777 1035.66 644.209C1034.48 646.878 1035.36 647.845 1032.98 647.887C1033.89 645.61 1034.85 642.564 1036.18 640.822C1038.46 637.842 1041.06 639.357 1044.84 638.779C1046.28 637.61 1046.14 637.134 1046.81 636.658C1050.43 634.072 1050.06 635.894 1050.51 629.904C1048.69 631.441 1049.61 632.215 1048.05 634.306C1045.51 632.318 1049.01 630.664 1047.41 627.696C1046.03 629.125 1045.93 630.298 1045.43 632.848C1044.85 635.784 1045.55 636.504 1043.18 636.881C1043.97 634.388 1045.9 631.577 1046.14 628.7C1046.44 624.999 1046.04 626.547 1045.19 625.722C1044.39 627.477 1044.12 629.82 1043.36 631.942C1042.82 633.44 1041.71 635.704 1041.09 637.256L1040.65 636.373C1040.62 636.259 1040.53 636.052 1040.52 635.926L1045.73 623.117L1043.42 622.336C1043.98 621.894 1044.62 621.939 1044.85 620.396C1045.55 615.622 1045.32 619.149 1043.83 617.771C1043.2 620.524 1042.05 621.567 1040.97 623.275C1040.58 622.287 1040.73 622.262 1040.37 621.272L1036.62 626.496C1034.49 630.893 1037.68 631.493 1034.54 633.382C1033.8 632.424 1033.68 634.915 1033.95 630.924C1034.2 627.077 1041.02 618.68 1035.83 615.704C1035.25 617.021 1035.67 623.093 1033.35 627.732C1031.86 630.694 1031.93 631.011 1031.96 634.725C1031.98 638.345 1031.65 638.128 1029.3 639.837C1031.14 645.439 1029.46 642.527 1027.3 649.23C1026.33 647.282 1028.6 642.208 1028.7 639.929C1028.88 635.747 1028.28 639.187 1029.64 636.41L1033.02 624.872L1031.97 616.103C1027.81 620.133 1033.63 623.204 1028.94 628.947C1028.47 624.691 1030.29 621.165 1028.71 617.335C1028.66 617.205 1028.47 617.122 1028.42 616.841C1028.38 616.552 1028.23 616.502 1028.11 616.346C1026.01 620.68 1029.66 627.844 1025.58 630.976C1026.67 627.301 1027.22 624.427 1024.9 621.56C1024.81 621.715 1024.75 621.937 1024.72 622.053L1024.8 625.98L1022.58 626.334C1023.56 628.321 1023.47 627.022 1023.86 628.087L1023.61 630.141C1019.46 625.854 1022.87 624.358 1022.15 620.085C1020.19 621.066 1021.88 620.314 1020.39 622.246C1018.84 619.967 1020.71 621.014 1018.61 620.047L1021.13 630.098C1022.64 632.887 1026.15 632.307 1026.38 636.199C1024.68 635.447 1025.86 635.355 1023.64 634.718C1024.01 638.658 1024.96 636.977 1026.44 640.2C1026.22 640.061 1025.37 639.519 1025.2 639.495L1023.41 639.838C1024.17 642.755 1025.35 641.736 1024.91 645.006C1024.46 648.429 1024.38 645.713 1022.52 646.359C1022.51 649.171 1024.16 650.235 1024.16 654.579C1022.23 652.02 1024.13 651.827 1020.26 651.087C1021.01 653.077 1023.75 656.306 1022.97 658.562C1020.54 656.837 1022.43 658.384 1021.64 656.614L1018.41 650.769C1020.04 647.685 1022.74 645.09 1022.98 640.361C1023.24 635.56 1023.71 632.032 1018.69 630.469C1020.13 635.24 1021.05 631.598 1020.62 637.79C1020.46 640.105 1020.61 643.232 1019.11 644.975L1018.98 641.166C1019.01 634.792 1016.75 637.013 1019.22 628.906C1018.26 627.154 1018.06 625.847 1016.33 624.916L1016 629.482L1012.86 623.45C1012.83 623.199 1012.76 623.12 1012.68 622.964C1011.96 623.86 1012.18 622.903 1012.04 624.468C1011.7 627.946 1011.41 622.716 1012.12 625.421C1012.38 626.461 1012.49 626.15 1013.33 626.977L1012.69 627.009C1011.03 627.006 1012.12 626.453 1010.6 626.977C1011.22 630.265 1010.9 628.153 1014.19 630.023C1014.33 632.264 1014.75 632.265 1015.01 633.425C1015.34 634.906 1014.72 634.956 1015.29 637.038L1016.38 641.124C1016.36 641.123 1016.33 641.088 1016.32 641.085L1014.63 644.802L1013.12 645.161C1010.31 642.071 1017.37 633.191 1010.07 629.579C1010.12 633.732 1013.8 636.928 1008.29 638.546C1009.33 639.898 1010.15 639.408 1010.59 641.124C1009.15 641.91 1008.65 641.102 1007.19 640.343C1007.1 637.398 1008.66 636.303 1009.08 633.389C1009.54 630.181 1008.3 628.872 1007.84 625.967C1005.66 627.044 1007.46 626.111 1006.53 627.549C1004.8 630.236 1007.46 626.92 1004.4 628.906C1005.49 632.075 1005.14 629.021 1007.25 632.12L1004.51 632.661C1004.43 632.503 1004.16 632.695 1004 632.765C1005.21 634.989 1005.71 633.621 1006.41 635.98C1005.72 637.239 1005.63 637.737 1004.35 638.339C1001.73 635.973 1004.7 631.895 1001.1 629.929C1001.03 630.07 1000.98 630.287 1000.97 630.385L1001.05 634.047C1001.15 636.311 1000.65 635.93 1001.11 638.552C1002.72 641.814 1007.42 641.159 1009.93 645.79C1011.38 648.472 1013.43 648.597 1014.02 650C1014.71 651.632 1013.06 651.881 1011.76 648.723C1011.55 648.791 1011.3 648.954 1011.16 649.012C1009.15 649.851 1010.64 650.147 1009.34 649.392C1008.76 647.133 1009.24 645.982 1007.47 644.419C1006.88 643.896 1006.2 643.505 1005.5 643.127C1003.48 642.04 1006.28 642.685 1002.73 642.02C1003.33 645.165 1002.97 645.132 1006.09 645.989C1004.79 646.585 1005.31 646.219 1004.71 647.553C1007.86 649.549 1007.28 646.662 1007.47 650.936C1004.22 648.717 1003.32 647.463 1002.25 643.899C1001.75 642.207 1000.88 640.675 1000.37 639.336C999.096 636.039 1000.39 636.848 997.891 635.779C997.805 635.896 997.766 636.107 997.757 636.186L997.67 637.43C997.699 637.63 998.177 638.535 998.321 639.194C996.112 640.182 997.441 636.572 995.834 640.193C999.24 642.826 998.072 639.144 1000.7 645.155C994.973 644.555 1000.65 643.596 995.786 642.495C996.647 650.339 1000.47 643.522 1002.26 650.122C999.756 649.441 1001.18 649.133 998.589 648.791C999.076 650.464 998.608 649.841 1000.08 651.183C997.259 651.506 998.293 649.944 994.801 648.963L994.803 648.961Z" fill="#193973"/>
<path fill-rule="evenodd" clip-rule="evenodd" d="M156.292 599.567C161.749 602.828 162.667 605.614 166.096 610.804C162.115 612.133 165.966 608.673 163.031 610.538C166.446 614.937 167.765 610.772 167.974 619.799L164.555 618.398C166.063 621.886 166.853 619.5 168.958 626.189C170.588 631.364 173.024 630.198 170.879 635.562L167.403 631.151C167.315 631.021 167.16 630.789 167.022 630.622C167.417 634.155 171.11 640.978 165.94 643.504C162.185 640.018 166.313 631.876 165.319 626.654L164.963 625.474C163.32 628.809 164.432 635.421 162.696 638.768C160.255 633.473 163.826 617.23 162.692 615.244L160.836 620.121C158.948 619.603 159.913 619.39 159.01 619.603C159.699 623.657 160.599 625.376 160.537 630.542C157.895 628.781 154.625 624.533 155.365 620.593C156.205 616.122 159.403 617.128 159.108 608.315L157.411 612.894C156.878 614.956 157.326 614.991 155.444 616.405C155.949 613.982 157.238 610.425 155.896 607.982L154.88 613.362L152.377 610.34C152.526 612.843 153.807 614.63 154.024 616.674C154.327 619.499 153.152 620.724 154.11 624.453C155.419 629.561 159.071 629.695 160.095 635.885C155.907 635.358 155.963 635.312 153.687 633.231C154.657 640.012 161.4 631.91 162.173 645.462C159.661 644.202 160.846 644.173 158.449 643.801C161.431 650.396 171.1 651.026 171.374 659.587C171.473 662.649 171.042 666.42 170.957 669.616C161.827 663.527 169.73 664.063 167.651 655.42C166.081 656.228 168.463 655.107 166.811 656.255C165.298 657.307 167.408 656.861 164.895 657.256C162.782 655.089 164.184 655.457 162.696 653.287C161.055 656.299 164.368 658.035 165.795 659.641L164.179 664.641L161.266 661.213C160.899 667.231 166.515 666.671 168.909 671.52C170.089 673.908 169.418 675.307 171.348 678.235C174.48 682.989 172.102 679.663 172.696 685.049C183.975 685.691 170.856 682.451 187.38 670.739C191.152 668.064 191.129 670.3 192.759 665.572C190.281 667.433 192.205 667.138 189.137 667.996L188.139 664.278C186.896 670.045 186.893 670.471 182.211 672.352C186.556 657.914 193.583 663.049 194.152 659.225L188.378 660.141C190.717 656.014 190.712 657.61 193.325 655.516C196.433 653.028 194.794 651.37 194.851 648.073C192.305 651.654 196.127 652.188 192.159 654.397L190.882 649.026C188.307 655.076 192.723 653.789 187.823 657.807C184.974 651.455 187.06 650.872 189.291 645.374C190.183 643.174 190.105 643.278 191.216 641.509L189.438 641.337C188.582 641.019 188.437 639.432 187.98 641.671C187.166 645.655 189.146 644.4 186.115 648.274L183.843 646.05C183.277 645.182 182.885 644.177 182.433 643.02C184.849 639.103 184.654 639.676 188.703 637.295C190.968 635.965 194.484 635.176 194.88 632.041C193.356 633.755 193.445 633.899 190.703 634.119C190.807 631.544 191.932 628.892 190.589 626.798C190.169 629.489 189.655 634.05 187.626 635.764C184.202 629.478 187.544 628.538 187.944 622.476L185.683 626.081C184.999 627.876 185.093 628.634 184.604 630.257C184.434 630.187 184.199 629.834 184.132 629.968C184.066 630.103 183.762 629.738 183.671 629.668C183.581 629.596 183.341 629.428 183.232 629.338L180.636 627.051C182.877 633.728 189.304 633.081 182.558 639.989C180.917 638.936 179.25 637.705 177.849 636.386C177.903 631.462 178.648 634.521 180.023 630.934H176.769C176.481 632.66 176.8 636.107 174.898 636.556L173.139 636.976C176.693 640.016 178.055 637.382 179.743 641.072C182.979 648.155 188.519 658.566 183.085 665.472C182.996 665.326 180.019 657.276 179.631 656.121C178.372 652.355 176.318 651.189 180.648 647.374L178.284 645.363C178.19 645.284 177.985 645.114 177.844 644.983C177.824 646.588 178.082 646.53 177.567 648.072C176.559 651.087 177.513 648.94 176.294 649.834C173.538 644.321 177.347 645.716 176.809 641.114L174.598 644.171C173.676 643.112 173.811 643.222 172.052 642.551L174.392 649.445C175.625 654.034 177.008 653.02 178.266 656.713L173.794 653.522C175.633 660.265 184.003 659.279 179.896 671.577C179.114 673.92 177.974 675.713 175.942 677.065C176.625 669.451 179.536 672.787 179.221 664.225C178.105 666.41 178.932 668.195 176.697 669.173L178.4 661.876C178.44 661.872 178.277 661.88 178.253 661.979C178.228 662.082 178.004 662.046 177.968 662.049C175.953 662.289 179.03 662.936 176.632 662.055L174.363 660.446C174.233 660.34 174.031 660.114 173.83 659.999C174.672 662.739 175.263 662.843 176.014 664.927L174.097 664.631C175.891 669.922 175.636 669.588 174.256 675.647C170.977 671.395 173.965 661.246 173.041 656.046C171.682 648.402 166.391 648.269 170.167 640.666C172.495 635.984 178.3 623.901 182.855 621.621C187.188 619.453 188.07 622.577 189.386 617.176C189.21 617.289 188.971 617.285 188.886 617.553C188.396 619.106 185.259 619.513 183.835 619.763C185.157 615.775 186.854 611.175 187.07 606.062C184.336 609.001 185.643 616.607 181.856 618.629C178.497 612.877 184.495 609.713 184.127 603.464C182.583 605.583 182.519 606.374 181.609 609.08C179.551 605.502 180.17 602.9 180.182 598.262C176.575 602.836 180.073 607.967 179.509 613.613C177.922 611.785 177.781 610.645 177.136 608.096C174.54 613.011 182.114 617.423 179.522 622.104C176.806 621.944 175.599 615.449 174.783 613.628C172.679 616.894 176.668 620.963 177.809 624.136C176.586 626.713 175.104 629.515 172.968 630.969C171.219 626.969 171.562 626.004 175.454 624.026C175.338 623.912 175.127 623.594 175.084 623.708L172.183 619.298C172.145 622.72 172.877 623.121 171.006 625.559C166.435 618.856 175.329 609.588 173.965 598.935L172.802 604.084C170.081 603.586 172.795 602.42 170.375 602.986C171.164 605.331 172.248 605.666 171.615 608.755L168.739 613.468C167.441 610.279 166.364 608.654 166.871 605.751C167.535 601.949 170.02 600.689 168.739 598.123L166.85 601.125C165.057 597.918 167.002 599.086 164.175 597.47C164.663 600.246 166.181 603.492 164.962 605.685C162.216 603.368 159.507 600.13 158.493 596.422L157.987 597.498C156.863 599.465 156.506 598.261 156.292 599.567L156.292 599.567Z" fill="#193973"/>
<path fill-rule="evenodd" clip-rule="evenodd" d="M1203.34 506.351C1210.68 510.732 1211.91 514.474 1216.52 521.446C1211.17 523.231 1216.34 518.585 1212.41 521.088C1216.99 526.994 1218.76 521.404 1219.04 533.525L1214.44 531.646C1216.48 536.331 1217.54 533.127 1220.35 542.109C1222.56 549.063 1225.83 547.496 1222.94 554.701L1218.27 548.775C1218.16 548.602 1217.95 548.288 1217.76 548.064C1218.29 552.808 1223.25 561.975 1216.31 565.367C1211.26 560.687 1216.81 549.75 1215.47 542.735L1215 541.151C1212.79 545.63 1214.28 554.509 1211.94 559.005C1208.68 551.895 1213.47 530.077 1211.94 527.409L1209.45 533.959C1206.92 533.265 1208.22 532.977 1207 533.265C1207.93 538.71 1209.14 541.018 1209.06 547.955C1205.5 545.593 1201.11 539.885 1202.1 534.594C1203.23 528.588 1207.53 529.939 1207.13 518.102L1204.85 524.252C1204.14 527.022 1204.73 527.07 1202.21 528.968C1202.88 525.714 1204.62 520.938 1202.82 517.655L1201.45 524.88L1198.09 520.825C1198.29 524.185 1200.01 526.584 1200.3 529.329C1200.71 533.124 1199.14 534.767 1200.42 539.779C1202.18 546.639 1207.08 546.819 1208.46 555.133C1202.83 554.425 1202.91 554.363 1199.85 551.568C1201.16 560.676 1210.2 549.793 1211.25 567.999C1207.88 566.305 1209.47 566.266 1206.25 565.766C1210.25 574.625 1223.24 575.469 1223.61 586.968C1223.74 591.081 1223.16 596.148 1223.04 600.437C1210.78 592.262 1221.4 592.98 1218.61 581.371C1216.5 582.457 1219.7 580.951 1217.48 582.492C1215.45 583.904 1218.28 583.305 1214.91 583.838C1212.07 580.926 1213.95 581.42 1211.94 578.506C1209.75 582.551 1214.19 584.885 1216.12 587.04L1213.95 593.756L1210.04 589.152C1209.54 597.235 1217.08 596.483 1220.3 602.997C1221.88 606.203 1220.98 608.084 1223.57 612.017C1227.77 618.401 1224.59 613.934 1225.38 621.169C1240.53 622.029 1222.91 617.679 1245.1 601.947C1250.17 598.356 1250.14 601.359 1252.33 595.008C1249 597.508 1251.58 597.112 1247.46 598.263L1246.13 593.269C1244.45 601.016 1244.45 601.589 1238.16 604.114C1244 584.719 1253.43 591.619 1254.2 586.482L1246.45 587.712C1249.59 582.169 1249.58 584.312 1253.09 581.501C1257.27 578.158 1255.06 575.931 1255.14 571.504C1251.73 576.312 1256.85 577.03 1251.53 579.997L1249.81 572.785C1246.35 580.909 1252.28 579.181 1245.7 584.578C1241.88 576.046 1244.68 575.261 1247.66 567.88C1248.88 564.923 1248.77 565.063 1250.26 562.688L1247.87 562.455C1246.72 562.028 1246.52 559.897 1245.9 562.904C1244.82 568.255 1247.47 566.572 1243.41 571.775L1240.35 568.788C1239.6 567.621 1239.07 566.271 1238.46 564.718C1241.71 559.456 1241.45 560.226 1246.88 557.028C1249.92 555.241 1254.65 554.179 1255.17 549.971C1253.13 552.272 1253.26 552.465 1249.57 552.762C1249.71 549.302 1251.22 545.742 1249.41 542.928C1248.85 546.543 1248.16 552.669 1245.43 554.971C1240.83 546.527 1245.32 545.265 1245.86 537.122L1242.83 541.965C1241.91 544.377 1242.04 545.394 1241.38 547.575C1241.16 547.48 1240.83 547.008 1240.74 547.188C1240.65 547.367 1240.24 546.877 1240.12 546.781C1240.01 546.688 1239.69 546.46 1239.54 546.34L1236.04 543.269C1239.06 552.237 1247.69 551.368 1238.63 560.647C1236.43 559.232 1234.19 557.578 1232.31 555.806C1232.38 549.194 1233.38 553.301 1235.22 548.483H1230.85C1230.47 550.803 1230.88 555.432 1228.34 556.034L1225.98 556.6C1230.75 560.682 1232.58 557.146 1234.85 562.102C1239.19 571.613 1246.64 585.597 1239.34 594.874C1239.22 594.679 1235.22 583.867 1234.69 582.315C1233 577.257 1230.25 575.69 1236.06 570.564L1232.89 567.865C1232.77 567.759 1232.49 567.53 1232.3 567.354C1232.28 569.51 1232.62 569.432 1231.92 571.506C1230.57 575.554 1231.85 572.67 1230.21 573.87C1226.5 566.465 1231.63 568.339 1230.91 562.155L1227.94 566.262C1226.69 564.843 1226.88 564.988 1224.52 564.087L1227.66 573.347C1229.32 579.51 1231.17 578.149 1232.86 583.109L1226.86 578.823C1229.32 587.88 1240.57 586.557 1235.05 603.074C1234 606.221 1232.48 608.629 1229.74 610.443C1230.66 600.217 1234.57 604.699 1234.14 593.199C1232.64 596.134 1233.76 598.532 1230.75 599.844L1233.06 590.045C1233.1 590.037 1232.88 590.048 1232.84 590.181C1232.81 590.318 1232.51 590.27 1232.47 590.275C1229.76 590.596 1233.89 591.466 1230.67 590.282L1227.63 588.122C1227.44 587.98 1227.17 587.676 1226.91 587.522C1228.04 591.201 1228.83 591.342 1229.84 594.141L1227.26 593.742C1229.67 600.85 1229.32 600.399 1227.49 608.537C1223.07 602.826 1227.1 589.195 1225.85 582.212C1224.02 571.945 1216.91 571.765 1221.99 561.555C1225.11 555.265 1232.91 539.035 1239.03 535.972C1244.84 533.059 1246.04 537.257 1247.8 530.002C1247.56 530.153 1247.24 530.149 1247.13 530.509C1246.47 532.595 1242.26 533.142 1240.35 533.478C1242.11 528.121 1244.41 521.941 1244.69 515.073C1241.02 519.022 1242.78 529.238 1237.69 531.952C1233.18 524.227 1241.23 519.976 1240.74 511.583C1238.67 514.431 1238.58 515.493 1237.36 519.127C1234.59 514.322 1235.42 510.827 1235.43 504.598C1230.59 510.739 1235.28 517.633 1234.54 525.215C1232.4 522.761 1232.22 521.229 1231.35 517.805C1227.85 524.406 1238.04 530.333 1234.55 536.621C1230.91 536.405 1229.28 527.683 1228.19 525.237C1225.36 529.623 1230.72 535.089 1232.24 539.351C1230.62 542.81 1228.62 546.575 1225.75 548.528C1223.4 543.156 1223.85 541.861 1229.09 539.201C1228.92 539.048 1228.66 538.622 1228.59 538.774L1224.69 532.851C1224.64 537.448 1225.63 537.987 1223.11 541.262C1216.98 532.258 1228.92 519.808 1227.1 505.501L1225.53 512.417C1221.87 511.746 1225.53 510.182 1222.27 510.939C1223.33 514.09 1224.79 514.543 1223.93 518.691L1220.07 525.02C1218.33 520.738 1216.88 518.555 1217.56 514.655C1218.45 509.55 1221.79 507.857 1220.07 504.41L1217.54 508.443C1215.12 504.134 1217.74 505.704 1213.94 503.534C1214.59 507.262 1216.63 511.623 1215 514.566C1211.31 511.457 1207.68 507.105 1206.32 502.124L1205.63 503.569C1204.11 506.213 1203.64 504.593 1203.34 506.349L1203.34 506.351Z" fill="#193973"/>
<path fill-rule="evenodd" clip-rule="evenodd" d="M91.051 430.678C90.7348 429.398 90.2774 427.99 89.6213 426.498C90.6449 421.914 92.4771 416.163 95.5981 412.898C101.356 406.873 118.563 407.248 118.563 407.248C118.563 407.248 129.074 408.501 133.187 400.249C137.3 391.996 131.221 386.91 131.221 386.91C120.239 380.616 115.213 390.958 115.213 390.958C128.043 380.232 132.284 393.011 132.284 393.011C134.821 398.421 126.109 406.708 118.6 404.277C111.09 401.846 97.2768 406.342 97.2768 406.342C90.8722 410.127 87.4237 415.215 85.5878 419.942C84.8653 419.048 84.0587 418.149 83.1599 417.252C86.3439 401.496 97.6552 394.949 97.6552 394.949C97.6552 394.949 110.157 389.13 114.465 370.079C118.773 351.027 133.311 353.484 133.311 353.484C153.997 355.964 147.29 373.741 147.29 373.741C151.43 365.153 149.812 355.897 134.246 351.938C118.681 347.978 112.257 366.453 112.257 366.453C112.257 366.453 108.63 382.923 101.328 387.134C94.0262 391.344 86.016 398.471 86.016 398.471C81.9171 402.974 79.5646 408.161 78.2542 413.111L78.193 413.068C80.5824 418.673 84.6949 426.06 91.051 430.678Z" fill="#193973"/>
<path fill-rule="evenodd" clip-rule="evenodd" d="M52.404 407.293C53.6848 406.979 55.1443 406.731 56.7699 406.62C60.3557 403.586 64.5999 399.295 66.0444 395.015C68.7094 387.119 60.3942 372.051 60.3942 372.051C60.3942 372.051 54.4067 363.321 59.8087 355.849C65.2108 348.376 72.537 351.401 72.537 351.401C83.2082 358.209 76.3784 367.459 76.3784 367.459C79.9274 351.118 66.6393 353.29 66.6393 353.29C60.6698 353.552 57.3711 365.115 63.0086 370.639C68.6461 376.164 71.0732 390.486 71.0732 390.486C70.6915 397.916 67.7849 403.332 64.4495 407.151C65.5761 407.377 66.7468 407.674 67.9585 408.054C80.4383 397.923 80.9899 384.865 80.9899 384.865C80.9899 384.865 80.3436 371.091 95.2211 358.435C110.099 345.778 101.177 334.041 101.177 334.041C89.3821 316.867 76.7466 331.056 76.7466 331.056C82.4335 323.403 91.3835 320.543 102.113 332.494C112.843 344.445 99.4578 358.709 99.4578 358.709C99.4578 358.709 86.5504 369.564 86.2088 377.985C85.8674 386.407 83.2705 396.81 83.2705 396.81C81.1831 402.53 77.6799 407.021 73.9028 410.478L73.9697 410.512C67.8958 410.996 59.444 410.781 52.404 407.293Z" fill="#193973"/>
<path fill-rule="evenodd" clip-rule="evenodd" d="M11.0646 331.412C10.2423 330.931 9.41785 330.375 8.59131 329.728L11.0446 328.791C11.0446 328.791 12.4184 329.634 13.565 330.989C13.9119 331.399 14.2622 331.625 14.5823 331.741C14.91 331.762 15.2475 331.781 15.594 331.798C15.7846 331.752 15.8978 331.689 15.8978 331.689C15.8978 331.689 16.6661 330.377 15.7084 329.341C14.7508 328.304 13.3386 327.869 13.3386 327.869L17.116 326.046C17.116 326.046 18.5277 326.481 20.0604 327.819C21.5926 329.156 22.9937 328.548 22.9937 328.548C22.9937 328.548 24.0126 327.63 22.5498 326.135C21.0869 324.64 19.1513 324.964 19.1513 324.964C19.1513 324.964 21.3019 324.17 24.5344 322.127C25.7057 322.452 26.2501 323.268 27.9806 324.311C30.03 325.546 30.8808 323.941 30.8808 323.941C30.8808 323.941 31.0919 322.289 29.3328 321.464C28.2918 320.977 27.043 320.959 26.1973 321.026C27.3924 320.198 28.6897 319.222 30.0491 318.079C30.754 318.582 32.0989 319.412 33.5132 319.583C35.5736 319.833 36.4355 319.27 36.8364 318.362C37.2374 317.454 35.5353 316.608 34.7071 316.667C33.8792 316.726 30.9978 317.263 30.9978 317.263L30.9957 317.264C32.4096 316.019 33.8784 314.596 35.3595 312.977L36.2027 311.572L35.3574 312.98C35.3574 312.98 40.04 313.031 40.7312 312.534C41.4224 312.038 42.1907 310.726 42.0179 309.942C41.8451 309.158 39.9741 309.228 39.1211 309.984C38.5717 310.471 37.5187 310.989 36.839 311.297C37.2854 310.77 37.7319 310.225 38.1771 309.661C38.1771 309.661 39.1356 308.388 40.3265 305.87C41.2313 305.942 43.1904 305.968 44.6439 305.063C46.5954 303.849 45.868 301.971 45.868 301.971C45.868 301.971 44.2008 301.046 43.1526 302.564C42.4805 303.538 41.5727 304.078 41.0083 304.34C41.5608 303.027 42.1324 301.471 42.661 299.676L42.6601 297.912L42.661 299.677C44.752 299.488 47.7309 296.472 47.7309 296.472C47.7309 296.472 48.8698 294.427 48.1097 293.478C47.3495 292.529 46.4617 293.364 46.4617 293.364C46.4617 293.364 45.4173 294.554 44.4967 296.317C44.008 297.254 43.5199 297.646 43.17 297.807L43.1721 297.806C43.6267 296.005 44.0268 294.002 44.3238 291.798L44.1323 290.306L44.3238 291.798C44.3238 291.798 47.8565 288.176 48.7788 287.263C49.7015 286.349 50.2152 284.972 49.4678 283.887C48.7204 282.802 47.5317 284.211 47.5317 284.211C47.5317 284.211 45.9467 286.625 45.6211 287.896C45.4232 288.671 44.9133 289.396 44.5456 289.844L44.555 289.833C44.7827 287.567 44.8993 285.11 44.858 282.464V282.447C45.6616 281.57 47.6577 279.422 48.7107 278.551C50.0488 277.444 49.2474 275.627 49.2474 275.627C49.2474 275.627 47.6556 275.066 46.6328 276.312C45.6105 277.559 44.8393 279.84 44.8393 279.84L44.8397 279.839C44.8427 278.06 44.8805 276.491 44.9448 275.104C44.981 275.007 45.9714 272.412 47.3849 271.832C48.8252 271.242 48.8788 269.945 48.8788 269.945C48.8788 269.945 48.5553 268.434 47.4611 268.988C46.3821 269.535 45.1602 272.241 45.1261 272.316C45.8037 264.567 47.4453 264.641 47.4453 264.641C47.4453 264.641 48.4749 262.737 46.9678 262.731C45.4602 262.726 44.5958 264.043 44.5958 264.043C44.5958 264.043 43.4147 266.824 43.8672 271.034C43.9923 272.2 43.9753 274.395 43.8855 276.957C43.9497 275.111 42.5699 273.857 41.508 273.388C40.4422 272.918 39.5808 273.906 39.5808 273.906C39.5808 273.906 39.0649 274.433 41.1105 275.997C43.1513 277.556 43.7548 279.93 43.7578 279.941C43.682 281.483 43.5914 283.064 43.4981 284.567C43.4956 284.563 42.1668 282.36 40.9828 281.413C39.7974 280.464 38.8968 281.435 38.8968 281.435C38.8968 281.435 38.0865 283.484 40.1311 284.622C42.1724 285.759 43.2202 288.701 43.2236 288.711C43.1104 290.322 43.0138 291.601 42.961 292.286C42.4456 291.302 41.8672 290.397 41.2449 289.903C40.2392 289.104 38.6227 288.619 38.1494 289.283C37.6762 289.947 38.8858 291.652 40.2158 291.641C41.0785 291.633 42.0949 293.189 42.6716 294.287C42.4213 295.57 41.9515 297.61 41.139 300.015C40.6853 298.324 40.0911 299.186 39.2884 297.889C38.4857 296.592 38.1286 295.123 37.5374 295.723C36.9462 296.322 36.4134 297.46 37.1424 298.662C37.6323 299.469 39.2722 301.29 40.2601 302.397C39.7561 303.653 39.1628 304.966 38.4657 306.291C38.4163 305.194 38.2759 304.144 37.9264 303.44C37.3557 302.289 36.0988 301.164 35.3881 301.564C34.6773 301.964 35.048 304.021 36.2567 304.575C37.0914 304.958 37.331 307.017 37.3638 308.245C36.138 310.274 34.6539 312.28 32.862 314.106C33.2059 312.67 33.3225 311.14 33.1191 310.06C32.8816 308.798 31.4907 307.42 30.6982 307.612C29.9053 307.805 29.7048 309.885 30.7178 310.747C31.6929 311.576 31.7622 315.037 31.6814 315.241C30.5352 316.279 29.2762 317.241 27.8938 318.094C27.8938 318.094 27.7708 318.186 27.5329 318.355C28.2692 316.975 28.8693 315.403 28.5348 314.617C28.1645 313.745 26.9064 311.976 26.1139 312.169C25.3214 312.361 25.1205 314.442 26.1339 315.303C27.1473 316.165 26.0828 319.415 25.9879 319.352L26.2348 319.246C25.1392 319.977 23.5215 321.009 21.4453 322.207C22.1267 320.68 22.4115 318.333 22.0757 317.542C21.7054 316.671 21.3083 315.943 20.5158 316.136C19.7233 316.328 18.2626 317.795 19.4534 319.264C20.4634 320.51 20.0965 322.478 19.9616 323.047C18.532 323.84 16.9278 324.687 15.1645 325.553C15.9676 324.053 16.532 321.331 15.9502 320.568C15.3522 319.785 15.0006 319.3 14.2082 319.492C13.4152 319.685 12.3537 321.127 13.5446 322.596C14.7355 324.066 13.3735 326.413 13.3735 326.413C11.7732 327.163 10.0597 327.92 8.24273 328.662C9.0514 327.182 9.41402 324.702 8.82582 323.932C8.22826 323.149 6.99696 323.266 6.99696 323.266C6.99696 323.266 5.45665 324.19 6.64752 325.66C7.3949 326.582 7.31361 327.76 7.14975 328.509C6.89821 328.28 6.64625 328.046 6.39428 327.799C5.39792 326.823 4.39474 325.854 3.39242 324.899L3 328.316C3 328.316 3.32261 330.425 11.0624 331.413L11.0646 331.412ZM36.6202 311.395L36.6262 311.392L36.6883 311.364L36.6202 311.395ZM39.9285 305.828L39.9064 305.825L39.9034 305.825L39.9285 305.828ZM44.254 290.179L44.2757 290.156L44.2787 290.153L44.2536 290.179H44.254ZM43.8846 276.999C43.8518 277.925 43.8097 278.899 43.7608 279.89C43.7718 279.653 43.8195 278.611 43.8846 276.999Z" fill="#193973"/>
<path fill-rule="evenodd" clip-rule="evenodd" d="M24.6869 390.664C24.3252 389.783 24.0072 388.84 23.7429 387.824L26.2613 388.568C26.2613 388.568 26.8423 390.071 26.9312 391.845C26.958 392.381 27.0997 392.773 27.2836 393.06C27.5313 393.275 27.788 393.495 28.0527 393.719C28.2323 393.798 28.3604 393.817 28.3604 393.817C28.3604 393.817 29.7671 393.24 29.6343 391.835C29.5019 390.431 28.643 389.228 28.643 389.228L32.7519 390.07C32.7519 390.07 33.6104 391.273 34.0173 393.266C34.4242 395.258 35.9066 395.625 35.9066 395.625C35.9066 395.625 37.2737 395.513 37.0179 393.437C36.7625 391.361 35.0264 390.445 35.0264 390.445C35.0264 390.445 37.2175 391.118 41.0272 391.455C41.7609 392.424 41.6984 393.403 42.4411 395.283C43.3208 397.508 44.9709 396.748 44.9709 396.748C44.9709 396.748 46.1409 395.562 45.2429 393.84C44.7113 392.82 43.7294 392.049 43.0165 391.589C44.4683 391.656 46.092 391.667 47.8668 391.583C48.1213 392.411 48.6874 393.887 49.7076 394.88C51.1943 396.328 52.2208 396.404 53.0904 395.926C53.9599 395.447 53.1202 393.742 52.4264 393.286C51.7322 392.831 49.116 391.51 49.116 391.51L49.1139 391.509C50.9934 391.377 53.0244 391.137 55.1844 390.748L56.7068 390.143L55.1806 390.75C55.1806 390.75 58.8724 393.631 59.7232 393.655C60.574 393.68 61.9806 393.103 62.319 392.375C62.6574 391.647 61.1277 390.568 59.9913 390.651C59.2588 390.705 58.1071 390.478 57.3802 390.311C58.0548 390.162 58.7404 390 59.4367 389.822C59.4367 389.822 60.9711 389.391 63.4456 388.112C64.1215 388.718 65.6626 389.927 67.3668 390.09C69.6545 390.309 70.2159 388.375 70.2159 388.375C70.2159 388.375 69.4519 386.628 67.6971 387.199C66.5722 387.566 65.5226 387.444 64.9148 387.31C66.1512 386.601 67.5498 385.711 69.0586 384.605L70.1282 383.202L69.0578 384.606C70.8351 385.724 75.033 385.133 75.033 385.133C75.033 385.133 77.1789 384.199 77.15 382.984C77.1215 381.768 75.9097 381.893 75.9097 381.893C75.9097 381.893 74.3571 382.205 72.5555 383.049C71.5987 383.497 70.973 383.512 70.5972 383.428L70.5993 383.428C72.0528 382.273 73.5867 380.923 75.1598 379.351L75.9127 378.049L75.1598 379.351C75.1598 379.351 80.1655 378.615 81.453 378.449C82.7404 378.282 83.9845 377.5 84.0484 376.183C84.1126 374.867 82.3123 375.267 82.3123 375.267C82.3123 375.267 79.5879 376.224 78.5575 377.037C77.9301 377.533 77.0849 377.8 76.5205 377.933L76.5345 377.93C78.0906 376.267 79.6735 374.384 81.2465 372.255L81.2568 372.242C82.4272 372.033 85.3176 371.536 86.6829 371.483C88.4186 371.414 88.8834 369.484 88.8834 369.484C88.8834 369.484 87.9585 368.072 86.3897 368.442C84.8204 368.814 82.8234 370.159 82.8234 370.159L82.8247 370.158C83.9066 368.745 84.8885 367.521 85.7806 366.458C85.8683 366.403 88.23 364.941 89.7052 365.338C91.2081 365.742 92.038 364.743 92.038 364.743C92.038 364.743 92.6977 363.346 91.4911 363.123C90.3015 362.903 87.6886 364.312 87.6163 364.352C92.8565 358.603 94.1159 359.658 94.1159 359.658C94.1159 359.658 96.0899 358.769 94.8947 357.85C93.6996 356.931 92.2134 357.453 92.2134 357.453C92.2134 357.453 89.5873 358.947 87.3928 362.569C86.7846 363.572 85.4397 365.306 83.8134 367.289C84.9847 365.86 84.6481 364.026 84.0884 363.009C83.5266 361.988 82.2429 362.251 82.2429 362.251C82.2429 362.251 81.513 362.357 82.1905 364.841C82.866 367.32 81.9067 369.572 81.902 369.583C80.9065 370.763 79.8748 371.965 78.8886 373.103C78.889 373.098 79.1691 370.541 78.8026 369.069C78.4353 367.596 77.1308 367.822 77.1308 367.822C77.1308 367.822 75.2441 368.958 76.1783 371.104C77.1113 373.247 76.1596 376.221 76.1566 376.23C75.0887 377.443 74.2362 378.401 73.7787 378.913C73.9664 377.818 74.0553 376.748 73.8604 375.978C73.5455 374.733 72.5546 373.366 71.7757 373.607C70.9964 373.848 70.9241 375.937 71.9886 376.735C72.6789 377.252 72.5431 379.105 72.3358 380.328C71.3582 381.196 69.7473 382.533 67.6417 383.953C68.307 382.333 67.3119 382.658 67.4604 381.14C67.6094 379.622 68.2167 378.237 67.383 378.355C66.5492 378.474 65.4354 379.055 65.286 380.452C65.1855 381.391 65.3843 383.834 65.4979 385.313C64.3351 386.006 63.0668 386.689 61.7091 387.32C62.3356 386.418 62.8608 385.498 63.0102 384.726C63.2545 383.466 62.9383 381.808 62.1304 381.695C61.3226 381.582 60.3693 383.442 60.9936 384.616C61.4248 385.427 60.3663 387.21 59.6478 388.205C57.4427 389.074 55.0457 389.768 52.5132 390.133C53.6581 389.2 54.6792 388.054 55.1725 387.072C55.7492 385.925 55.4798 383.986 54.7328 383.658C53.9859 383.33 52.5639 384.863 52.8469 386.162C53.1193 387.413 51.0742 390.206 50.8861 390.319C49.3454 390.449 47.7612 390.45 46.1448 390.289C46.1448 390.289 45.9911 390.287 45.6996 390.277C47.122 389.627 48.5529 388.741 48.764 387.913C48.9981 386.996 49.0713 384.827 48.3243 384.499C47.5774 384.171 46.1554 385.704 46.4384 387.003C46.7215 388.302 43.9035 390.24 43.866 390.133L44.1269 390.199C42.813 390.115 40.9003 389.954 38.5228 389.647C39.9904 388.847 41.6418 387.153 41.8541 386.321C42.0882 385.404 42.2142 384.584 41.4677 384.257C40.7207 383.929 38.6701 384.209 38.725 386.099C38.7718 387.703 37.2864 389.044 36.834 389.415C35.2162 389.178 33.4274 388.877 31.5002 388.497C33.0486 387.791 35.1486 385.97 35.1486 385.011C35.1486 384.025 35.1635 383.426 34.4165 383.098C33.6695 382.77 31.9509 383.273 32.0062 385.164C32.0611 387.054 29.5547 388.093 29.5547 388.093C27.8271 387.719 26.0059 387.281 24.1115 386.769C25.6522 386.083 27.4449 384.331 27.4449 383.362C27.4449 382.377 26.3949 381.723 26.3949 381.723C26.3949 381.723 24.6103 381.523 24.6652 383.414C24.6997 384.6 23.9204 385.487 23.3356 385.984C23.2743 385.649 23.2164 385.31 23.1662 384.961C22.9662 383.581 22.7563 382.202 22.5397 380.834L20.1541 383.313C20.1541 383.313 19.1318 385.185 24.6844 390.666L24.6869 390.664ZM57.1465 390.256L57.1529 390.257L57.2188 390.273L57.1465 390.256ZM63.1536 387.838L63.1375 387.822L63.1353 387.82L63.1536 387.838V387.838ZM76.0859 378.022L76.1179 378.017L76.1221 378.016L76.0859 378.022ZM83.7887 367.32C83.2005 368.037 82.5762 368.785 81.9365 369.543C82.0884 369.362 82.7592 368.562 83.7887 367.32Z" fill="#193973"/>
<path fill-rule="evenodd" clip-rule="evenodd" d="M15.3308 336.693C15.4955 337.213 15.702 337.743 15.9586 338.287L16.7915 337.036C16.7915 337.036 16.4949 336.163 15.8833 335.352C15.6981 335.106 15.6164 334.882 15.5922 334.689C15.6219 334.503 15.6539 334.313 15.6879 334.117C15.7381 334.016 15.7871 333.961 15.7871 333.961C15.7871 333.961 16.6162 333.698 17.0737 334.364C17.5308 335.029 17.5955 335.872 17.5955 335.872L19.0903 333.994C19.0903 333.994 19.026 333.151 18.4731 332.127C17.9207 331.103 18.437 330.398 18.437 330.398C18.437 330.398 19.0784 329.945 19.7279 330.951C20.3773 331.956 19.9517 332.995 19.9517 332.995C19.9517 332.995 20.6668 331.895 22.2156 330.349C22.182 329.655 21.7951 329.247 21.4316 328.15C21.0013 326.85 22.0049 326.578 22.0049 326.578C22.0049 326.578 22.954 326.669 23.1915 327.755C23.3324 328.397 23.1843 329.096 23.04 329.56C23.6525 328.998 24.362 328.397 25.1715 327.783C24.9795 327.326 24.6863 326.47 24.7693 325.659C24.8906 324.478 25.3136 324.068 25.8712 323.959C26.4283 323.851 26.6858 324.907 26.5483 325.362C26.4104 325.816 25.7465 327.357 25.7465 327.357L25.7456 327.358C26.6194 326.726 27.5996 326.086 28.69 325.464L29.5809 325.171L28.6879 325.465C28.6879 325.465 29.2514 322.845 29.6162 322.522C29.9809 322.199 30.81 321.936 31.2259 322.131C31.6413 322.327 31.3663 323.362 30.8364 323.742C30.4951 323.988 30.0724 324.51 29.8149 324.85C30.1656 324.668 30.5261 324.487 30.8973 324.31C30.8973 324.31 31.7289 323.936 33.285 323.59C33.359 323.075 33.5923 321.979 34.2805 321.282C35.2045 320.346 36.1609 320.99 36.1609 320.99C36.1609 320.99 36.4665 322.037 35.4867 322.43C34.8581 322.682 34.4418 323.12 34.2243 323.402C35.0275 323.26 35.9681 323.138 37.0364 323.07L38.0208 323.293L37.0355 323.069C37.4054 321.926 39.4653 320.645 39.4653 320.645C39.4653 320.645 40.7503 320.268 41.184 320.812C41.6177 321.356 41.0397 321.746 41.0397 321.746C41.0397 321.746 40.2438 322.179 39.1427 322.47C38.5579 322.624 38.2779 322.847 38.1438 323.022L38.1447 323.021C39.207 322.995 40.3757 323.025 41.6432 323.138L42.4515 323.433L41.6428 323.138C41.6428 323.138 44.1105 321.624 44.737 321.224C45.3635 320.825 46.1969 320.712 46.708 321.267C47.2192 321.821 46.2824 322.306 46.2824 322.306C46.2824 322.306 44.7353 322.886 43.9841 322.907C43.5266 322.92 43.0575 323.112 42.7609 323.261L42.7681 323.257C44.0616 323.416 45.4474 323.662 46.9191 324.019L46.9285 324.022C47.5193 323.684 48.9702 322.841 49.5895 322.363C50.3768 321.756 51.2894 322.434 51.2894 322.434C51.2894 322.434 51.4017 323.393 50.5765 323.806C49.7512 324.219 48.3811 324.361 48.3811 324.361H48.382C49.3754 324.584 50.2556 324.761 51.0378 324.901C51.0966 324.893 52.6696 324.668 53.1719 323.953C53.6834 323.224 54.4142 323.358 54.4142 323.358C54.4142 323.358 55.2165 323.729 54.7688 324.27C54.3274 324.803 52.6628 325.143 52.6169 325.152C57.0275 325.753 57.1931 324.828 57.1931 324.828C57.1931 324.828 58.3857 324.494 58.1984 325.335C58.0107 326.177 57.1667 326.494 57.1667 326.494C57.1667 326.494 55.4655 326.801 53.1731 326.017C52.5381 325.799 51.3111 325.532 49.8695 325.258C50.9076 325.456 51.4332 326.384 51.5609 327.036C51.689 327.69 51.0289 328.046 51.0289 328.046C51.0289 328.046 50.6697 328.268 50.0551 326.928C49.4422 325.592 48.1943 324.955 48.1883 324.952C47.3179 324.799 46.4242 324.65 45.5733 324.512C45.5755 324.514 46.637 325.534 47.0162 326.315C47.3954 327.096 46.74 327.476 46.74 327.476C46.74 327.476 45.4946 327.67 45.1171 326.385C44.7404 325.101 43.2312 324.145 43.2261 324.142C42.3123 324.002 41.5866 323.894 41.1976 323.836C41.6819 324.248 42.1135 324.686 42.311 325.095C42.6298 325.758 42.6962 326.721 42.2655 326.901C41.8352 327.081 41.0363 326.191 41.2108 325.45C41.324 324.97 40.5843 324.206 40.0446 323.745C39.2968 323.723 38.0987 323.727 36.6537 323.877C37.5403 324.344 36.984 324.566 37.6067 325.178C38.2294 325.79 39.004 326.175 38.5945 326.429C38.1851 326.683 37.4828 326.837 36.9044 326.278C36.5158 325.903 35.7067 324.757 35.2139 324.066C34.449 324.189 33.6412 324.354 32.8138 324.575C33.4199 324.742 33.9881 324.953 34.3371 325.237C34.907 325.701 35.3769 326.545 35.0636 326.891C34.7504 327.237 33.6493 326.77 33.4923 326.025C33.3842 325.511 32.2652 325.117 31.5847 324.944C30.2976 325.372 28.9901 325.947 27.7443 326.716C28.5896 326.706 29.4583 326.834 30.0354 327.084C30.7096 327.375 31.3029 328.326 31.0956 328.744C30.8879 329.162 29.7013 329.011 29.3489 328.336C29.0097 327.687 27.0863 327.212 26.9625 327.231C26.2385 327.739 25.5426 328.32 24.8918 328.984C24.8918 328.984 24.825 329.041 24.7007 329.153C25.5639 328.916 26.5173 328.78 26.9139 329.066C27.3532 329.383 28.1814 330.308 27.9742 330.727C27.7665 331.145 26.5798 330.994 26.2274 330.319C25.8746 329.645 23.9266 329.829 23.9495 329.89L24.0398 329.765C23.4937 330.284 22.7127 331.056 21.7819 332.064C22.7199 331.876 24.0666 332.014 24.465 332.301C24.9042 332.618 25.2604 332.931 25.0527 333.349C24.8455 333.767 23.8423 334.397 23.1728 333.547C22.6046 332.826 21.4605 332.782 21.126 332.786C20.5025 333.483 19.8275 334.272 19.1209 335.146C20.0598 334.888 21.6504 334.917 22.0019 335.338C22.3633 335.771 22.5897 336.028 22.3824 336.446C22.1747 336.864 21.2362 337.274 20.5663 336.424C19.8964 335.574 18.4148 336.037 18.4148 336.037C17.7939 336.836 17.155 337.696 16.5111 338.616C17.4393 338.352 18.869 338.464 19.2248 338.889C19.5861 339.322 19.3652 339.994 19.3652 339.994C19.3652 339.994 18.6549 340.736 17.9854 339.886C17.5649 339.353 16.8975 339.249 16.4583 339.246C16.554 339.416 16.6532 339.586 16.7592 339.757C17.178 340.437 17.5917 341.119 17.9986 341.799L16.0416 341.586C16.0416 341.586 14.9056 341.14 15.3321 336.696L15.3308 336.693ZM29.7319 324.961L29.7345 324.958L29.7575 324.927L29.7319 324.961ZM33.2565 323.818L33.2552 323.831V323.832L33.2565 323.818ZM42.5366 323.381L42.5528 323.372L42.5549 323.37L42.5366 323.381ZM49.8461 325.252C49.3247 325.154 48.7757 325.054 48.2169 324.956C48.3501 324.98 48.9378 325.085 49.8461 325.252Z" fill="#193973"/>
<path fill-rule="evenodd" clip-rule="evenodd" d="M28.8832 376.138C28.8802 376.594 28.9075 377.069 28.9717 377.567L29.957 376.787C29.957 376.787 29.946 376.015 29.6685 375.212C29.5846 374.969 29.5774 374.77 29.6076 374.61C29.6791 374.47 29.7536 374.326 29.8311 374.18C29.897 374.113 29.9502 374.081 29.9502 374.081C29.9502 374.081 30.678 374.086 30.8704 374.733C31.0628 375.381 30.8964 376.068 30.8964 376.068L32.5699 374.959C32.5699 374.959 32.7363 374.272 32.5605 373.314C32.3848 372.356 32.9776 371.929 32.9776 371.929C32.9776 371.929 33.6046 371.734 33.8621 372.701C34.12 373.669 33.5131 374.386 33.5131 374.386C33.5131 374.386 34.3656 373.695 35.9965 372.864C36.1489 372.303 35.9459 371.879 35.9399 370.912C35.9323 369.767 36.8014 369.809 36.8014 369.809C36.8014 369.809 37.533 370.126 37.4423 371.051C37.3887 371.599 37.0908 372.117 36.8563 372.449C37.4887 372.16 38.208 371.864 39.0107 371.584C38.9758 371.171 38.9631 370.415 39.238 369.791C39.6389 368.882 40.0811 368.665 40.5532 368.722C41.0247 368.779 40.9571 369.686 40.7306 370.012C40.5038 370.339 39.5785 371.393 39.5785 371.393L39.5776 371.394C40.4357 371.117 41.3806 370.86 42.4088 370.646L43.1932 370.643L42.4071 370.646C42.4071 370.646 43.5312 368.707 43.9045 368.544C44.2777 368.381 45.0055 368.385 45.286 368.648C45.5665 368.911 45.0804 369.664 44.5607 369.83C44.2258 369.937 43.7551 370.244 43.4622 370.448C43.7883 370.393 44.1215 370.342 44.4629 370.297C44.4629 370.297 45.2209 370.214 46.5484 370.339C46.7399 369.95 47.2081 369.137 47.9355 368.76C48.9118 368.253 49.5073 369.012 49.5073 369.012C49.5073 369.012 49.4804 369.924 48.5994 369.985C48.0342 370.023 47.5899 370.265 47.3443 370.433C48.0202 370.527 48.8003 370.672 49.6677 370.893L50.3934 371.325L49.6673 370.893C50.2563 370.078 52.2257 369.59 52.2257 369.59C52.2257 369.59 53.3455 369.621 53.5502 370.166C53.7549 370.711 53.1948 370.872 53.1948 370.872C53.1948 370.872 52.45 371.011 51.4987 370.959C50.9935 370.931 50.7135 371.036 50.5615 371.14L50.5623 371.14C51.4144 371.393 52.3368 371.718 53.3165 372.134L53.8834 372.578L53.3161 372.134C53.3161 372.134 55.6697 371.566 56.2716 371.409C56.873 371.253 57.5654 371.378 57.8289 371.951C58.0928 372.524 57.222 372.668 57.222 372.668C57.222 372.668 55.8413 372.731 55.2386 372.554C54.8713 372.446 54.4482 372.479 54.1737 372.52L54.1805 372.519C55.1688 372.979 56.2081 373.532 57.2875 374.196L57.2943 374.2C57.8514 374.084 59.2236 373.787 59.8395 373.567C60.6222 373.287 61.1738 374.061 61.1738 374.061C61.1738 374.061 61.0159 374.853 60.2528 374.969C59.4896 375.085 58.3626 374.845 58.3626 374.845H58.3635C59.0964 375.279 59.7514 375.646 60.3379 375.959C60.3868 375.968 61.6965 376.195 62.2808 375.754C62.8758 375.306 63.4228 375.601 63.4228 375.601C63.4228 375.601 63.9658 376.103 63.47 376.418C62.9814 376.728 61.5692 376.57 61.53 376.565C64.8847 378.181 65.2555 377.487 65.2555 377.487C65.2555 377.487 66.291 377.528 65.9245 378.15C65.5581 378.772 64.8051 378.806 64.8051 378.806C64.8051 378.806 63.3721 378.612 61.7501 377.397C61.3006 377.06 60.3932 376.531 59.3168 375.941C60.0923 376.366 60.2711 377.24 60.2042 377.792C60.1374 378.346 59.5203 378.459 59.5203 378.459C59.5203 378.459 59.1772 378.542 59.0338 377.318C58.8904 376.097 58.0617 375.268 58.0579 375.265C57.4045 374.919 56.7317 374.57 56.0907 374.241C56.092 374.243 56.6738 375.328 56.7738 376.047C56.8742 376.767 56.255 376.9 56.255 376.9C56.255 376.9 55.2139 376.733 55.245 375.613C55.276 374.495 54.3214 373.344 54.3184 373.341C53.6276 372.994 53.0777 372.721 52.7828 372.575C53.062 373.028 53.2927 373.487 53.3442 373.863C53.4272 374.473 53.2314 375.257 52.8428 375.289C52.4538 375.321 52.0478 374.407 52.3776 373.862C52.5917 373.509 52.1997 372.71 51.889 372.205C51.2995 371.994 50.3453 371.689 49.1566 371.435C49.7413 372.035 49.2417 372.069 49.5792 372.717C49.9167 373.364 50.4342 373.87 50.0427 373.967C49.6511 374.063 49.0527 374.005 48.7365 373.411C48.5237 373.012 48.1751 371.892 47.961 371.215C47.3209 371.115 46.6356 371.038 45.9197 371.001C46.3594 371.29 46.7569 371.604 46.9612 371.92C47.2953 372.436 47.4515 373.229 47.1127 373.423C46.7744 373.618 46.0185 372.963 46.0857 372.33C46.1321 371.893 45.3435 371.291 44.8463 370.977C43.7117 370.986 42.5233 371.106 41.3337 371.397C42.0092 371.607 42.6672 371.933 43.0622 372.281C43.5235 372.687 43.7504 373.596 43.4776 373.875C43.2047 374.155 42.299 373.729 42.1926 373.101C42.0896 372.497 40.6821 371.622 40.5783 371.606C39.8713 371.824 39.1674 372.107 38.4787 372.467C38.4787 372.467 38.4106 372.496 38.2834 372.552C39.0312 372.586 39.8249 372.724 40.0667 373.053C40.3348 373.418 40.7549 374.369 40.4821 374.648C40.2093 374.927 39.3036 374.501 39.1971 373.873C39.0903 373.246 37.493 372.89 37.4955 372.944L37.5994 372.868C37.0312 373.14 36.2106 373.554 35.21 374.115C36.0046 374.208 37.0406 374.664 37.284 374.996C37.5521 375.361 37.7547 375.703 37.4815 375.981C37.2087 376.261 36.2481 376.503 35.9344 375.654C35.6684 374.933 34.769 374.604 34.5018 374.52C33.8259 374.914 33.0853 375.368 32.2979 375.882C33.1117 375.918 34.3698 376.351 34.5413 376.777C34.7175 377.214 34.8312 377.478 34.5584 377.757C34.2855 378.036 33.4326 378.12 33.1189 377.271C32.8053 376.422 31.5067 376.409 31.5067 376.409C30.8066 376.884 30.0762 377.405 29.3267 377.971C30.1337 378 31.2428 378.457 31.416 378.887C31.5923 379.325 31.2432 379.803 31.2432 379.803C31.2432 379.803 30.4865 380.211 30.1728 379.361C29.9758 378.828 29.4714 378.574 29.1228 378.458C29.1556 378.618 29.1905 378.778 29.2305 378.942C29.3888 379.591 29.5416 380.24 29.6902 380.887L28.1878 380.212C28.1878 380.212 27.3991 379.564 28.8841 376.138H28.8832ZM43.3678 370.514L43.3703 370.512L43.3967 370.493L43.3673 370.514L43.3678 370.514ZM46.4675 370.513L46.4633 370.523L46.4628 370.525L46.4675 370.513ZM53.9647 372.558L53.9796 372.555L53.9817 372.555L53.9647 372.558ZM59.299 375.932C58.9095 375.719 58.4984 375.498 58.0787 375.276C58.1787 375.329 58.6192 375.565 59.299 375.932Z" fill="#193973"/>
<path fill-rule="evenodd" clip-rule="evenodd" d="M1 355.731C14.3894 360.948 6.4927 319.224 28.5 360.731C39.8937 366.096 22.5382 374.653 38 375.731C42.0165 376.013 43.5 382.731 47.5 382.731C60.6545 382.731 47.5224 391.843 59 391.231C62 390.731 67.8088 403.181 71.5726 408.231C72.8005 409.878 101.167 417.099 101.167 430.166C101.167 449.15 102.165 445.824 93.2913 462.459C83.0288 481.697 122.301 476.454 113.35 491.166C112.127 493.176 101.533 514.085 101.167 517.036C100.413 523.113 99.1639 517.439 98.5668 527.12C98.0075 536.175 107.168 580.515 107.333 586.699C107.473 591.847 102.855 600.873 108.073 613.904C108.842 615.825 108.235 621.541 113.35 631.198C116.024 636.251 114.596 640.232 118.039 649.423C120.626 656.327 123.816 676.244 131.42 675.873C132.407 675.825 161.958 683.357 164.2 683.748C185.575 687.496 205.175 674.996 226.596 680.202C244.744 684.613 245.947 689.097 268.067 689.097C279.347 689.097 287.337 688.289 298.602 690.87C332.923 698.73 345.912 711.956 381.213 690.287C385.868 687.43 391.414 688.064 398.163 680.871C405.799 672.732 445.675 682.992 458.24 682.992C469.166 682.992 473.766 683.75 484.696 681.22C498.057 678.129 517.566 671.548 522.321 689.765C527.6 710.001 539.235 721.366 558.512 716.302C571.88 712.791 607.157 682.639 621.188 695.2C629.135 702.311 650.684 701.37 655.013 707.058C664.568 719.616 682.039 727.348 696.358 728.682C702.005 729.21 705.922 729.439 710.404 728.771C749.992 703.281 762.03 726.227 784.976 707.753C798.646 696.75 789.184 693.117 812.097 683.832C822.57 679.588 816.816 677.902 834.043 677.902C845.091 677.902 851.765 667.325 858.716 682.814C862.278 690.75 892.074 691.499 897.972 687.144C902.481 683.812 937.573 678.5 941.455 681.971C951.763 691.196 959.472 679.937 968.215 679.937C988.497 679.937 982.194 660.871 997.656 661.626C1001.21 661.801 1016.52 657.063 1024.57 660.347C1036.34 665.146 1063.72 652.256 1068.14 652.469C1094.27 653.744 1089.68 648.099 1100.91 631.193C1109.59 618.154 1141.33 629.072 1152.88 629.072C1159.13 629.072 1165.38 629.072 1171.62 629.072C1185.8 624.471 1202.03 638.387 1213.77 618.988C1215.05 616.878 1222.06 603.815 1222.47 602.625C1226.22 594.452 1232.54 589.685 1240.31 588.469C1245.27 587.692 1271.36 581.376 1272.42 576.175C1280.69 575.083 1269.85 536.718 1290.05 523.186C1310.86 509.234 1301.93 500.074 1308.85 484.616C1308.89 484.524 1309.58 477.882 1309.9 476.478C1318.64 469.198 1313.9 470.842 1320.36 463.657C1325.79 457.642 1325.77 451.687 1335.3 446.888C1339.88 444.589 1342.71 441.003 1350.94 438.081C1383.45 426.516 1316.25 372.178 1342.39 358.742C1347.21 356.266 1413.36 333.818 1419.35 333.818C1426.69 333.818 1438.45 242.478 1443.92 243.002L1443.98 821.732L0 818.297L0.5 587.014L1 355.731Z" fill="#193973"/>
</g>
<defs>
<clipPath id="clip0_331_45987">
<rect width="1440" height="836" fill="white"/>
</clipPath>
</defs>
</svg>
