<svg width="1439" height="830" viewBox="0 0 1439 830" fill="none" xmlns="http://www.w3.org/2000/svg">
<g clip-path="url(#clip0_331_45993)">
<path fill-rule="evenodd" clip-rule="evenodd" d="M306.277 601.191C311.733 604.454 312.651 607.239 316.079 612.429C312.098 613.758 315.95 610.3 313.015 612.162C316.429 616.561 317.747 612.399 317.958 621.423L314.537 620.023C316.045 623.51 316.835 621.126 318.94 627.813C320.57 632.99 323.007 631.824 320.862 637.188L317.386 632.777C317.299 632.647 317.143 632.413 317.004 632.247C317.401 635.779 321.093 642.603 315.923 645.129C312.17 641.643 316.297 633.503 315.303 628.278L314.945 627.1C313.302 630.436 314.414 637.045 312.679 640.392C310.237 635.098 313.81 618.854 312.677 616.869L310.818 621.745C308.932 621.229 309.897 621.014 308.993 621.228C309.684 625.281 310.582 627 310.521 632.164C307.878 630.407 304.609 626.157 305.35 622.217C306.189 617.747 309.386 618.751 309.091 609.94L307.393 614.517C306.861 616.58 307.311 616.616 305.428 618.03C305.932 615.606 307.222 612.051 305.88 609.608L304.864 614.987L302.359 611.968C302.509 614.469 303.789 616.255 304.008 618.298C304.31 621.125 303.137 622.347 304.092 626.08C305.402 631.186 309.053 631.321 310.078 637.51C305.89 636.983 305.946 636.936 303.669 634.856C304.639 641.637 311.383 633.535 312.155 647.089C309.645 645.829 310.83 645.8 308.431 645.426C311.414 652.021 321.083 652.651 321.357 661.212C321.455 664.274 321.025 668.046 320.939 671.241C311.81 665.153 319.713 665.689 317.633 657.045C316.063 657.854 318.446 656.733 316.793 657.88C315.279 658.932 317.389 658.485 314.878 658.883C312.764 656.715 314.165 657.082 312.679 654.912C311.039 657.924 314.35 659.66 315.777 661.267L314.161 666.266L311.248 662.838C310.883 668.857 316.496 668.296 318.892 673.145C320.07 675.533 319.401 676.933 321.329 679.861C324.462 684.615 322.085 681.289 322.679 686.675C333.96 687.316 320.839 684.076 337.362 672.364C341.136 669.69 341.112 671.926 342.742 667.198C340.263 669.058 342.188 668.764 339.12 669.621L338.123 665.903C336.88 671.671 336.877 672.097 332.194 673.978C336.539 659.539 343.567 664.675 344.136 660.85L338.361 661.765C340.701 657.639 340.695 659.233 343.309 657.142C346.417 654.655 344.779 652.996 344.835 649.699C342.29 653.28 346.11 653.814 342.141 656.022L340.867 650.654C338.29 656.703 342.705 655.415 337.807 659.433C334.957 653.081 337.043 652.497 339.273 647.002C340.167 644.801 340.089 644.905 341.198 643.137L339.422 642.963C338.563 642.645 338.42 641.059 337.963 643.298C337.15 647.282 339.13 646.029 336.097 649.901L333.825 647.678C333.259 646.808 332.868 645.804 332.416 644.648C334.83 640.731 334.636 641.304 338.687 638.922C340.95 637.593 344.469 636.802 344.863 633.668C343.34 635.382 343.427 635.527 340.687 635.747C340.789 633.172 341.916 630.521 340.571 628.426C340.152 631.118 339.639 635.678 337.608 637.391C334.185 631.104 337.527 630.165 337.927 624.103L335.665 627.708C334.981 629.504 335.076 630.261 334.587 631.885C334.416 631.814 334.181 631.462 334.114 631.597C334.049 631.73 333.743 631.366 333.653 631.293C333.564 631.225 333.323 631.055 333.214 630.966L330.617 628.68C332.86 635.357 339.286 634.709 332.54 641.616C330.9 640.563 329.231 639.333 327.831 638.013C327.885 633.091 328.631 636.149 330.004 632.561H326.751C326.463 634.288 326.781 637.734 324.879 638.183L323.121 638.603C326.675 641.644 328.038 639.011 329.724 642.7C332.961 649.783 338.501 660.192 333.067 667.099C332.978 666.956 330.001 658.904 329.614 657.748C328.355 653.983 326.299 652.817 330.63 649.001L328.265 646.99C328.171 646.911 327.969 646.743 327.825 646.61C327.806 648.215 328.064 648.157 327.549 649.702C326.542 652.714 327.495 650.567 326.276 651.461C323.519 645.949 327.329 647.343 326.791 642.74L324.58 645.799C323.658 644.742 323.794 644.85 322.036 644.179L324.376 651.072C325.607 655.66 326.991 654.647 328.248 658.34L323.775 655.149C325.615 661.893 333.986 660.907 329.878 673.205C329.095 675.547 327.958 677.341 325.925 678.69C326.608 671.078 329.518 674.415 329.203 665.853C328.088 668.035 328.914 669.822 326.679 670.8L328.383 663.504C328.425 663.499 328.259 663.508 328.236 663.606C328.212 663.707 327.985 663.673 327.951 663.676C325.935 663.916 329.014 664.563 326.614 663.682L324.347 662.073C324.215 661.967 324.015 661.741 323.813 661.627C324.656 664.366 325.247 664.47 325.997 666.555L324.079 666.257C325.874 671.549 325.618 671.213 324.24 677.273C320.962 673.02 323.948 662.872 323.025 657.673C321.666 650.028 316.374 649.896 320.152 642.294C322.478 637.611 328.284 625.527 332.839 623.247C337.172 621.079 338.053 624.204 339.371 618.803C339.195 618.915 338.955 618.913 338.871 619.18C338.378 620.733 335.243 621.14 333.819 621.391C335.143 617.401 336.838 612.801 337.053 607.688C334.318 610.628 335.628 618.233 331.84 620.256C328.481 614.504 334.479 611.339 334.11 605.091C332.566 607.211 332.503 608.001 331.593 610.707C329.535 607.13 330.155 604.527 330.166 599.889C326.56 604.461 330.057 609.594 329.493 615.24C327.907 613.411 327.765 612.271 327.119 609.722C324.524 614.637 332.099 619.049 329.506 623.732C326.789 623.57 325.582 617.077 324.765 615.255C322.663 618.52 326.652 622.59 327.793 625.763C326.571 628.339 325.089 631.141 322.953 632.596C321.202 628.596 321.546 627.632 325.438 625.652C325.323 625.538 325.111 625.22 325.067 625.334L322.166 620.923C322.127 624.347 322.861 624.748 320.989 627.185C316.419 620.483 325.312 611.214 323.949 600.562L322.786 605.71C320.065 605.212 322.779 604.046 320.359 604.611C321.148 606.957 322.233 607.292 321.6 610.381L318.722 615.093C317.425 611.905 316.347 610.28 316.855 607.376C317.519 603.577 320.004 602.315 318.722 599.749L316.834 602.752C315.041 599.544 316.986 600.713 314.16 599.096C314.646 601.873 316.164 605.119 314.945 607.311C312.2 604.997 309.492 601.756 308.477 598.048L307.971 599.124C306.846 601.092 306.49 599.887 306.277 601.193V601.191Z" fill="#1E4CA1"/>
<path fill-rule="evenodd" clip-rule="evenodd" d="M372.331 687.114C373.149 686.283 374.229 686.224 375.327 686.072C377.935 685.707 380.79 683.855 381.562 681.944C376.328 681.74 376.026 686.007 372.398 685.409C372.705 684.757 371.726 685.462 373.104 684.747C373.91 684.329 375.681 684.081 376.411 682.779C375.13 682.509 373.395 683.309 372.028 682.96C372.824 680.958 377.284 684.141 379.432 679.084C381.28 674.728 375.084 669.502 376.373 659.847C376.827 656.458 377.607 654.799 378.51 651.817C379.618 648.162 377.979 645.837 377.013 642.074C376.095 638.505 376.438 635.44 375.216 631.501C374.039 627.711 372.999 625.256 372.97 621.232C372.957 619.562 373.046 613.902 374.562 612.822C375.346 614.867 375.128 616.837 376.283 619.493C380.599 629.423 377.78 629.695 380.462 637.779C380.482 637.84 380.69 638.388 380.706 638.419L381.239 639.143C381.348 636.198 381.617 634.834 381.225 631.381C380.544 625.382 378.612 619.54 383.569 613.414C384.304 612.504 384.567 611.052 385.793 610.682C385.596 611.963 385.076 612.855 384.936 614.498L384.651 627.774C385.168 637.677 386.523 634.174 383.874 645.097C380.377 659.513 389.718 667.544 385.341 676.59C384.836 677.634 383.93 679.135 383.741 680.181C385.994 679.043 387.697 676.927 388.724 674.812C393.413 665.177 389.198 666.839 388.759 657.934C388.095 644.524 391.864 643.1 393.427 634.823C395.079 626.077 389.414 620.859 388.646 618.17C391.587 617.835 394.58 621.036 395.697 624.58C398.135 632.312 397.08 638.71 393.948 645.64C392.146 649.625 391.533 650.212 391.212 655.13C390.964 658.953 390.735 662.163 391.383 666.231C392.154 671.082 388.501 678.305 383.893 680.932C381.634 682.222 381.83 684.029 378.353 685.946C376.107 687.185 372.92 687.218 372.829 687.213L372.332 687.114L372.331 687.114ZM388.801 682.336C391.942 680.181 393.777 677.197 397.132 674.993C399.499 673.438 406.162 670.162 409.255 669.973C409.001 671.222 407.111 672.177 405.884 673.13C404.586 674.141 403.521 675.07 402.359 676.19C400.252 678.223 398.023 680.476 395.195 682.25C391.975 684.271 374.65 689.243 372.904 688.671C373.497 687.772 375.535 687.847 376.536 687.592C384.459 685.578 385.857 684.126 389.407 677.742C390.413 675.933 390.951 674.339 391.716 672.109C392.433 670.019 392.988 668.304 394.103 666.504C395.287 664.589 396.968 663.404 397.761 661.698C400.47 655.864 400.336 645.921 403.215 643.82C404.767 642.684 403.835 645.337 404.348 649.402C405.124 655.537 405.165 658.488 402.431 662.32C400.15 665.521 396.321 668.678 395.245 671.999C394.501 674.293 393.663 675.62 392.39 677.304C391.173 678.916 389.969 680.695 388.8 682.335L388.801 682.336ZM371.749 681.335C372.883 679.945 375.114 679.902 375.155 675.3C375.209 669.3 371.061 670.443 370.119 658.516C369.86 655.264 368.232 653.404 368.628 649.8C369.39 642.869 366.026 644.72 364.208 632.953C363.565 628.8 364.674 620.123 368.238 618.852C368.413 619.856 367.311 621.781 367.406 626.205C367.467 629.043 367.945 631.954 368.334 634.804C368.834 638.467 369.686 640.004 371.283 642.982C374.96 649.837 371.654 650.169 372.313 654.706C372.539 656.259 373.311 657.761 373.258 659.286C372.95 668.308 376.768 667.19 375.827 676.159C375.668 677.651 373.924 682.401 371.749 681.335ZM379.296 681.45L382.553 680.81C385.158 676.157 385.166 669.526 383.028 664.173C382.703 663.36 381.031 659.507 380.631 659.103C379.108 663.001 380.521 666.427 380.919 670.853C381.611 678.566 379.156 679.907 379.297 681.45H379.296Z" fill="#1E4CA1"/>
<path fill-rule="evenodd" clip-rule="evenodd" d="M748.702 679.006C744.701 679.769 748.15 680.458 744.994 680.472L745.392 676.267C742.63 676.997 743.234 677.157 743.703 679.699C741.116 678.504 741.623 677.299 741.01 681.307C743.418 682.593 740.42 680.207 743.014 681.454C743.427 683.59 743.978 683.685 742.214 685.255C740.328 686.943 740.638 684.667 739.718 687.359C743.379 689.942 739.229 685.892 742.399 687.981C742.148 690.203 741.763 690.221 740.419 691.173C740.218 687.408 739.57 689.39 738.523 686.795C740.118 684.564 738.743 685.276 741.211 683.828C740.064 681.656 740.23 683.282 739.656 682.697C738.86 681.876 739.885 683.708 739.347 682.063C739.324 682.01 739.324 681.826 739.307 681.769C738.807 680.106 740.34 681.371 738.212 680.065C736.802 679.199 738.196 679.216 736.61 679.765C735.556 682.049 736.57 679.181 737.362 682.538C737.924 684.912 737.259 684.594 736.019 684.855C733.643 678.575 734.352 680.335 733.502 680.66L732.242 680.968C732.137 680.972 731.883 680.935 731.791 680.933C731.69 680.931 731.379 681.039 731.3 680.87C731.221 680.692 730.964 680.787 730.793 680.795C731.751 683.355 731.068 682.987 731.704 685.116L733.674 684.745C733.722 684.593 733.901 684.596 734.032 684.56C735.126 687.525 735.709 686.247 737.687 687.948C738.629 692.742 737.393 694.951 737.652 699.141C735.612 697.767 732.965 695.598 731.847 693.322C732.684 692.782 733.472 693.155 734.745 693.388C734.404 690.185 734.211 691.968 735.184 689.31C734.67 689.024 734.706 689.059 734.146 688.589L733.559 688.037C730.648 685.222 734.793 688.406 732.606 686.999C731.199 689.759 733.459 689.09 731.27 691.198C728.747 689.306 730.358 690.096 730.126 687.715L729.921 685.107C729.011 685.313 729.37 685.303 728.866 685.528C725.522 687.024 730.81 685.039 727.934 685.996C727.995 683.355 729.518 683.728 727.115 682.697L726.454 686.016C725.272 685.244 725.644 685.164 724.121 685.379C724.35 688.434 723.522 686.401 725.465 687.942C727.475 689.539 728.976 689.883 729.107 692.698L728.923 693.476C726.498 693.779 727.002 689.891 723.531 689.66C724.411 692.335 724.226 689.621 725.036 692.728C722.564 694.045 723.67 691.044 723.071 695.101L724.178 695.141C724.187 695.14 725.062 694.774 725.154 694.743C725.224 695.123 725.453 696.602 725.517 696.77C726.165 698.532 725.286 697.318 726.701 698.229L727.151 695.212C732.215 694.92 731.388 696 733.677 698.628C735.779 701.039 737.45 700.449 736.023 705.247C734.29 705.278 730.109 703.388 730.148 700.958C730.179 699.331 730.026 700.058 731.348 699.255C731.248 699.157 731.077 699.046 731.02 698.993L730.45 698.485C729.357 697.34 731.156 697.316 728.555 696.496C727.886 699.532 728.726 699.664 728.056 701.953C726.025 701.041 725.355 698.896 723.841 697.62L722.523 699.593C721.288 697.103 723.853 698.237 720.819 697.015L721.499 700.442C719.336 701.675 720.263 698.026 718.771 701.629C723.149 703.168 723.079 701.211 724.851 701.442C724.899 701.555 724.905 701.744 724.9 701.804C724.741 703.411 723.447 704.181 722.369 705.268C720.488 704.568 721.38 704.334 719.595 704.136C719.231 707.139 719.296 705.311 721.577 706.975C719.748 708.847 718.684 707.504 720.142 710.445C721.411 709.817 722.563 708.744 723.21 707.925C723.718 712.082 720.785 708.56 722.916 712.441C724.724 710.211 724.357 706.687 725.635 705.438C728.064 703.058 730.318 705.16 731.436 706.97C729.622 710.7 729.561 710.544 726.542 709.76C727.137 711.9 726.983 713.041 729.501 712.238C728.796 713.952 728.319 713.435 729.492 715.204C729.597 715.127 729.719 714.983 729.767 714.926L730.57 713.996C731.251 713.128 730.162 714.204 731.326 712.918C731.213 716.973 730.074 715.885 733.051 715.847C734.036 714.478 733.41 716.542 733.3 714.817C733.208 713.31 732.574 713.793 732.342 711.668C732.07 709.183 732.661 708.89 734.236 707.886C740.939 710.555 733.484 719.418 734.601 722.651C736.82 723.389 742.428 723.394 744.554 722.621C745.137 720.157 743.368 720.084 742.939 718.028C742.789 717.322 742.995 716.167 743.272 715.478C745.816 709.106 750.503 716.493 752.499 718.646C753.901 716.083 752.526 714.991 752.311 713.791C754.238 714.072 755.271 716.144 755.302 716.073C755.345 715.978 755.484 716.287 755.585 716.347L756.723 715.277L753.498 711.89C754.676 710.693 756.338 710.074 757.901 711.763C759.569 713.566 758.085 715.302 761.368 715.001L760.357 711.859C762.857 712.715 761.547 713.551 763.417 712.904C764.551 710.44 763.487 711.247 760.646 710.325C763.002 708.765 762.419 710.713 762.515 708.315C758.816 706.444 761.149 712.753 756.12 708.751C756.623 707.164 757.069 707.783 758.449 706.796C760.024 705.67 759.21 706.708 759.959 704.794C762.419 706.426 758.208 706.812 762.446 706.113C762.109 704.604 761.499 704.87 762.126 703.713L763.469 704.399C765.072 704.984 763.18 705.244 764.643 704.541C765.33 702.492 764.682 703.309 763.391 702.163L760.941 699.616L760.313 701.012C759.346 703.036 758.195 704.793 755.853 704.413C756.899 699.323 758.509 699.829 760.077 698.444L759.319 697.325C758.838 696.312 759.171 695.868 760.941 694.945C763.009 695.988 761.858 695.588 763.346 697.255L765.027 696.169L763.373 693.917C766.005 691.902 765.138 694.325 766.021 692.263C764.718 689.519 764.625 692.149 762.331 690.167C761.189 689.176 762.266 689.587 760.65 688.82C759.036 692.616 759.726 689.278 761.662 692.136L757.771 694.71L757.38 690.84C754.583 693.845 758.037 695.194 755.551 699.816C752.788 704.942 753.326 703.696 753.226 708.152C751.962 708.573 751.165 709.221 750.324 709.516C749.382 709.845 750.14 709.771 749.02 709.772C747.522 709.774 748.639 709.991 747.641 709.345C749.593 706.57 748.525 709.642 750.153 707.457C751.444 705.728 750.21 706.536 750.178 705.59C750.118 703.623 751.51 703.321 750.284 701.213C749.291 703.301 750.178 703.108 748.236 702.582C748.062 703.425 748.123 704.189 748.113 704.254C747.973 705.352 748.328 704.397 747.884 705.307C745.789 704.197 746.419 703.83 747.334 701.765C750.012 695.692 751.19 701.142 752.888 701.852C753.834 697.738 754.842 699.872 755.459 696.284C753.537 696.506 754.057 696.742 753.843 696.786C750.144 697.533 750.787 698.563 750.559 696.876C750.262 694.71 751.242 696.738 751.326 692.774L751.904 693.465C752.762 694.248 751.979 694.135 753.147 694.214C755.646 694.382 754.714 693.494 754.885 693.323C753.375 690.385 754.118 694 752.74 690.948C752.766 690.934 753.546 690.415 753.712 690.279C758.024 686.721 755.065 688.602 758.343 688.906L758.409 686.648C758.698 685.149 759.56 687.883 758.672 685.054L755.871 685.251C755.804 685.356 755.691 685.53 755.626 685.642L754.583 687.199L754.023 683.335C755.477 682.484 755.738 683.047 757.088 682.048C755.375 678.773 756.956 681.74 754.381 680.268C755.309 677.989 755.717 679.22 754.662 677.014C751.378 678.598 754.438 678.773 751.746 679.987L750.661 680.268C751.646 682.484 755.427 686.983 749.75 687.888C750.634 690.847 751.62 688.784 749.925 692.322C747.815 696.728 744.519 699.801 744.62 704.968C744.47 704.854 744.318 704.675 744.208 704.581L743.031 703.58C741.892 702.779 743.372 703.184 741.533 702.878C741.503 705.771 743.345 704.942 743.661 708.307L740.631 709.119C740.469 698.403 740.163 703.781 743.324 699.571L744.545 697.713C745.45 696.48 744.445 698.639 745.652 696.29C744.273 693.005 745.341 698.252 744.409 694.474C745.438 693.312 746.125 693.423 746.68 692.157C743.884 691.038 744.637 692.372 743.044 693.89C741.656 695.211 741.753 693.218 741.799 695.52L742.382 697.037C742.413 696.943 742.558 697.313 742.6 697.469C739.567 698.86 742.934 697.983 740.171 699.266C739.064 696.8 739.599 695.049 741.091 693.665C744.903 690.126 742.22 691.44 744.322 689.075C746.719 689.615 746.169 691.458 748.173 689.964C748.309 687.589 748.392 689.836 747.592 688.303C744.978 683.303 747.994 690.847 746.725 686.796C747.758 686.227 748.012 687.221 749.372 686.486L751.198 685.638L749.666 682.282C747.525 682.889 748.76 683.274 748.641 683.438L746.003 685.442C745.143 685.846 745.502 685.88 744.738 685.811C744.202 683.125 747.132 681.838 748.699 679.008L748.702 679.006Z" fill="#1E4CA1"/>
<path fill-rule="evenodd" clip-rule="evenodd" d="M866.766 627.808C864.745 626.87 866.561 627.929 865.299 626.322C864.118 624.817 865.655 625.959 863.851 624.575C862.827 625.278 863.186 624.862 862.385 625.674C862.599 629.651 869.717 628.28 867.309 642.427C863.168 641.227 866.894 638.17 865.598 635.149L863.571 634.918C863.492 637.729 864.753 636.925 863.199 639.226C859.22 637.749 862.284 635.287 859.435 632.173C858.734 631.403 859.224 631.936 858.62 631.244L855.245 630.756C856.313 633.234 858.073 632.171 858.848 637.247C855.678 636.121 855.398 634.019 854.47 638.392L860.738 640.014C858.401 641.147 858.765 639.23 856.405 641.013C857.365 643.233 856.135 642.186 859.19 641.608L859.483 643.707C861.027 643.02 860.324 643.348 860.875 642.884C860.988 642.785 861.405 642.409 861.515 642.31C861.593 642.239 861.752 642.077 861.812 642.017C861.877 641.96 862 641.813 862.104 641.725C865.668 644.238 866.005 644.073 866.96 649.901L866.238 650.003C866.111 650.041 865.02 650 864.438 651.066C865.984 654.461 866.474 649.969 866.933 654.49C865.581 653.891 863.369 653.021 862.324 652.157C861.978 647.106 862.154 649.123 863.379 645.72C861.535 645.168 859.535 645.52 857.907 646.169C858.822 650.889 860.266 645.177 860.626 651.212C852.733 647.46 858.507 645.56 854.528 642.306C852.952 645.089 855.087 643.862 853.945 646.193C852.492 644.726 853.275 644.315 851.354 643.811C849.726 645.977 853.43 647.813 854.331 649.713C852.059 649.187 852.908 648.184 851.017 648.735C851.554 651.007 851.7 650.911 855.162 651.458C858.988 652.061 858.076 652.137 860.393 653.938C864.132 656.847 867.065 655.769 868.199 661.836C862.46 660.22 866.933 657.751 863.269 656.9C862.219 659.173 863.606 657.693 863.221 660.789C862 660.566 860.901 660.425 860.121 661.555C861.615 662.55 864.175 662.416 865.755 663.185C868.596 664.567 866.238 665.838 867.157 668.245C869.157 668.749 871.928 668.837 873.945 668.235C874.002 668.088 874.051 667.692 874.054 667.773L874.12 665.916C873.968 664.126 873.639 665.046 873.814 662.572C881.697 656.13 884.377 664.296 885.991 665.371C886.088 665.216 886.167 664.772 886.202 664.864L887.156 662.27C888.33 663.097 888.662 663.663 889.726 663.408C890.177 660.523 889.436 662.521 887.738 659.848C884.875 660.34 885.55 661.006 882.472 659.85C882.196 653.555 887.952 657.902 890.072 658.029C892.466 654.12 887.516 657.724 890.172 655.142C891.188 654.155 893.439 655.124 894.989 655.413C894.935 653.007 894.45 654.704 895.509 652.815C894.441 652.23 893.473 652.67 892.484 651.648L894.481 649.35L892.366 648.192C890.119 650.847 890.974 652.509 886.767 653.763C886.518 650.237 887.817 652.771 888.242 649.376C884.652 649.363 886.338 648.374 884.749 651.559C883.812 653.435 883.912 653.59 881.913 654.597C880.779 652.575 881.549 653.091 882.397 650.933L879.623 651.181L879.251 656.837C876.362 656.249 878.073 654.159 876.231 652.458C875.032 654.136 875.561 653.3 876.029 655.726C873.884 656.669 875.08 654.565 874.391 656.751C874.147 657.536 876.104 657.868 872.821 657.833C871.345 653.357 877.392 649.01 880.166 647.432C883.164 646.837 882.469 650.105 891.783 645.24C890.589 642.774 889.717 643.888 888.042 644.928C887.108 644.536 887.638 643.833 885.992 643.532C885.558 644.63 886.377 647.511 883.352 645.24C886.455 641.505 885.996 641.815 892.4 641.97C892.777 640.999 893.21 639.577 893.442 638.392C888.828 638.122 894.089 639.409 889.635 639.335C889.385 637.136 890.107 637.309 891.166 635.767L888.855 634.444C888.408 636.176 888.159 641.333 885.746 640.141C883.633 639.097 887.275 635.378 888.147 634.578C887.283 632.24 888.36 635.297 887.183 633.272C887.148 633.213 887.06 633.062 887.03 633.001L884.18 632.432C885.043 635.784 886.667 633.315 884.74 637.02C883.463 636.761 884.264 636.77 883.296 636.292C881.824 635.569 883.966 635.799 881.522 635.621C881.426 637.669 882.568 638.678 882.485 640.648C882.342 644.051 881.395 642.607 879.347 642.669C879.176 643.779 880.297 645.62 875.608 647.421C875.876 645.259 876.418 644.37 877.57 642.645C878.602 641.094 879.955 639.177 879.001 637.461C875.596 637.895 877.338 637.443 876.296 640.654L875.07 640.593C874.226 640.582 875.692 639.947 873.358 640.8C873.831 642.936 874.61 642.825 873.565 645.581C872.342 648.804 873.17 648.995 870.841 650.59C870.281 649.476 869.706 646.097 869.795 644.63C870.053 640.251 876.409 635.418 880.746 634.615L881.658 632.716C883.246 631.309 883.063 633.357 883.377 630.896C881.658 629.51 882.568 630.348 880.06 631.239C880.493 626.853 882.2 629.262 883.487 626L881.32 625.075C877.39 628.344 879.043 631.325 876.667 633.02C875.012 630.685 877.909 627.451 876.667 624.901L874.929 624.676C874.153 626.645 875.559 626.263 874.259 627.628C874.005 627.891 873.821 627.412 873.37 628.343C874.978 632.218 874.167 635.732 870.297 638.626C870.276 630.965 875.37 625.402 870.639 624.132C869.816 627.65 871.339 629.09 868.725 629.379C868.915 626.83 869.133 625.317 868.468 622.726C867.912 620.547 869.501 621.148 867.347 620.061C866.004 620.945 866.822 619.501 866.367 621.451C865.797 623.891 867.561 625.249 866.764 627.808H866.766Z" fill="#1E4CA1"/>
<path fill-rule="evenodd" clip-rule="evenodd" d="M1110.95 543.387C1105.48 544.431 1110.21 545.373 1105.88 545.389L1106.43 539.639C1102.66 540.639 1103.48 540.856 1104.12 544.335C1100.58 542.701 1101.28 541.053 1100.44 546.533C1103.73 548.292 1099.64 545.027 1103.19 546.734C1103.75 549.657 1104.5 549.784 1102.1 551.933C1099.5 554.24 1099.93 551.13 1098.67 554.811C1103.68 558.344 1098 552.806 1102.34 555.661C1102 558.7 1101.47 558.725 1099.64 560.027C1099.36 554.877 1098.47 557.586 1097.04 554.039C1099.22 550.988 1097.34 551.963 1100.72 549.981C1099.15 547.009 1099.38 549.235 1098.59 548.433C1097.5 547.31 1098.9 549.816 1098.16 547.569C1098.13 547.495 1098.13 547.244 1098.12 547.164C1097.43 544.89 1099.52 546.62 1096.61 544.834C1094.68 543.649 1096.59 543.673 1094.42 544.424C1092.98 547.548 1094.38 543.625 1095.46 548.217C1096.22 551.461 1095.3 551.029 1093.61 551.384C1090.37 542.797 1091.33 545.201 1090.17 545.647L1088.44 546.071C1088.3 546.075 1087.96 546.024 1087.83 546.022C1087.7 546.018 1087.27 546.166 1087.16 545.935C1087.06 545.693 1086.7 545.821 1086.46 545.832C1087.77 549.334 1086.85 548.832 1087.71 551.742L1090.41 551.235C1090.47 551.026 1090.72 551.031 1090.9 550.983C1092.39 555.039 1093.19 553.292 1095.9 555.617C1097.18 562.174 1095.49 565.193 1095.85 570.926C1093.07 569.047 1089.43 566.08 1087.91 562.967C1089.06 562.228 1090.13 562.738 1091.88 563.056C1091.41 558.676 1091.14 561.115 1092.47 557.478C1091.77 557.086 1091.82 557.135 1091.06 556.492L1090.24 555.735C1086.27 551.888 1091.95 556.242 1088.94 554.319C1087.02 558.093 1090.11 557.177 1087.12 560.061C1083.67 557.473 1085.87 558.553 1085.56 555.296L1085.28 551.729C1084.02 552.011 1084.52 551.998 1083.83 552.305C1079.26 554.352 1086.49 551.637 1082.56 552.946C1082.64 549.333 1084.72 549.845 1081.44 548.432L1080.53 552.971C1078.92 551.919 1079.42 551.808 1077.35 552.102C1077.65 556.281 1076.52 553.502 1079.17 555.606C1081.93 557.79 1083.98 558.261 1084.16 562.113L1083.91 563.177C1080.6 563.59 1081.28 558.27 1076.53 557.958C1077.74 561.617 1077.49 557.905 1078.59 562.155C1075.21 563.955 1076.72 559.851 1075.9 565.401L1077.41 565.456C1077.43 565.454 1078.63 564.952 1078.75 564.91C1078.85 565.43 1079.17 567.451 1079.25 567.682C1080.13 570.09 1078.94 568.432 1080.87 569.676L1081.48 565.552C1088.42 565.152 1087.29 566.631 1090.41 570.221C1093.28 573.52 1095.57 572.715 1093.62 579.275C1091.25 579.318 1085.54 576.734 1085.59 573.411C1085.62 571.185 1085.42 572.179 1087.23 571.082C1087.1 570.947 1086.86 570.794 1086.78 570.722L1086.01 570.027C1084.5 568.462 1086.96 568.429 1083.4 567.309C1082.49 571.458 1083.64 571.641 1082.72 574.771C1079.95 573.521 1079.03 570.59 1076.95 568.845L1075.16 571.545C1073.47 568.139 1076.97 569.689 1072.83 568.019L1073.76 572.705C1070.79 574.391 1072.08 569.4 1070.03 574.328C1076.01 576.432 1075.92 573.756 1078.34 574.073C1078.41 574.228 1078.42 574.485 1078.41 574.566C1078.19 576.765 1076.42 577.818 1074.95 579.305C1072.37 578.347 1073.6 578.028 1071.15 577.757C1070.66 581.864 1070.75 579.364 1073.87 581.64C1071.36 584.199 1069.91 582.365 1071.9 586.385C1073.64 585.525 1075.2 584.058 1076.1 582.938C1076.79 588.624 1072.78 583.807 1075.69 589.113C1078.17 586.066 1077.66 581.244 1079.41 579.538C1082.73 576.282 1085.82 579.157 1087.35 581.632C1084.87 586.735 1084.78 586.52 1080.66 585.45C1081.47 588.375 1081.26 589.937 1084.7 588.837C1083.74 591.182 1083.09 590.476 1084.69 592.896C1084.83 592.79 1085 592.592 1085.07 592.514L1086.16 591.242C1087.1 590.054 1085.6 591.526 1087.2 589.769C1087.04 595.314 1085.49 593.828 1089.55 593.774C1090.9 591.902 1090.04 594.723 1089.9 592.366C1089.78 590.303 1088.9 590.965 1088.59 588.056C1088.22 584.659 1089.02 584.259 1091.18 582.885C1100.36 586.536 1090.15 598.658 1091.68 603.079C1094.71 604.087 1102.38 604.096 1105.29 603.037C1106.09 599.669 1103.67 599.567 1103.08 596.757C1102.88 595.791 1103.16 594.212 1103.53 593.269C1107.01 584.554 1113.43 594.658 1116.16 597.603C1118.07 594.096 1116.2 592.602 1115.91 590.961C1118.54 591.345 1119.95 594.18 1119.99 594.083C1120.04 593.953 1120.24 594.374 1120.37 594.456L1121.93 592.994L1117.53 588.362C1119.14 586.722 1121.41 585.877 1123.55 588.189C1125.83 590.652 1123.79 593.027 1128.3 592.615L1126.9 588.32C1130.32 589.49 1128.54 590.632 1131.08 589.748C1132.64 586.378 1131.19 587.479 1127.29 586.221C1130.52 584.088 1129.72 586.751 1129.86 583.472C1124.8 580.91 1127.99 589.541 1121.11 584.067C1121.8 581.897 1122.4 582.742 1124.3 581.394C1126.46 579.853 1125.33 581.273 1126.36 578.654C1129.72 580.887 1123.96 581.415 1129.77 580.459C1129.31 578.395 1128.47 578.758 1129.32 577.176L1131.16 578.115C1133.36 578.915 1130.77 579.271 1132.76 578.309C1133.7 575.507 1132.82 576.622 1131.06 575.057L1127.69 571.574L1126.85 573.482C1125.52 576.25 1123.95 578.653 1120.74 578.134C1122.18 571.173 1124.37 571.865 1126.52 569.97L1125.49 568.44C1124.83 567.055 1125.28 566.448 1127.69 565.186C1130.53 566.612 1128.96 566.066 1131 568.347L1133.3 566.859L1131.02 563.779C1134.62 561.023 1133.43 564.337 1134.65 561.519C1132.86 557.764 1132.75 561.362 1129.61 558.649C1128.04 557.295 1129.51 557.857 1127.3 556.807C1125.1 562 1126.04 557.436 1128.68 561.344L1123.37 564.864L1122.83 559.57C1119.01 563.68 1123.73 565.525 1120.33 571.848C1116.56 578.858 1117.29 577.153 1117.15 583.25C1115.43 583.825 1114.33 584.713 1113.18 585.115C1111.89 585.565 1112.93 585.465 1111.39 585.465C1109.35 585.467 1110.88 585.764 1109.51 584.879C1112.18 581.085 1110.72 585.287 1112.94 582.299C1114.71 579.933 1113.02 581.038 1112.98 579.744C1112.9 577.056 1114.8 576.643 1113.13 573.758C1111.77 576.616 1112.98 576.351 1110.32 575.632C1110.08 576.783 1110.17 577.83 1110.16 577.917C1109.97 579.419 1110.46 578.114 1109.84 579.358C1106.97 577.841 1107.84 577.34 1109.09 574.514C1112.76 566.209 1114.37 573.661 1116.68 574.632C1117.99 569.005 1119.36 571.923 1120.2 567.018C1117.58 567.319 1118.29 567.643 1118 567.703C1112.94 568.726 1113.81 570.134 1113.51 567.827C1113.1 564.865 1114.43 567.637 1114.56 562.216L1115.35 563.162C1116.52 564.232 1115.45 564.078 1117.05 564.186C1120.46 564.417 1119.19 563.201 1119.42 562.968C1117.35 558.949 1118.38 563.894 1116.48 559.72C1116.52 559.699 1117.59 558.991 1117.81 558.804C1123.71 553.939 1119.67 556.513 1124.15 556.928L1124.24 553.839C1124.63 551.789 1125.81 555.528 1124.61 551.661L1120.76 551.928C1120.67 552.072 1120.52 552.311 1120.43 552.462L1119.01 554.592L1118.24 549.307C1120.23 548.144 1120.58 548.914 1122.43 547.548C1120.09 543.07 1122.26 547.126 1118.73 545.113C1120 541.996 1120.56 543.679 1119.11 540.664C1114.62 542.829 1118.81 543.068 1115.12 544.729L1113.64 545.112C1114.99 548.144 1120.17 554.298 1112.4 555.533C1113.6 559.581 1114.96 556.759 1112.64 561.599C1109.75 567.625 1105.24 571.829 1105.38 578.894C1105.18 578.739 1104.97 578.495 1104.81 578.366L1103.21 576.997C1101.65 575.9 1103.67 576.455 1101.16 576.036C1101.12 579.994 1103.64 578.859 1104.07 583.462L1099.93 584.573C1099.7 569.917 1099.28 577.27 1103.61 571.513L1105.28 568.972C1106.52 567.286 1105.14 570.238 1106.79 567.025C1104.91 562.534 1106.36 569.708 1105.1 564.543C1106.5 562.954 1107.43 563.105 1108.2 561.373C1104.37 559.843 1105.41 561.668 1103.23 563.743C1101.33 565.55 1101.46 562.824 1101.53 565.972L1102.33 568.049C1102.36 567.919 1102.56 568.426 1102.62 568.638C1098.47 570.54 1103.07 569.342 1099.29 571.095C1097.78 567.725 1098.52 565.329 1100.56 563.435C1105.77 558.595 1102.11 560.391 1104.98 557.156C1108.25 557.897 1107.5 560.417 1110.25 558.373C1110.43 555.127 1110.54 558.198 1109.44 556.102C1105.88 549.265 1110 559.583 1108.26 554.041C1109.67 553.262 1110.02 554.622 1111.88 553.616L1114.38 552.457L1112.28 547.867C1109.36 548.698 1111.04 549.223 1110.89 549.446L1107.27 552.189C1106.1 552.742 1106.59 552.786 1105.54 552.69C1104.81 549.021 1108.82 547.258 1110.96 543.389L1110.95 543.387Z" fill="#1E4CA1"/>
<path fill-rule="evenodd" clip-rule="evenodd" d="M800.44 643.747C798.942 640.14 790.818 640.401 788.271 637.225C785.574 633.867 787.457 633.77 787.522 633.682C788.441 635.059 788.135 635.366 789.698 636.989C790.012 636.344 789.938 636.576 789.265 634.184C792.364 635.429 790.031 638.427 797.73 640.263C796.256 637.798 792.623 637.845 791.572 634.831C793.711 635.048 793.454 635.672 795.192 636.918C791.519 631.185 787.198 629.735 786.358 625.997C788.095 626.856 786.665 626.122 788.092 627.296C788.692 627.792 788.796 627.962 789.492 628.423C789.453 628.317 788.771 626.608 788.771 626.607C788.713 624.644 788.017 626.382 789.191 625.08L792.873 632.687C793.471 631.821 793.165 632.675 793.441 631.257C794.679 624.832 786.762 622.995 786.447 619.085C788.232 619.974 787.825 620.983 790.04 622.16C789.72 621.266 789.405 620.303 789.246 619.273C789.007 617.668 789.164 616.855 789.857 616.159L792.005 622.138C792.093 622.134 791.987 621.869 792.763 622.208C798.007 624.494 795.069 636.771 799.153 638.634C798.638 636.322 797.731 635.348 798.129 632.529C798.873 633.36 798.217 632.39 798.772 633.626C799.884 636.105 799.884 639.234 801.543 641.276C803.733 637.151 797.043 628.804 795.791 624.076C793.901 616.955 794.364 618.875 795.62 617.614C797.297 627.693 798.978 626.55 800.638 631.647C800.261 629.956 799.596 628.38 798.917 626.608C798.563 625.684 798.049 624.431 797.907 623.632L798.16 621.1C801.075 625.38 801.5 633.07 803.168 637.465C803.234 634.962 802.463 633.191 802.135 630.578C801.934 628.972 801.255 625.404 802.108 623.806C803.107 625.243 803.063 627.47 803.225 629.182C803.439 631.44 803.461 631.939 804.174 633.786C803.863 631.555 803.536 628.417 803.168 626.128L802.384 619.912C802.388 619.782 802.437 619.567 802.45 619.462L802.672 618.571C802.769 618.72 802.862 618.92 802.919 619.049L804.333 625.821C804.749 628.132 804.915 631.078 805.606 632.868C806.595 629.01 804.389 624.88 803.794 620.942L803.938 618.098C803.969 618 804.131 617.926 804.158 617.71C804.183 617.493 804.303 617.444 804.407 617.338C805.138 619.374 805.707 624.7 806.408 627.633C807.314 631.432 807.35 634.443 805.536 637.574C801.311 644.862 806.018 644.435 810.764 647.491C812.138 648.376 812.957 649.125 814.387 650.014C813.267 645.354 807.691 645.48 806.4 638.311C808.434 639.184 807.192 638.17 808.815 640.172L808.079 633.505C809.38 634.51 808.092 633.129 809.012 634.547L810.042 637.106C809.892 634.575 808.075 626.543 808.307 625.847C811.034 627.895 810.181 633.677 811.686 636.67L811.77 630.352C813.844 633.466 811.318 639.994 813.389 643.931C815.048 640.113 811.529 627.638 813.389 625.364C814.436 626.834 815.311 644.685 815.489 644.057C815.513 643.982 815.583 644.369 815.661 644.512C815.881 640.412 814.098 636.853 815.832 635.334C818.186 642.077 814.828 648.403 817.337 652.676C820.808 646.861 815.214 632.074 817.337 627.236L817.797 628.109C819.145 631.566 817.227 625.533 818.116 629.02L818.725 634.624C819.224 633.023 819.101 630.813 820.155 629.59C821.225 632.05 819.25 637.041 819.461 642.787L820.857 638.909C821.102 636.932 820.866 636.278 821.588 634.442C822.16 634.837 822.253 636.486 822.984 637.006L823.939 632.259C825.677 634.427 823.917 636.636 822.703 638.364C820.174 641.965 819.866 650.587 819.6 652.106C818.597 657.787 817.95 656.095 820.992 658.576L821.849 654.146C824.288 656.966 820.8 659.663 821.023 661.967C822.424 660.781 822.502 660.502 822.975 658.394C823.803 654.723 822.175 647.891 822.979 646.16C824 647.114 825.085 655.323 825.124 655.19C825.142 655.115 825.22 655.469 825.304 655.589C827.493 652.547 825.348 652.345 825.414 649.054C826.447 649.832 826.634 650.179 827.169 651.435C827.439 644.784 826.166 643.963 825.344 638.737C827.278 639.34 826.657 639.729 827.852 641.925C829.061 638.228 829.187 638.25 828.881 634.147C830.929 632.922 828.811 633.407 830.846 634.787L831.442 630.256C832.659 631.428 832.396 633.797 831.595 635.38C829.314 639.874 828.447 645.393 828.995 650.724C833.083 649.253 831.63 642.039 833.136 638.978C834.681 641.501 833.543 639.261 833.775 640.923C834.334 644.916 832.094 648.2 830.535 651.527C836.935 647.678 833.241 643.101 836.134 640.06C838.449 650.33 830.54 651.603 827.655 656.298C826.679 657.889 826.206 659.329 825.304 660.731C821.164 667.191 819.04 666.816 819.614 673.051L815.083 673.081L813.839 670.858C809.702 662.245 803.058 668.454 797.876 665.843C796.484 665.142 797.421 665.672 796.51 664.861L801.641 665.221C799.071 663.82 794.383 665.141 791.608 662.915C793.077 661.833 803.536 664.488 806.766 664.572C803.374 662.7 798.922 662.888 794.86 661.736C791.866 660.886 791.612 659.448 790.404 658.879C785.34 656.499 785.869 661.441 780.094 651.081C778.763 648.692 776.785 647.922 775.284 645.164C772.286 639.652 774.329 640.512 774.465 640.342C778.218 646.846 775.363 643.25 777.407 643.64C778.606 643.868 777.27 642.265 778.843 645.503L780.296 647.708C780.248 644.671 779.185 642.665 778.116 640.916C780.449 638.827 778.38 641.627 780.073 640.916C778.121 638.072 776.352 639.203 775.424 635.04L780.477 639.153C780.551 639.032 780.765 639.337 780.913 639.417C780.647 637.313 780.112 637.167 779.294 636.065C778.861 635.48 778.847 635.351 778.396 634.722C777.229 633.097 776.349 633.077 774.957 631.346C773.712 629.795 774.317 630.95 773.612 629.276C775.648 629.28 774.808 630.738 777.083 631.831C775.898 629.396 774.268 628.431 773.582 625.982C777.534 627.667 777.976 632.471 780.471 635.566C781.344 631.486 779.946 631.929 779.049 628.947C783.08 630.748 781.049 634.736 782.363 637.769C785.347 634.162 781.457 628.245 780.415 625.506C783.15 626.781 783.873 629.284 784.293 632.786C785.152 639.938 782.923 637.311 782.249 640.918C781.385 645.55 781.369 654.235 786.954 656.056C785.636 653.388 785.098 652.533 784.997 648.81C784.905 645.404 783.785 643.643 783.452 641.581C788.888 643.042 783.413 651.327 789.155 656.144C787.956 652.649 786.936 648.842 786.679 644.839C786.656 644.492 786.626 642.93 786.679 642.643L789.305 653.389C789.79 651.481 788.928 649.776 789.221 647.758C789.387 646.605 789.393 646.853 789.699 646.337L791.315 642.006C792.347 642.929 792.347 643.742 792.325 645.389C792.282 648.32 791.838 651.728 792.807 654.346C793.038 651.987 792.811 648.311 794.26 646.658C795.45 649.242 793.471 651.464 794.574 653.715C795.818 651.515 794.978 648.915 794.991 646.32C794.999 644.919 794.956 645.453 795.337 644.825C797.622 648.462 795.958 650.587 796.505 654.205C796.518 654.285 796.588 654.439 796.601 654.516C796.802 655.713 797.337 655.243 796.312 656.459C795.13 657.865 794.101 657.355 793.516 658.967C796.308 661.389 802.274 661.013 806.39 662.033C810.005 662.928 814.571 666.03 815.28 668.173C814.969 666.467 813.477 664.86 812.338 663.954C811.252 663.093 809.238 661.048 808.398 660.599C804.865 658.714 802.012 659.606 798.676 659.324C795.945 659.093 797.153 659.134 796.456 658.092L800.834 657.278C799.187 650.111 799.77 653.398 796.81 648.813C797.537 647.48 797.494 649.468 797.954 647.404C798.124 646.623 797.906 645.559 797.831 644.696L799.2 646.736C799.302 646.962 799.485 647.824 799.572 648.085C799.642 646.032 798.631 644.212 800.439 643.749L800.44 643.747ZM800.44 643.747C800.843 646.513 800.641 648.895 800.982 651.619C801.241 653.727 802.659 656.062 802.707 656.862L802.671 647.33C806.008 650.627 801.092 656.759 806.909 658.181C806.288 656.96 805.92 655.913 805.622 654.35C804.54 648.663 806.003 649.555 806.283 649.257C806.905 653.658 805.938 654.801 808.874 657.771L809.037 655.347C809.024 653.215 808.371 654.458 809.439 652.997C810.534 654.43 810.551 657.461 811.054 659.008C811.623 657.97 811.448 656.657 811.4 655.76C811.282 653.728 810.678 654.388 811.965 652.939L813.996 656.644C814.032 656.644 814.246 656.763 814.276 656.671C814.303 656.575 814.473 656.668 814.613 656.73L812.848 661.403C814.543 662.927 815.598 663.733 817.245 665.772C816.837 662.062 815.616 661.544 814.696 659.078C815.541 659.133 815.887 658.297 817.423 661.789C817.892 662.845 818.484 664.48 818.759 665.496C818.71 662.793 817.17 661.029 816.461 658.147C815.462 654.113 815.217 654 812.442 652.004C810.512 650.616 809.151 649.211 806.514 647.793C802.129 645.436 802.264 644.679 800.439 643.747L800.44 643.747Z" fill="#1E4CA1"/>
<path fill-rule="evenodd" clip-rule="evenodd" d="M579.715 630.399C578.034 629.618 579.544 630.499 578.494 629.163C577.513 627.912 578.787 628.86 577.291 627.71C576.441 628.294 576.738 627.95 576.072 628.625C576.249 631.93 582.171 630.791 580.166 642.554C576.725 641.556 579.821 639.014 578.743 636.502L577.057 636.31C576.992 638.647 578.042 637.977 576.747 639.892C573.438 638.664 575.99 636.617 573.621 634.026C573.034 633.386 573.441 633.829 572.943 633.254L570.137 632.847C571.021 634.909 572.483 634.024 573.13 638.245C570.496 637.309 570.264 635.562 569.488 639.196L574.702 640.547C572.759 641.488 573.061 639.893 571.099 641.376C571.896 643.221 570.876 642.352 573.415 641.871L573.66 643.616C574.943 643.045 574.357 643.319 574.816 642.933C574.913 642.851 575.254 642.536 575.346 642.455C575.411 642.395 575.543 642.26 575.596 642.212C575.648 642.164 575.749 642.041 575.836 641.968C578.799 644.058 579.084 643.921 579.876 648.767L579.277 648.853C579.168 648.883 578.261 648.848 577.775 649.735C579.066 652.558 579.469 648.823 579.849 652.582C578.729 652.084 576.891 651.361 576.02 650.642C575.731 646.444 575.876 648.12 576.895 645.291C575.368 644.832 573.703 645.125 572.347 645.663C573.108 649.588 574.308 644.839 574.61 649.857C568.044 646.738 572.846 645.157 569.541 642.452C568.228 644.766 570.005 643.746 569.055 645.685C567.842 644.464 568.495 644.123 566.901 643.705C565.545 645.505 568.626 647.033 569.375 648.612C567.484 648.175 568.188 647.339 566.617 647.799C567.067 649.688 567.186 649.608 570.067 650.062C573.249 650.565 572.487 650.626 574.413 652.125C577.521 654.544 579.963 653.647 580.904 658.692C576.132 657.348 579.849 655.296 576.807 654.586C575.932 656.477 577.087 655.247 576.767 657.822C575.748 657.637 574.837 657.519 574.19 658.456C575.428 659.286 577.561 659.174 578.874 659.813C581.237 660.963 579.276 662.019 580.038 664.021C581.701 664.44 584.004 664.512 585.68 664.013C585.729 663.889 585.767 663.56 585.776 663.627L585.83 662.083C585.698 660.595 585.426 661.36 585.576 659.303C592.128 653.947 594.357 660.737 595.7 661.631C595.779 661.502 595.845 661.133 595.876 661.21L596.668 659.051C597.643 659.741 597.919 660.21 598.804 659.999C599.179 657.601 598.562 659.262 597.154 657.039C594.772 657.449 595.332 658.003 592.772 657.04C592.543 651.807 597.333 655.422 599.088 655.527C601.084 652.276 596.965 655.273 599.176 653.127C600.02 652.307 601.89 653.111 603.177 653.352C603.132 651.351 602.73 652.763 603.61 651.191C602.721 650.705 601.921 651.07 601.097 650.221L602.757 648.311L600.996 647.348C599.131 649.556 599.841 650.938 596.343 651.981C596.137 649.048 597.215 651.155 597.568 648.334C594.584 648.322 595.985 647.499 594.662 650.148C593.887 651.707 593.97 651.838 592.307 652.674C591.362 650.993 592.005 651.421 592.71 649.627L590.403 649.835L590.093 654.535C587.693 654.045 589.112 652.309 587.584 650.894C586.581 652.289 587.024 651.595 587.418 653.612C585.632 654.397 586.626 652.647 586.057 654.465C585.851 655.116 587.479 655.393 584.747 655.363C583.517 651.644 588.547 648.028 590.854 646.716C593.346 646.221 592.767 648.938 600.515 644.892C599.518 642.842 598.795 643.769 597.402 644.635C596.628 644.308 597.07 643.723 595.7 643.474C595.336 644.386 596.02 646.781 593.507 644.892C596.085 641.786 595.7 642.045 601.028 642.174C601.338 641.368 601.702 640.183 601.893 639.198C598.06 638.974 602.433 640.044 598.725 639.984C598.519 638.155 599.118 638.298 599.999 637.016L598.077 635.917C597.71 637.358 597.499 641.644 595.494 640.655C593.738 639.786 596.768 636.693 597.49 636.027C596.772 634.084 597.67 636.626 596.688 634.943C596.658 634.893 596.589 634.767 596.562 634.716L594.19 634.244C594.908 637.03 596.26 634.978 594.658 638.058C593.595 637.844 594.26 637.85 593.454 637.454C592.234 636.852 594.015 637.042 591.984 636.897C591.905 638.598 592.854 639.438 592.785 641.073C592.663 643.905 591.878 642.704 590.172 642.755C590.031 643.678 590.964 645.208 587.063 646.707C587.287 644.908 587.737 644.171 588.696 642.736C589.554 641.445 590.68 639.851 589.887 638.424C587.055 638.787 588.504 638.41 587.637 641.081L586.616 641.028C585.912 641.018 587.134 640.492 585.193 641.201C585.588 642.976 586.235 642.885 585.369 645.176C584.353 647.856 585.037 648.014 583.102 649.34C582.634 648.414 582.161 645.605 582.231 644.384C582.445 640.743 587.729 636.723 591.34 636.058L592.097 634.479C593.415 633.309 593.267 635.012 593.524 632.966C592.094 631.812 592.85 632.51 590.767 633.249C591.127 629.604 592.548 631.607 593.616 628.894L591.813 628.126C588.547 630.844 589.926 633.323 587.946 634.732C586.574 632.79 588.982 630.101 587.946 627.98L586.498 627.794C585.855 629.431 587.024 629.113 585.943 630.248C585.737 630.467 585.584 630.068 585.203 630.843C586.542 634.065 585.869 636.986 582.651 639.394C582.629 633.022 586.866 628.398 582.935 627.341C582.252 630.265 583.517 631.464 581.346 631.704C581.5 629.584 581.683 628.326 581.132 626.173C580.667 624.361 581.985 624.863 580.195 623.956C579.078 624.694 579.761 623.491 579.385 625.114C578.912 627.142 580.373 628.271 579.713 630.399L579.715 630.399Z" fill="#1E4CA1"/>
<path fill-rule="evenodd" clip-rule="evenodd" d="M993.793 608.551C995.066 608.763 996.415 609.29 997.104 609.388C998.835 609.633 998.471 609.139 1000.51 609.211C1000.78 609.585 1001.22 608.739 1000.83 610.556C1000.81 610.689 1000.5 611.304 1000.41 611.454L1002.58 610.78C1003.44 611.335 1002.8 610.607 1003.15 611.934C1006.8 609.443 1011.01 610.631 1014.42 611.922C1014.02 609.01 1014.29 611.349 1012.52 609.21C1014.75 609.274 1019.7 611.89 1020.85 611.218C1019.87 610.467 1018.3 609.784 1017.32 609.176L1021.78 607.097L1020.12 606.543C1019.76 606.446 1019.03 606.357 1018.63 606.252C1019.28 606.113 1020.99 605.816 1021.59 605.63C1023.1 605.169 1021.79 605.705 1022.84 605.125C1024.02 604.47 1023.08 605.154 1023.97 604.18L1017.91 604.992C1020.12 603.207 1023.08 602.53 1025.53 600.301C1024 599.793 1024.42 601.343 1023.58 599.694C1022.27 597.108 1024.69 600.233 1023.65 597.816L1019.64 599.898C1020.48 597.934 1020.37 597.171 1021.72 595.371C1022.82 593.892 1024.19 592.609 1024.02 590.809C1022.13 591.548 1020.85 594.652 1019.5 595.667L1018.09 596.139C1016.22 596.845 1017.22 597.42 1014.81 599.455C1015.4 597.414 1016.12 595.738 1017.23 593.948C1017.87 592.922 1019.37 590.764 1019.21 589.563L1018.32 589.527C1016.44 590.181 1018.08 589.487 1017.33 590.371C1015.99 591.945 1014.12 594.381 1013.32 596.39C1013.28 596.286 1013.25 596.125 1013.23 596.062C1013.22 596 1013.17 595.81 1013.16 595.734L1013.04 595.066C1012.75 592.62 1013.52 592.054 1013.83 590.454C1014.29 587.997 1013.73 588.863 1013.75 587.104C1013.76 586.159 1014.1 585.14 1014.19 584.092C1012.71 584.051 1013.28 583.323 1012.62 586.248C1012.06 588.722 1011.36 593.12 1010.37 595.127C1008.23 586.583 1010.19 593.002 1007.71 586.967C1007.17 585.622 1007.63 586.487 1007.21 585.938C1005.39 590.577 1008.08 593.919 1008.2 599.403C1007.2 597.43 1007.67 596.315 1006.33 594.087L1005.69 593.148C1005.25 592.518 1005.35 592.668 1005.06 592.304C1005.02 592.256 1004.87 592.205 1004.85 592.064C1004.81 591.923 1004.71 591.894 1004.62 591.832C1003.74 593.798 1005.31 596.495 1005.41 598.535L1003 594.841C999.438 591.642 1001.29 591.266 998.443 588.672C997.419 591.057 999.332 592.781 1000.11 595.546C998.931 594.86 999.897 595.521 999.054 594.726C998.883 594.558 998.289 593.843 998.28 593.835C996.797 592.302 998.52 592.982 996.539 592.768C997.448 595.717 998.567 596.156 999.619 598.534C999.486 598.45 999.332 598.345 999.246 598.286L998.194 597.572C996.213 596.115 993.975 592.569 991.937 592.251C992.473 593.765 994.137 595.65 994.97 597.177C997.515 601.842 996.061 598.852 998.481 601.85C995.162 600.226 992.1 597.511 990.072 596.512C990.512 598.864 991.507 599.59 993.439 600.368L990.972 601.241C992.081 601.896 993.592 602.038 994.472 602.88C995.496 603.855 994.339 604.578 996.597 604.892L990.981 604.609L991.947 605.715C992.837 606.439 994.386 606.608 995.65 606.782C997.448 607.029 999.084 606.822 1000.52 607.391C997.64 607.689 995.994 607.216 993.794 608.55L993.793 608.551Z" fill="#1E4CA1"/>
<path fill-rule="evenodd" clip-rule="evenodd" d="M1175.61 513.679C1173.45 512.675 1175.39 513.809 1174.04 512.09C1172.78 510.482 1174.43 511.703 1172.5 510.224C1171.4 510.975 1171.79 510.531 1170.93 511.398C1171.17 515.649 1178.77 514.184 1176.19 529.304C1171.77 528.022 1175.75 524.753 1174.37 521.525L1172.2 521.277C1172.12 524.281 1173.47 523.421 1171.8 525.882C1167.55 524.303 1170.83 521.671 1167.78 518.342C1167.03 517.519 1167.56 518.088 1166.91 517.35L1163.3 516.828C1164.44 519.477 1166.32 518.339 1167.16 523.766C1163.76 522.562 1163.47 520.317 1162.48 524.989L1169.17 526.725C1166.68 527.936 1167.07 525.886 1164.55 527.791C1165.57 530.163 1164.25 529.046 1167.52 528.427L1167.84 530.67C1169.48 529.936 1168.73 530.287 1169.32 529.79C1169.44 529.686 1169.89 529.283 1170.01 529.177C1170.09 529.1 1170.25 528.927 1170.32 528.865C1170.39 528.803 1170.52 528.647 1170.63 528.551C1174.44 531.238 1174.81 531.061 1175.82 537.291L1175.04 537.4C1174.91 537.44 1173.75 537.396 1173.13 538.536C1174.78 542.165 1175.31 537.363 1175.79 542.195C1174.35 541.554 1171.99 540.625 1170.87 539.702C1170.5 534.304 1170.68 536.459 1172 532.822C1170.03 532.232 1167.89 532.607 1166.14 533.301C1167.12 538.346 1168.67 532.241 1169.05 538.691C1160.62 534.684 1166.79 532.651 1162.53 529.172C1160.85 532.147 1163.13 530.835 1161.92 533.328C1160.36 531.76 1161.2 531.321 1159.15 530.782C1157.4 533.096 1161.36 535.06 1162.33 537.089C1159.89 536.529 1160.81 535.454 1158.79 536.044C1159.36 538.473 1159.51 538.37 1163.21 538.953C1167.3 539.599 1166.33 539.68 1168.81 541.605C1172.79 544.716 1175.94 543.561 1177.15 550.047C1171.01 548.319 1175.79 545.68 1171.87 544.77C1170.75 547.2 1172.24 545.618 1171.82 548.928C1170.52 548.69 1169.35 548.538 1168.52 549.745C1170.11 550.81 1172.85 550.666 1174.53 551.487C1177.57 552.966 1175.04 554.324 1176.04 556.897C1178.16 557.435 1181.14 557.528 1183.29 556.886C1183.36 556.728 1183.4 556.305 1183.41 556.392L1183.48 554.406C1183.31 552.492 1182.97 553.478 1183.16 550.834C1191.58 543.946 1194.44 552.676 1196.16 553.825C1196.27 553.659 1196.36 553.184 1196.39 553.283L1197.41 550.51C1198.66 551.394 1199.02 551.999 1200.15 551.727C1200.64 548.642 1199.85 550.779 1198.03 547.921C1194.98 548.448 1195.69 549.159 1192.4 547.923C1192.1 541.194 1198.26 545.843 1200.53 545.978C1203.09 541.799 1197.78 545.651 1200.63 542.894C1201.72 541.837 1204.12 542.873 1205.77 543.182C1205.72 540.61 1205.2 542.425 1206.33 540.404C1205.19 539.779 1204.16 540.249 1203.1 539.158L1205.24 536.702L1202.99 535.464C1200.58 538.302 1201.49 540.079 1196.99 541.418C1196.73 537.649 1198.12 540.359 1198.58 536.732C1194.73 536.715 1196.54 535.659 1194.83 539.063C1193.84 541.067 1193.94 541.234 1191.81 542.309C1190.6 540.15 1191.42 540.7 1192.32 538.394L1189.36 538.66L1188.96 544.704C1185.87 544.074 1187.7 541.843 1185.74 540.024C1184.45 541.817 1185.02 540.924 1185.52 543.517C1183.22 544.526 1184.5 542.276 1183.77 544.614C1183.5 545.451 1185.59 545.807 1182.09 545.768C1180.51 540.985 1186.97 536.338 1189.93 534.652C1193.14 534.017 1192.4 537.509 1202.36 532.309C1201.07 529.673 1200.15 530.865 1198.35 531.977C1197.36 531.558 1197.92 530.806 1196.16 530.485C1195.7 531.658 1196.58 534.736 1193.34 532.309C1196.66 528.317 1196.17 528.65 1203.01 528.816C1203.41 527.776 1203.88 526.257 1204.13 524.989C1199.2 524.701 1204.81 526.076 1200.06 525.999C1199.79 523.647 1200.56 523.832 1201.69 522.184L1199.22 520.771C1198.74 522.622 1198.47 528.134 1195.9 526.859C1193.65 525.744 1197.54 521.768 1198.46 520.915C1197.55 518.415 1198.7 521.68 1197.44 519.518C1197.4 519.456 1197.3 519.292 1197.27 519.228L1194.23 518.62C1195.14 522.202 1196.89 519.563 1194.82 523.523C1193.46 523.247 1194.32 523.256 1193.28 522.746C1191.71 521.972 1194 522.219 1191.39 522.029C1191.29 524.217 1192.5 525.296 1192.41 527.401C1192.26 531.038 1191.25 529.495 1189.06 529.562C1188.88 530.746 1190.07 532.714 1185.06 534.64C1185.35 532.327 1185.94 531.381 1187.15 529.536C1188.27 527.878 1189.72 525.829 1188.69 523.996C1185.05 524.459 1186.91 523.976 1185.81 527.408L1184.49 527.342C1183.58 527.33 1185.15 526.653 1182.65 527.563C1183.17 529.846 1183.99 529.728 1182.89 532.673C1181.57 536.118 1182.45 536.32 1179.98 538.026C1179.38 536.836 1178.76 533.225 1178.85 531.656C1179.13 526.977 1185.92 521.809 1190.55 520.953L1191.53 518.922C1193.23 517.42 1193.04 519.606 1193.37 516.978C1191.53 515.495 1192.5 516.391 1189.82 517.341C1190.29 512.655 1192.11 515.231 1193.48 511.745L1191.17 510.757C1186.97 514.25 1188.74 517.436 1186.21 519.248C1184.44 516.752 1187.52 513.295 1186.21 510.569L1184.34 510.329C1183.51 512.434 1185.02 512.023 1183.63 513.484C1183.36 513.766 1183.17 513.253 1182.68 514.248C1184.39 518.391 1183.52 522.146 1179.39 525.239C1179.37 517.052 1184.82 511.104 1179.76 509.748C1178.89 513.506 1180.5 515.047 1177.71 515.355C1177.91 512.632 1178.15 511.015 1177.44 508.245C1176.84 505.917 1178.54 506.56 1176.24 505.396C1174.8 506.343 1175.68 504.8 1175.19 506.883C1174.59 509.49 1176.47 510.943 1175.61 513.678L1175.61 513.679Z" fill="#1E4CA1"/>
<path fill-rule="evenodd" clip-rule="evenodd" d="M1204.13 469.807C1203.18 468.848 1201.93 468.779 1200.66 468.601C1197.65 468.182 1194.34 466.039 1193.45 463.832C1199.5 463.596 1199.86 468.527 1204.05 467.836C1203.69 467.082 1204.82 467.898 1203.23 467.072C1202.3 466.587 1200.25 466.301 1199.41 464.797C1200.89 464.486 1202.89 465.411 1204.48 465.006C1203.55 462.694 1198.39 466.371 1195.91 460.527C1193.79 455.492 1200.94 449.455 1199.46 438.297C1198.93 434.38 1198.03 432.463 1196.97 429.018C1195.7 424.792 1197.6 422.106 1198.71 417.759C1199.77 413.634 1199.38 410.094 1200.78 405.542C1202.15 401.161 1203.34 398.323 1203.39 393.675C1203.4 391.744 1203.29 385.205 1201.54 383.955C1200.64 386.319 1200.89 388.595 1199.55 391.664C1194.57 403.14 1197.82 403.453 1194.73 412.795C1194.7 412.866 1194.47 413.5 1194.44 413.535L1193.83 414.372C1193.7 410.968 1193.38 409.392 1193.85 405.401C1194.62 398.47 1196.86 391.718 1191.13 384.639C1190.29 383.587 1189.98 381.908 1188.57 381.481C1188.79 382.962 1189.4 383.994 1189.55 385.89L1189.88 401.234C1189.28 412.676 1187.71 408.627 1190.78 421.252C1194.82 437.912 1184.04 447.192 1189.08 457.646C1189.66 458.851 1190.72 460.585 1190.94 461.794C1188.33 460.481 1186.37 458.034 1185.18 455.592C1179.76 444.458 1184.63 446.379 1185.13 436.087C1185.9 420.589 1181.54 418.944 1179.75 409.379C1177.83 399.273 1184.38 393.244 1185.26 390.135C1181.88 389.749 1178.42 393.448 1177.13 397.544C1174.3 406.478 1175.52 413.872 1179.15 421.88C1181.22 426.485 1181.93 427.164 1182.3 432.847C1182.59 437.265 1182.86 440.975 1182.1 445.677C1181.21 451.282 1185.44 459.627 1190.75 462.666C1193.37 464.154 1193.14 466.242 1197.16 468.46C1199.76 469.89 1203.44 469.929 1203.55 469.923L1204.12 469.808L1204.13 469.807ZM1185.08 464.285C1181.46 461.794 1179.35 458.345 1175.46 455.8C1172.73 454.003 1165.03 450.217 1161.44 449.998C1161.74 451.442 1163.93 452.545 1165.35 453.648C1166.86 454.815 1168.08 455.889 1169.42 457.183C1171.86 459.532 1174.43 462.135 1177.7 464.186C1181.42 466.52 1201.44 472.267 1203.46 471.606C1202.78 470.567 1200.43 470.653 1199.27 470.36C1190.11 468.031 1188.49 466.354 1184.38 458.976C1183.22 456.886 1182.6 455.043 1181.72 452.467C1180.89 450.053 1180.25 448.071 1178.97 445.989C1177.6 443.777 1175.66 442.409 1174.73 440.436C1171.6 433.695 1171.76 422.205 1168.43 419.775C1166.64 418.465 1167.71 421.53 1167.12 426.227C1166.23 433.318 1166.19 436.726 1169.34 441.154C1171.97 444.855 1176.4 448.501 1177.64 452.34C1178.5 454.991 1179.47 456.523 1180.94 458.471C1182.34 460.332 1183.73 462.39 1185.08 464.285L1185.08 464.285ZM1204.79 463.129C1203.48 461.524 1200.9 461.472 1200.86 456.154C1200.79 449.221 1205.58 450.543 1206.68 436.759C1206.98 433 1208.86 430.852 1208.4 426.687C1207.52 418.677 1211.4 420.816 1213.51 407.218C1214.25 402.419 1212.97 392.392 1208.85 390.923C1208.65 392.083 1209.92 394.308 1209.82 399.421C1209.74 402.7 1209.19 406.065 1208.75 409.36C1208.16 413.592 1207.18 415.366 1205.33 418.809C1201.08 426.732 1204.9 427.115 1204.15 432.359C1203.88 434.152 1202.99 435.888 1203.06 437.648C1203.4 448.076 1199 446.783 1200.08 457.147C1200.27 458.871 1202.27 464.362 1204.79 463.129L1204.79 463.129ZM1196.07 463.261L1192.3 462.523C1189.31 457.144 1189.3 449.482 1191.76 443.297C1192.14 442.357 1194.06 437.904 1194.53 437.439C1196.29 441.943 1194.67 445.901 1194.2 451.017C1193.4 459.93 1196.23 461.478 1196.07 463.262L1196.07 463.261Z" fill="#1E4CA1"/>
<path fill-rule="evenodd" clip-rule="evenodd" d="M683.198 687.673C684.368 686.485 685.909 686.402 687.48 686.184C691.205 685.664 695.282 683.017 696.384 680.288C688.907 679.997 688.474 686.09 683.295 685.237C683.733 684.305 682.337 685.313 684.301 684.292C685.453 683.693 687.984 683.339 689.025 681.48C687.2 681.096 684.722 682.239 682.765 681.739C683.904 678.881 690.273 683.427 693.342 676.204C695.981 669.981 687.134 662.518 688.973 648.728C689.62 643.888 690.732 641.519 692.024 637.26C693.609 632.039 691.267 628.718 689.887 623.345C688.574 618.247 689.065 613.871 687.318 608.246C685.637 602.832 684.153 599.324 684.113 593.577C684.097 591.192 684.218 583.109 686.385 581.565C687.502 584.486 687.195 587.3 688.845 591.093C695.009 605.276 690.982 605.663 694.812 617.21C694.843 617.298 695.141 618.08 695.162 618.125L695.924 619.157C696.077 614.95 696.463 613.005 695.902 608.071C694.93 599.505 692.169 591.16 699.251 582.41C700.302 581.111 700.678 579.036 702.429 578.507C702.145 580.337 701.401 581.612 701.204 583.957L700.797 602.919C701.532 617.061 703.471 612.059 699.685 627.66C694.69 648.251 708.032 659.722 701.782 672.641C701.058 674.132 699.768 676.276 699.496 677.769C702.713 676.144 705.144 673.121 706.614 670.104C713.308 656.342 707.292 658.715 706.662 645.996C705.717 626.843 711.097 624.808 713.329 612.988C715.689 600.496 707.599 593.045 706.5 589.203C710.699 588.725 714.975 593.297 716.573 598.359C720.053 609.401 718.548 618.54 714.073 628.438C711.5 634.13 710.624 634.967 710.164 641.992C709.81 647.451 709.486 652.037 710.41 657.848C711.513 664.777 706.291 675.091 699.71 678.846C696.485 680.686 696.765 683.267 691.801 686.006C688.592 687.774 684.04 687.824 683.909 687.813L683.198 687.673V687.673ZM706.724 680.848C711.211 677.77 713.828 673.508 718.622 670.361C722 668.14 731.517 663.461 735.938 663.189C735.57 664.974 732.873 666.337 731.123 667.701C729.267 669.145 727.748 670.472 726.089 672.069C723.077 674.973 719.894 678.192 715.854 680.727C711.253 683.611 686.513 690.715 684.018 689.895C684.861 688.611 687.778 688.718 689.204 688.355C700.521 685.478 702.517 683.406 707.585 674.288C709.026 671.703 709.791 669.426 710.887 666.242C711.91 663.258 712.702 660.808 714.296 658.236C715.986 655.501 718.389 653.811 719.519 651.373C723.388 643.04 723.196 628.84 727.311 625.837C729.525 624.218 728.195 628.004 728.93 633.811C730.037 642.575 730.094 646.787 726.189 652.26C722.933 656.833 717.466 661.34 715.924 666.085C714.866 669.362 713.666 671.256 711.849 673.663C710.111 675.963 708.39 678.507 706.723 680.848L706.724 680.848ZM682.367 679.42C683.987 677.434 687.174 677.372 687.235 670.799C687.309 662.23 681.387 663.863 680.039 646.826C679.671 642.184 677.346 639.526 677.912 634.38C679.001 624.48 674.195 627.123 671.599 610.315C670.68 604.387 672.264 591.993 677.356 590.178C677.601 591.611 676.028 594.361 676.165 600.681C676.253 604.732 676.935 608.892 677.492 612.963C678.205 618.195 679.421 620.387 681.702 624.644C686.956 634.435 682.231 634.907 683.179 641.389C683.498 643.606 684.6 645.751 684.526 647.926C684.085 660.815 689.537 659.216 688.19 672.028C687.967 674.158 685.476 680.943 682.368 679.421L682.367 679.42ZM693.149 679.582L697.798 678.67C701.519 672.022 701.527 662.554 698.477 654.907C698.012 653.745 695.627 648.243 695.053 647.665C692.878 653.233 694.896 658.125 695.465 664.449C696.455 675.465 692.949 677.38 693.149 679.582Z" fill="#1E4CA1"/>
<path fill-rule="evenodd" clip-rule="evenodd" d="M970.884 643.898C970.065 643.068 968.983 643.007 967.885 642.855C965.275 642.492 962.421 640.639 961.651 638.727C966.887 638.523 967.189 642.79 970.813 642.192C970.506 641.54 971.488 642.246 970.109 641.531C969.303 641.113 967.531 640.863 966.803 639.562C968.082 639.293 969.815 640.093 971.185 639.744C970.39 637.743 965.929 640.925 963.784 635.868C961.932 631.512 968.13 626.285 966.839 616.631C966.388 613.242 965.605 611.584 964.702 608.601C963.595 604.945 965.232 602.621 966.201 598.859C967.12 595.289 966.778 592.225 967.999 588.287C969.173 584.496 970.214 582.04 970.245 578.016C970.254 576.346 970.17 570.688 968.652 569.607C967.867 571.652 968.082 573.622 966.931 576.277C962.615 586.207 965.434 586.479 962.75 594.564C962.729 594.625 962.524 595.172 962.506 595.204L961.975 595.927C961.862 592.981 961.599 591.619 961.989 588.165C962.667 582.166 964.601 576.324 959.642 570.198C958.907 569.288 958.644 567.836 957.418 567.465C957.615 568.746 958.136 569.64 958.276 571.281L958.562 584.557C958.044 594.459 956.688 590.957 959.34 601.88C962.838 616.296 953.497 624.327 957.874 633.374C958.378 634.418 959.283 635.918 959.472 636.964C957.217 635.826 955.515 633.71 954.489 631.596C949.802 621.962 954.013 623.623 954.456 614.719C955.116 601.308 951.347 599.884 949.784 591.607C948.134 582.862 953.799 577.644 954.569 574.954C951.627 574.619 948.633 577.82 947.517 581.364C945.079 589.097 946.133 595.494 949.267 602.425C951.067 606.411 951.681 606.997 951.999 611.916C952.249 615.737 952.476 618.947 951.829 623.016C951.058 627.867 954.714 635.09 959.318 637.718C961.578 639.007 961.384 640.814 964.86 642.732C967.107 643.97 970.293 644.003 970.384 643.997L970.884 643.898L970.884 643.898ZM954.411 639.119C951.272 636.964 949.438 633.981 946.08 631.777C943.713 630.221 937.05 626.945 933.955 626.756C934.213 628.006 936.1 628.96 937.33 629.915C938.625 630.924 939.691 631.853 940.854 632.974C942.96 635.007 945.188 637.259 948.016 639.034C951.237 641.054 968.563 646.028 970.309 645.453C969.715 644.556 967.675 644.631 966.676 644.377C958.753 642.361 957.357 640.91 953.806 634.526C952.8 632.717 952.262 631.121 951.495 628.893C950.777 626.804 950.225 625.088 949.109 623.288C947.927 621.372 946.242 620.189 945.449 618.481C942.739 612.647 942.876 602.706 939.995 600.603C938.446 599.469 939.378 602.122 938.862 606.186C938.087 612.322 938.048 615.27 940.779 619.104C943.064 622.306 946.89 625.461 947.968 628.783C948.711 631.078 949.547 632.404 950.822 634.089C952.038 635.699 953.242 637.48 954.411 639.119ZM971.465 638.12C970.328 636.73 968.1 636.686 968.056 632.083C968.002 626.084 972.153 627.226 973.093 615.299C973.351 612.047 974.976 610.188 974.584 606.584C973.821 599.652 977.186 601.504 979.004 589.736C979.644 585.585 978.535 576.908 974.976 575.635C974.803 576.639 975.905 578.565 975.809 582.99C975.751 585.826 975.264 588.738 974.881 591.589C974.374 595.252 973.527 596.788 971.929 599.766C968.254 606.622 971.557 606.953 970.896 611.492C970.673 613.043 969.903 614.545 969.955 616.069C970.262 625.093 966.444 623.973 967.385 632.942C967.542 634.435 969.29 639.186 971.465 638.12V638.12ZM963.914 638.233L960.662 637.595C958.058 632.94 958.049 626.31 960.185 620.957C960.509 620.144 962.181 616.29 962.584 615.887C964.106 619.786 962.693 623.211 962.295 627.637C961.603 635.351 964.055 636.69 963.914 638.233H963.914Z" fill="#1E4CA1"/>
<path fill-rule="evenodd" clip-rule="evenodd" d="M113.047 563.789C114.695 564.029 115.674 565.224 116.778 566.359C119.399 569.057 123.944 570.78 126.797 570.055C122.614 563.854 117.444 567.108 115.069 562.425C116.079 562.228 114.44 561.697 116.426 562.68C117.588 563.254 119.372 565.084 121.487 564.827C120.716 563.125 118.329 561.802 117.577 559.932C120.553 559.158 120.654 566.983 128.292 565.187C134.875 563.637 135.661 552.089 147.871 545.421C152.159 543.081 154.727 542.581 158.925 541.103C164.072 539.293 165.366 535.441 168.884 531.151C172.22 527.081 176.039 524.888 179.545 520.155C182.919 515.599 184.869 512.328 189.48 508.897C191.393 507.473 197.985 502.795 200.512 503.629C198.818 506.258 196.366 507.673 194.281 511.245C186.486 524.601 183.792 521.581 176.745 531.499C176.691 531.575 176.236 532.276 176.213 532.322L175.829 533.546C179.315 531.185 181.11 530.342 184.759 526.974C191.094 521.126 196.193 513.966 207.436 514.504C209.105 514.584 211 513.66 212.462 514.759C210.819 515.614 209.351 515.768 207.342 516.995L191.807 527.875C180.837 536.831 186.017 535.437 171.196 541.606C151.636 549.752 150.271 567.292 136.156 569.888C134.526 570.189 132.033 570.411 130.668 571.077C133.882 572.711 137.758 572.886 141.059 572.285C156.117 569.55 150.644 566.1 160.531 558.073C175.421 545.985 180.242 549.125 191.096 543.936C202.565 538.455 203.794 527.524 206.244 524.37C209.111 527.472 207.951 533.622 204.811 537.902C197.962 547.239 189.702 551.426 179.074 553.67C172.962 554.96 171.767 554.747 165.831 558.532C161.219 561.472 157.328 563.921 153.188 568.102C148.251 573.087 136.846 574.975 129.93 571.889C126.537 570.376 124.62 572.125 119.474 569.739C116.152 568.199 113.422 564.555 113.353 564.445L113.047 563.789L113.047 563.789ZM132.459 578.725C137.594 580.524 142.579 580.118 147.95 582.123C151.741 583.535 161.14 588.444 163.971 591.851C162.317 592.61 159.623 591.241 157.487 590.632C155.227 589.989 153.256 589.548 150.988 589.155C146.866 588.444 142.388 587.778 137.954 586.019C132.909 584.017 112.552 568.259 111.738 565.762C113.273 565.686 114.909 568.099 116.047 569.037C125.058 576.462 127.91 576.847 138.262 575.545C141.196 575.176 143.487 574.451 146.701 573.449C149.713 572.511 152.158 571.703 155.173 571.465C158.378 571.212 161.162 572.15 163.797 571.622C172.807 569.816 184.147 561.268 188.998 562.809C191.615 563.639 187.773 564.805 183.524 568.829C177.11 574.902 173.748 577.441 167.027 577.528C161.41 577.601 154.543 575.858 149.807 577.421C146.534 578.502 144.301 578.657 141.285 578.613C138.403 578.571 135.334 578.688 132.46 578.725H132.459ZM119.212 558.239C121.772 558.372 123.706 560.904 129.043 557.067C135.997 552.062 131.18 548.248 144.123 537.091C147.652 534.049 148.419 530.602 152.905 528.016C161.533 523.042 156.56 520.73 168.581 508.698C172.82 504.453 183.752 498.404 188.227 501.437C187.217 502.485 184.069 502.841 179.052 506.687C175.836 509.153 172.885 512.162 169.93 515.016C166.132 518.685 165.082 520.964 162.999 525.319C158.206 535.341 155.034 531.815 150.365 536.406C148.767 537.977 147.686 540.132 145.887 541.359C135.232 548.623 139.745 552.076 128.617 558.564C126.766 559.642 119.822 561.644 119.211 558.239H119.212ZM125.454 567.029L128.939 570.24C136.501 569.311 144.143 563.722 148.506 556.739C149.168 555.679 152.196 550.5 152.322 549.697C146.546 551.234 143.794 555.754 139.029 559.951C130.728 567.262 127.113 565.565 125.454 567.029Z" fill="#1E4CA1"/>
<path fill-rule="evenodd" clip-rule="evenodd" d="M1291.41 353.54C1288.68 349.27 1289.06 338.002 1289.64 336.163C1289.95 335.193 1290.4 333.464 1291.35 331.394C1291.3 331.253 1291.24 331.111 1291.18 330.97C1291.18 330.97 1285.83 322.583 1272.53 307.327C1259.24 292.07 1259.78 280.115 1263.52 271.907C1267.27 263.699 1276.37 249.424 1276.19 243C1276.19 243 1275.06 255.822 1269.06 264.412C1269.06 264.412 1258.53 281.721 1268.88 295.639C1268.88 295.639 1273.87 304.561 1285.11 314.731C1289.17 318.397 1292.27 322.503 1294.58 326.255C1295.28 325.4 1296.09 324.542 1297.02 323.701C1302.45 318.785 1304.87 314.474 1304.87 314.474C1309.87 307.748 1304.78 299.384 1304.78 299.384C1301.88 295.232 1301.33 289.036 1301.33 289.036C1301.25 292.14 1305.64 299.039 1307.45 303.005C1309.26 306.972 1309.52 312.749 1303.1 320.122C1299.78 323.926 1297.49 326.847 1296.05 328.782C1299.06 334.261 1300.28 338.463 1300.28 338.463C1300.28 338.463 1300.51 340.041 1300.77 342.426C1301.19 342.365 1301.62 342.32 1302.05 342.29C1298.38 348.757 1294.48 351.96 1291.41 353.54ZM1293.95 348.041C1294.05 347.715 1294.16 347.391 1294.26 347.072C1294.3 343.559 1293.9 339.637 1292.73 335.479C1291.38 340.997 1292.66 345.367 1293.95 348.041V348.041Z" fill="#1E4CA1"/>
<path fill-rule="evenodd" clip-rule="evenodd" d="M1286.99 368.742C1288.44 363.887 1284.98 353.156 1283.91 351.548C1283.35 350.699 1282.45 349.161 1280.96 347.433C1280.97 347.282 1280.99 347.131 1281 346.978C1281 346.978 1283.85 337.443 1292.43 319.121C1301.02 300.798 1297.22 289.451 1291.36 282.589C1285.5 275.727 1272.83 264.503 1271.24 258.277C1271.24 258.277 1275.85 270.293 1283.98 276.903C1283.98 276.903 1298.86 290.651 1292.74 306.878C1292.74 306.878 1290.39 316.829 1282.37 329.698C1279.49 334.336 1277.63 339.136 1276.44 343.379C1275.53 342.751 1274.52 342.148 1273.39 341.594C1266.82 338.362 1263.31 334.88 1263.31 334.88C1256.65 329.788 1259.25 320.347 1259.25 320.347C1260.9 315.558 1259.72 309.45 1259.72 309.45C1260.66 312.411 1258.32 320.252 1257.67 324.564C1257.02 328.875 1258.36 334.501 1266.56 339.824C1270.8 342.571 1273.8 344.749 1275.72 346.213C1274.33 352.311 1274.31 356.685 1274.31 356.685C1274.31 356.685 1274.53 358.265 1274.94 360.629C1274.51 360.686 1274.09 360.76 1273.67 360.85C1278.98 366.058 1283.6 368.067 1286.99 368.742H1286.99ZM1283.04 364.153C1282.84 363.869 1282.66 363.586 1282.47 363.307C1281.47 359.941 1280.77 356.059 1280.75 351.741C1283.57 356.674 1283.54 361.228 1283.04 364.154V364.153Z" fill="#1E4CA1"/>
<path fill-rule="evenodd" clip-rule="evenodd" d="M1335.59 339.255C1336.54 339.147 1337.51 338.971 1338.53 338.713L1336.67 336.865C1336.67 336.865 1335.07 337.081 1333.47 337.858C1332.99 338.093 1332.58 338.158 1332.24 338.135C1331.93 338.021 1331.61 337.903 1331.29 337.778C1331.13 337.659 1331.05 337.556 1331.05 337.556C1331.05 337.556 1330.88 336.045 1332.18 335.484C1333.47 334.923 1334.94 335.096 1334.94 335.096L1332.22 331.902C1332.22 331.902 1330.75 331.73 1328.81 332.334C1326.87 332.938 1325.83 331.816 1325.83 331.816C1325.83 331.816 1325.27 330.564 1327.21 329.787C1329.16 329.011 1330.8 330.09 1330.8 330.09C1330.8 330.09 1329.15 328.494 1327.02 325.319C1325.81 325.144 1324.99 325.67 1322.98 325.925C1320.61 326.228 1320.48 324.415 1320.48 324.415C1320.48 324.415 1320.95 322.818 1322.9 322.775C1324.05 322.749 1325.19 323.238 1325.94 323.641C1325.18 322.401 1324.39 320.984 1323.61 319.388C1322.76 319.565 1321.19 319.78 1319.83 319.365C1317.85 318.761 1317.29 317.898 1317.29 316.905C1317.29 315.913 1319.18 315.826 1319.92 316.215C1320.65 316.603 1323.07 318.259 1323.07 318.259L1323.07 318.261C1322.28 316.55 1321.51 314.655 1320.81 312.576L1320.61 310.95L1320.81 312.58C1320.81 312.58 1316.51 310.734 1316.08 310.001C1315.65 309.267 1315.47 307.757 1315.95 307.109C1316.42 306.462 1318.11 307.282 1318.58 308.318C1318.89 308.985 1319.64 309.885 1320.14 310.441C1319.94 309.778 1319.75 309.1 1319.57 308.404C1319.57 308.404 1319.21 306.852 1319.14 304.067C1318.28 303.767 1316.48 303 1315.52 301.585C1314.22 299.686 1315.65 298.262 1315.65 298.262C1315.65 298.262 1317.54 298.089 1317.89 299.902C1318.11 301.064 1318.72 301.925 1319.13 302.393C1319.16 300.968 1319.26 299.314 1319.51 297.459L1320.22 295.845L1319.51 297.46C1317.67 296.441 1316.16 292.479 1316.16 292.479C1316.16 292.479 1315.95 290.148 1317.03 289.588C1318.11 289.026 1318.58 290.149 1318.58 290.149C1318.58 290.149 1319.05 291.659 1319.18 293.644C1319.25 294.699 1319.54 295.254 1319.8 295.543L1319.8 295.541C1320.11 293.71 1320.55 291.716 1321.17 289.58L1321.95 288.293L1321.17 289.58C1321.17 289.58 1319.4 284.84 1318.93 283.632C1318.45 282.424 1318.54 280.956 1319.66 280.266C1320.78 279.575 1321.3 281.345 1321.3 281.345C1321.3 281.345 1321.77 284.193 1321.56 285.488C1321.43 286.277 1321.6 287.146 1321.76 287.704L1321.75 287.69C1322.46 285.525 1323.34 283.231 1324.45 280.826L1324.46 280.811C1324.08 279.685 1323.12 276.913 1322.51 275.691C1321.73 274.137 1323.2 272.799 1323.2 272.799C1323.2 272.799 1324.88 272.929 1325.31 274.482C1325.74 276.036 1325.53 278.434 1325.53 278.434V278.432C1326.24 276.803 1326.84 275.353 1327.35 274.058C1327.35 273.955 1327.49 271.181 1326.44 270.08C1325.36 268.958 1325.83 267.749 1325.83 267.749C1325.83 267.749 1326.74 266.498 1327.51 267.447C1328.28 268.383 1328.3 271.352 1328.31 271.434C1330.82 264.072 1329.28 263.477 1329.28 263.477C1329.28 263.477 1329.11 261.319 1330.49 261.923C1331.87 262.527 1332.13 264.081 1332.13 264.081C1332.13 264.081 1332.09 267.102 1329.97 270.77C1329.39 271.787 1328.52 273.801 1327.57 276.182C1328.25 274.467 1330.02 273.878 1331.18 273.878C1332.35 273.878 1332.74 275.129 1332.74 275.129C1332.74 275.129 1332.99 275.82 1330.49 276.424C1327.99 277.027 1326.48 278.954 1326.48 278.963C1325.92 280.404 1325.37 281.887 1324.84 283.3C1324.85 283.297 1326.95 281.818 1328.42 281.43C1329.89 281.042 1330.32 282.293 1330.32 282.293C1330.32 282.293 1330.23 284.494 1327.9 284.71C1325.58 284.926 1323.43 287.193 1323.42 287.2C1322.87 288.72 1322.45 289.929 1322.22 290.577C1323.09 289.885 1323.98 289.291 1324.75 289.09C1325.99 288.766 1327.67 288.975 1327.83 289.774C1328 290.573 1326.2 291.644 1324.99 291.095C1324.2 290.74 1322.64 291.752 1321.67 292.523C1321.38 293.798 1320.99 295.854 1320.76 298.383C1321.86 297.019 1322.05 298.048 1323.31 297.186C1324.57 296.323 1325.49 295.124 1325.79 295.911C1326.09 296.699 1326.12 297.955 1324.96 298.759C1324.19 299.3 1321.95 300.303 1320.6 300.917C1320.56 302.269 1320.57 303.71 1320.67 305.204C1321.16 304.22 1321.71 303.316 1322.32 302.814C1323.3 301.992 1324.91 301.47 1325.4 302.123C1325.88 302.776 1324.71 304.508 1323.38 304.527C1322.47 304.54 1321.42 306.327 1320.89 307.436C1321.19 309.787 1321.74 312.222 1322.64 314.617C1322.91 313.164 1323.42 311.717 1324.04 310.811C1324.77 309.753 1326.6 309.054 1327.24 309.55C1327.89 310.047 1327.23 312.031 1325.96 312.41C1324.73 312.774 1323.27 315.913 1323.26 316.132C1323.89 317.544 1324.65 318.933 1325.57 320.272C1325.57 320.272 1325.65 320.406 1325.8 320.656C1325.68 319.096 1325.77 317.416 1326.39 316.831C1327.08 316.184 1328.95 315.074 1329.6 315.571C1330.24 316.067 1329.59 318.052 1328.31 318.43C1327.04 318.808 1326.7 322.211 1326.81 322.192L1326.63 321.996C1327.33 323.107 1328.4 324.705 1329.81 326.64C1329.8 324.968 1330.49 322.705 1331.12 322.117C1331.81 321.47 1332.47 320.964 1333.11 321.461C1333.76 321.957 1334.5 323.888 1332.82 324.752C1331.39 325.484 1330.93 327.432 1330.83 328.007C1331.81 329.31 1332.94 330.733 1334.2 332.237C1334.07 330.54 1334.66 327.822 1335.5 327.36C1336.36 326.886 1336.88 326.583 1337.53 327.08C1338.17 327.576 1338.56 329.324 1336.88 330.187C1335.2 331.05 1335.49 333.747 1335.49 333.747C1336.65 335.08 1337.92 336.465 1339.28 337.878C1339.14 336.197 1339.81 333.782 1340.66 333.315C1341.52 332.84 1342.6 333.444 1342.6 333.444C1342.6 333.444 1343.63 334.912 1341.95 335.775C1340.9 336.317 1340.49 337.427 1340.34 338.179C1340.66 338.071 1340.99 337.958 1341.32 337.835C1342.62 337.344 1343.93 336.864 1345.24 336.395L1344.21 339.68C1344.21 339.68 1343.07 341.478 1335.59 339.255L1335.59 339.255ZM1320.3 310.619L1320.29 310.614L1320.25 310.564L1320.3 310.619H1320.3ZM1319.52 304.19L1319.54 304.197L1319.55 304.198L1319.52 304.19ZM1321.89 288.129L1321.88 288.098L1321.88 288.094L1321.89 288.129H1321.89ZM1327.55 276.221C1327.21 277.082 1326.85 277.99 1326.5 278.915C1326.58 278.694 1326.96 277.721 1327.55 276.221Z" fill="#1E4CA1"/>
<path fill-rule="evenodd" clip-rule="evenodd" d="M1424.15 313.76C1424.98 313.279 1425.8 312.723 1426.63 312.075L1424.17 311.138C1424.17 311.138 1422.8 311.981 1421.65 313.337C1421.31 313.747 1420.96 313.973 1420.64 314.088C1420.31 314.109 1419.97 314.128 1419.62 314.146C1419.43 314.099 1419.32 314.036 1419.32 314.036C1419.32 314.036 1418.55 312.725 1419.51 311.688C1420.47 310.652 1421.88 310.217 1421.88 310.217L1418.1 308.394C1418.1 308.394 1416.69 308.829 1415.16 310.166C1413.63 311.504 1412.23 310.896 1412.23 310.896C1412.23 310.896 1411.21 309.978 1412.67 308.483C1414.13 306.987 1416.07 307.312 1416.07 307.312C1416.07 307.312 1413.92 306.518 1410.68 304.474C1409.51 304.799 1408.97 305.616 1407.24 306.659C1405.19 307.894 1404.34 306.289 1404.34 306.289C1404.34 306.289 1404.13 304.636 1405.89 303.812C1406.93 303.324 1408.18 303.306 1409.02 303.374C1407.83 302.546 1406.53 301.57 1405.17 300.427C1404.47 300.93 1403.12 301.76 1401.71 301.931C1399.65 302.181 1398.78 301.617 1398.38 300.71C1397.98 299.802 1399.68 298.955 1400.51 299.014C1401.34 299.074 1404.22 299.611 1404.22 299.611L1404.22 299.612C1402.81 298.367 1401.34 296.943 1399.86 295.324L1399.02 293.92L1399.86 295.328C1399.86 295.328 1395.18 295.379 1394.49 294.882C1393.8 294.385 1393.03 293.073 1393.2 292.29C1393.37 291.506 1395.24 291.575 1396.1 292.331C1396.65 292.818 1397.7 293.337 1398.38 293.645C1397.93 293.118 1397.49 292.573 1397.04 292.009C1397.04 292.009 1396.08 290.735 1394.89 288.217C1393.99 288.289 1392.03 288.315 1390.58 287.411C1388.62 286.197 1389.35 284.319 1389.35 284.319C1389.35 284.319 1391.02 283.393 1392.07 284.912C1392.74 285.886 1393.65 286.426 1394.21 286.688C1393.66 285.374 1393.09 283.818 1392.56 282.024L1392.56 280.26L1392.56 282.025C1390.47 281.836 1387.49 278.819 1387.49 278.819C1387.49 278.819 1386.35 276.775 1387.11 275.826C1387.87 274.877 1388.76 275.711 1388.76 275.711C1388.76 275.711 1389.8 276.902 1390.72 278.665C1391.21 279.602 1391.7 279.993 1392.05 280.155L1392.05 280.154C1391.59 278.353 1391.19 276.35 1390.9 274.145L1391.09 272.653L1390.9 274.146C1390.9 274.146 1387.36 270.524 1386.44 269.61C1385.52 268.697 1385 267.32 1385.75 266.235C1386.5 265.149 1387.69 266.559 1387.69 266.559C1387.69 266.559 1389.27 268.973 1389.6 270.244C1389.8 271.019 1390.31 271.744 1390.67 272.192L1390.66 272.181C1390.44 269.915 1390.32 267.458 1390.36 264.812V264.794C1389.56 263.918 1387.56 261.77 1386.51 260.899C1385.17 259.791 1385.97 257.975 1385.97 257.975C1385.97 257.975 1387.56 257.413 1388.59 258.66C1389.61 259.907 1390.38 262.188 1390.38 262.188L1390.38 262.186C1390.38 260.407 1390.34 258.838 1390.27 257.452C1390.24 257.355 1389.25 254.76 1387.83 254.18C1386.39 253.59 1386.34 252.292 1386.34 252.292C1386.34 252.292 1386.66 250.782 1387.76 251.336C1388.84 251.883 1390.06 254.589 1390.09 254.664C1389.42 246.914 1387.77 246.989 1387.77 246.989C1387.77 246.989 1386.74 245.085 1388.25 245.079C1389.76 245.074 1390.62 246.39 1390.62 246.39C1390.62 246.39 1391.8 249.171 1391.35 253.381C1391.23 254.548 1391.24 256.742 1391.33 259.305C1391.27 257.459 1392.65 256.205 1393.71 255.736C1394.78 255.265 1395.64 256.253 1395.64 256.253C1395.64 256.253 1396.15 256.781 1394.11 258.344C1392.07 259.904 1391.46 262.277 1391.46 262.288C1391.54 263.831 1391.63 265.412 1391.72 266.915C1391.72 266.91 1393.05 264.708 1394.24 263.76C1395.42 262.812 1396.32 263.783 1396.32 263.783C1396.32 263.783 1397.13 265.831 1395.09 266.97C1393.05 268.107 1392 271.049 1392 271.058C1392.11 272.67 1392.21 273.949 1392.26 274.634C1392.77 273.649 1393.35 272.745 1393.97 272.25C1394.98 271.452 1396.6 270.967 1397.07 271.631C1397.54 272.295 1396.33 274 1395 273.988C1394.14 273.981 1393.12 275.536 1392.55 276.634C1392.8 277.917 1393.27 279.957 1394.08 282.363C1394.53 280.672 1395.13 281.534 1395.93 280.237C1396.73 278.939 1397.09 277.471 1397.68 278.07C1398.27 278.67 1398.81 279.808 1398.08 281.009C1397.59 281.817 1395.95 283.638 1394.96 284.744C1395.46 286.001 1396.06 287.314 1396.75 288.639C1396.8 287.541 1396.94 286.492 1397.29 285.788C1397.86 284.637 1399.12 283.511 1399.83 283.911C1400.54 284.311 1400.17 286.369 1398.96 286.923C1398.13 287.306 1397.89 289.365 1397.86 290.592C1399.08 292.621 1400.57 294.628 1402.36 296.454C1402.01 295.017 1401.9 293.487 1402.1 292.408C1402.34 291.146 1403.73 289.767 1404.52 289.96C1405.31 290.152 1405.51 292.233 1404.5 293.094C1403.53 293.924 1403.46 297.385 1403.54 297.589C1404.68 298.627 1405.94 299.589 1407.33 300.441C1407.33 300.441 1407.45 300.533 1407.69 300.702C1406.95 299.323 1406.35 297.75 1406.68 296.964C1407.05 296.093 1408.31 294.324 1409.11 294.516C1409.9 294.709 1410.1 296.79 1409.09 297.651C1408.07 298.513 1409.14 301.762 1409.23 301.7L1408.98 301.594C1410.08 302.324 1411.7 303.357 1413.77 304.555C1413.09 303.028 1412.81 300.68 1413.14 299.89C1413.51 299.019 1413.91 298.291 1414.7 298.483C1415.5 298.676 1416.96 300.142 1415.77 301.611C1414.76 302.858 1415.12 304.825 1415.26 305.394C1416.69 306.188 1418.29 307.034 1420.05 307.9C1419.25 306.4 1418.69 303.678 1419.27 302.916C1419.87 302.133 1420.22 301.647 1421.01 301.84C1421.8 302.032 1422.87 303.474 1421.67 304.944C1420.48 306.413 1421.85 308.761 1421.85 308.761C1423.45 309.511 1425.16 310.268 1426.98 311.01C1426.17 309.53 1425.8 307.05 1426.39 306.28C1426.99 305.497 1428.22 305.614 1428.22 305.614C1428.22 305.614 1429.76 306.538 1428.57 308.007C1427.82 308.93 1427.91 310.108 1428.07 310.857C1428.32 310.628 1428.57 310.393 1428.82 310.146C1429.82 309.17 1430.82 308.202 1431.83 307.246L1432.22 310.664C1432.22 310.664 1431.9 312.772 1424.16 313.761L1424.15 313.76ZM1398.6 293.742L1398.59 293.74L1398.53 293.712L1398.6 293.742ZM1395.29 288.176L1395.31 288.173L1395.32 288.172L1395.29 288.176ZM1390.96 272.527L1390.94 272.503L1390.94 272.5L1390.97 272.527H1390.96ZM1391.33 259.346C1391.37 260.273 1391.41 261.247 1391.46 262.237C1391.45 262.001 1391.4 260.958 1391.33 259.346Z" fill="#1E4CA1"/>
<path fill-rule="evenodd" clip-rule="evenodd" d="M1419.89 319.041C1419.72 319.561 1419.52 320.091 1419.26 320.634L1418.43 319.383C1418.43 319.383 1418.72 318.51 1419.34 317.699C1419.52 317.454 1419.6 317.23 1419.63 317.036C1419.6 316.851 1419.56 316.66 1419.53 316.464C1419.48 316.364 1419.43 316.309 1419.43 316.309C1419.43 316.309 1418.6 316.046 1418.14 316.711C1417.69 317.377 1417.62 318.22 1417.62 318.22L1416.13 316.342C1416.13 316.342 1416.19 315.499 1416.75 314.475C1417.3 313.45 1416.78 312.745 1416.78 312.745C1416.78 312.745 1416.14 312.293 1415.49 313.298C1414.84 314.304 1415.27 315.343 1415.27 315.343C1415.27 315.343 1414.55 314.243 1413 312.697C1413.04 312.002 1413.42 311.595 1413.79 310.497C1414.22 309.197 1413.21 308.926 1413.21 308.926C1413.21 308.926 1412.26 309.017 1412.03 310.102C1411.89 310.745 1412.03 311.444 1412.18 311.908C1411.57 311.346 1410.86 310.745 1410.05 310.13C1410.24 309.673 1410.53 308.818 1410.45 308.007C1410.33 306.826 1409.9 306.416 1409.35 306.307C1408.79 306.198 1408.53 307.255 1408.67 307.71C1408.81 308.164 1409.47 309.704 1409.47 309.704L1409.47 309.705C1408.6 309.074 1407.62 308.434 1406.53 307.812L1405.64 307.519L1406.53 307.813C1406.53 307.813 1405.97 305.192 1405.6 304.869C1405.24 304.546 1404.41 304.283 1403.99 304.479C1403.58 304.674 1403.85 305.71 1404.38 306.09C1404.72 306.335 1405.15 306.857 1405.4 307.198C1405.05 307.015 1404.69 306.835 1404.32 306.658C1404.32 306.658 1403.49 306.284 1401.93 305.937C1401.86 305.423 1401.63 304.327 1400.94 303.63C1400.01 302.694 1399.06 303.337 1399.06 303.337C1399.06 303.337 1398.75 304.385 1399.73 304.777C1400.36 305.029 1400.78 305.468 1400.99 305.75C1400.19 305.608 1399.25 305.485 1398.18 305.417L1397.2 305.641L1398.18 305.417C1397.81 304.274 1395.75 302.992 1395.75 302.992C1395.75 302.992 1394.47 302.615 1394.03 303.16C1393.6 303.704 1394.18 304.094 1394.18 304.094C1394.18 304.094 1394.97 304.526 1396.08 304.817C1396.66 304.972 1396.94 305.195 1397.07 305.37L1397.07 305.369C1396.01 305.343 1394.84 305.372 1393.58 305.485L1392.77 305.781L1393.58 305.485C1393.58 305.485 1391.11 303.971 1390.48 303.572C1389.85 303.172 1389.02 303.06 1388.51 303.614C1388 304.168 1388.94 304.654 1388.94 304.654C1388.94 304.654 1390.48 305.234 1391.23 305.255C1391.69 305.267 1392.16 305.46 1392.46 305.609L1392.45 305.605C1391.16 305.764 1389.77 306.01 1388.3 306.367L1388.29 306.369C1387.7 306.031 1386.25 305.189 1385.63 304.711C1384.84 304.104 1383.93 304.781 1383.93 304.781C1383.93 304.781 1383.82 305.741 1384.64 306.154C1385.47 306.566 1386.84 306.709 1386.84 306.709H1386.84C1385.84 306.932 1384.96 307.109 1384.18 307.249C1384.12 307.241 1382.55 307.016 1382.05 306.3C1381.53 305.571 1380.8 305.705 1380.8 305.705C1380.8 305.705 1380 306.076 1380.45 306.617C1380.89 307.151 1382.56 307.491 1382.6 307.5C1378.19 308.101 1378.03 307.175 1378.03 307.175C1378.03 307.175 1376.83 306.841 1377.02 307.683C1377.21 308.525 1378.05 308.841 1378.05 308.841C1378.05 308.841 1379.75 309.149 1382.05 308.365C1382.68 308.147 1383.91 307.879 1385.35 307.606C1384.31 307.804 1383.79 308.732 1383.66 309.384C1383.53 310.038 1384.19 310.394 1384.19 310.394C1384.19 310.394 1384.55 310.615 1385.16 309.276C1385.78 307.94 1387.02 307.303 1387.03 307.3C1387.9 307.147 1388.79 306.998 1389.64 306.86C1389.64 306.862 1388.58 307.882 1388.2 308.662C1387.82 309.444 1388.48 309.824 1388.48 309.824C1388.48 309.824 1389.72 310.017 1390.1 308.732C1390.48 307.449 1391.99 306.493 1391.99 306.49C1392.91 306.349 1393.63 306.242 1394.02 306.184C1393.54 306.596 1393.1 307.034 1392.91 307.443C1392.59 308.105 1392.52 309.069 1392.95 309.249C1393.38 309.429 1394.18 308.539 1394.01 307.798C1393.89 307.318 1394.63 306.554 1395.17 306.093C1395.92 306.071 1397.12 306.075 1398.56 306.225C1397.68 306.691 1398.23 306.914 1397.61 307.526C1396.99 308.138 1396.21 308.523 1396.62 308.777C1397.03 309.031 1397.74 309.185 1398.31 308.626C1398.7 308.251 1399.51 307.105 1400 306.414C1400.77 306.537 1401.58 306.702 1402.4 306.923C1401.8 307.089 1401.23 307.301 1400.88 307.584C1400.31 308.048 1399.84 308.892 1400.15 309.238C1400.47 309.584 1401.57 309.118 1401.73 308.373C1401.83 307.859 1402.95 307.465 1403.63 307.292C1404.92 307.719 1406.23 308.294 1407.47 309.063C1406.63 309.053 1405.76 309.181 1405.18 309.431C1404.51 309.723 1403.92 310.674 1404.12 311.091C1404.33 311.509 1405.52 311.359 1405.87 310.684C1406.21 310.035 1408.13 309.559 1408.26 309.578C1408.98 310.087 1409.68 310.668 1410.33 311.332C1410.33 311.332 1410.39 311.389 1410.52 311.501C1409.65 311.264 1408.7 311.128 1408.3 311.414C1407.87 311.73 1407.04 312.656 1407.24 313.074C1407.45 313.492 1408.64 313.342 1408.99 312.667C1409.34 311.993 1411.29 312.176 1411.27 312.237L1411.18 312.113C1411.72 312.631 1412.51 313.404 1413.44 314.411C1412.5 314.224 1411.15 314.361 1410.75 314.649C1410.31 314.965 1409.96 315.279 1410.17 315.697C1410.37 316.115 1411.38 316.745 1412.05 315.895C1412.61 315.174 1413.76 315.13 1414.09 315.134C1414.72 315.831 1415.39 316.619 1416.1 317.494C1415.16 317.235 1413.57 317.264 1413.22 317.686C1412.86 318.118 1412.63 318.376 1412.84 318.794C1413.04 319.212 1413.98 319.622 1414.65 318.772C1415.32 317.921 1416.8 318.385 1416.8 318.385C1417.42 319.183 1418.06 320.044 1418.71 320.964C1417.78 320.7 1416.35 320.811 1415.99 321.236C1415.63 321.669 1415.85 322.341 1415.85 322.341C1415.85 322.341 1416.56 323.084 1417.23 322.234C1417.65 321.7 1418.32 321.597 1418.76 321.594C1418.66 321.763 1418.57 321.934 1418.46 322.105C1418.04 322.784 1417.63 323.467 1417.22 324.147L1419.18 323.934C1419.18 323.934 1420.31 323.488 1419.89 319.043L1419.89 319.041ZM1405.49 307.308L1405.48 307.305L1405.46 307.274L1405.49 307.308ZM1401.96 306.165L1401.96 306.178V306.18L1401.96 306.165ZM1392.68 305.729L1392.67 305.719L1392.66 305.718L1392.68 305.729ZM1385.37 307.6C1385.89 307.501 1386.44 307.402 1387 307.304C1386.87 307.328 1386.28 307.433 1385.37 307.6Z" fill="#1E4CA1"/>
<path fill-rule="evenodd" clip-rule="evenodd" d="M1346.29 328.577C1345.89 328.799 1345.47 329.004 1345 329.188L1345.21 327.949C1345.21 327.949 1345.89 327.587 1346.73 327.443C1346.98 327.399 1347.16 327.31 1347.28 327.206C1347.37 327.076 1347.46 326.941 1347.55 326.802C1347.58 326.713 1347.58 326.65 1347.58 326.65C1347.58 326.65 1347.23 326.015 1346.57 326.158C1345.91 326.302 1345.38 326.779 1345.38 326.779L1345.55 324.778C1345.55 324.778 1346.07 324.301 1346.99 323.994C1347.92 323.686 1348.01 322.961 1348.01 322.961C1348.01 322.961 1347.88 322.318 1346.9 322.558C1345.93 322.799 1345.6 323.676 1345.6 323.676C1345.6 323.676 1345.79 322.596 1345.73 320.767C1346.15 320.362 1346.62 320.336 1347.47 319.875C1348.48 319.33 1348.02 318.589 1348.02 318.589C1348.02 318.589 1347.39 318.101 1346.62 318.627C1346.17 318.938 1345.86 319.449 1345.68 319.814C1345.63 319.12 1345.54 318.348 1345.4 317.509C1345.78 317.34 1346.45 316.987 1346.86 316.445C1347.47 315.656 1347.44 315.164 1347.17 314.778C1346.89 314.392 1346.13 314.889 1345.95 315.245C1345.77 315.601 1345.3 316.92 1345.3 316.92L1345.29 316.92C1345.12 316.035 1344.89 315.083 1344.59 314.079L1344.21 313.391L1344.59 314.081C1344.59 314.081 1345.74 312.162 1345.71 311.756C1345.67 311.35 1345.31 310.715 1344.95 310.596C1344.58 310.477 1344.16 311.266 1344.26 311.801C1344.33 312.146 1344.29 312.706 1344.25 313.061C1344.14 312.749 1344.03 312.432 1343.9 312.111C1343.9 312.111 1343.61 311.407 1342.86 310.304C1343.11 309.948 1343.59 309.147 1343.57 308.328C1343.55 307.228 1342.6 307.072 1342.6 307.072C1342.6 307.072 1341.81 307.535 1342.18 308.336C1342.42 308.85 1342.42 309.355 1342.39 309.652C1341.99 309.105 1341.48 308.492 1340.87 307.838L1340.14 307.41L1340.87 307.838C1341.3 306.93 1340.78 304.968 1340.78 304.968C1340.78 304.968 1340.21 304.002 1339.64 304.086C1339.06 304.169 1339.19 304.738 1339.19 304.738C1339.19 304.738 1339.43 305.457 1339.93 306.265C1340.2 306.694 1340.24 306.991 1340.22 307.174V307.173C1339.59 306.549 1338.86 305.897 1338.02 305.239L1337.36 304.956L1338.02 305.239C1338.02 305.239 1337.39 302.903 1337.24 302.301C1337.08 301.698 1336.64 301.152 1336.01 301.197C1335.38 301.242 1335.67 302.075 1335.67 302.075C1335.67 302.075 1336.28 303.314 1336.73 303.757C1337 304.027 1337.18 304.413 1337.27 304.674L1337.27 304.668C1336.39 304.024 1335.41 303.379 1334.3 302.754L1334.3 302.75C1334.13 302.206 1333.73 300.861 1333.62 300.215C1333.49 299.394 1332.55 299.285 1332.55 299.285C1332.55 299.285 1331.93 299.805 1332.2 300.529C1332.46 301.253 1333.22 302.125 1333.22 302.125L1333.22 302.125C1332.48 301.691 1331.84 301.295 1331.29 300.932C1331.26 300.893 1330.43 299.855 1330.53 299.131C1330.64 298.394 1330.11 298.057 1330.11 298.057C1330.11 298.057 1329.41 297.823 1329.38 298.41C1329.34 298.988 1330.16 300.148 1330.18 300.181C1327.15 298.02 1327.58 297.361 1327.58 297.361C1327.58 297.361 1327.04 296.474 1326.68 297.094C1326.31 297.715 1326.64 298.391 1326.64 298.391C1326.64 298.391 1327.5 299.554 1329.35 300.389C1329.86 300.62 1330.76 301.16 1331.8 301.819C1331.05 301.345 1330.2 301.609 1329.75 301.934C1329.29 302.259 1329.49 302.854 1329.49 302.854C1329.49 302.854 1329.58 303.195 1330.73 302.73C1331.86 302.267 1332.99 302.594 1333 302.595C1333.61 303.001 1334.24 303.422 1334.84 303.825C1334.84 303.825 1333.61 303.839 1332.93 304.097C1332.25 304.356 1332.43 304.963 1332.43 304.963C1332.43 304.963 1333.08 305.795 1334.05 305.227C1335.01 304.661 1336.48 304.943 1336.48 304.944C1337.12 305.382 1337.63 305.732 1337.9 305.92C1337.36 305.894 1336.85 305.913 1336.5 306.05C1335.92 306.271 1335.33 306.82 1335.49 307.176C1335.65 307.533 1336.64 307.448 1336.96 306.896C1337.17 306.538 1338.06 306.496 1338.65 306.525C1339.12 306.939 1339.85 307.628 1340.64 308.548C1339.83 308.325 1340.04 308.779 1339.31 308.795C1338.58 308.811 1337.89 308.602 1338 308.992C1338.1 309.381 1338.44 309.877 1339.11 309.868C1339.57 309.862 1340.71 309.628 1341.41 309.489C1341.81 310.002 1342.2 310.565 1342.58 311.174C1342.12 310.928 1341.65 310.731 1341.27 310.704C1340.66 310.66 1339.89 310.906 1339.88 311.296C1339.88 311.687 1340.82 312.033 1341.34 311.669C1341.7 311.418 1342.61 311.819 1343.12 312.103C1343.66 313.101 1344.13 314.201 1344.45 315.383C1343.94 314.892 1343.33 314.473 1342.84 314.295C1342.26 314.087 1341.35 314.326 1341.24 314.7C1341.13 315.073 1341.94 315.661 1342.54 315.452C1343.12 315.252 1344.56 316.063 1344.63 316.146C1344.78 316.871 1344.87 317.623 1344.89 318.401C1344.89 318.401 1344.89 318.474 1344.91 318.613C1344.52 317.974 1344.01 317.345 1343.61 317.292C1343.16 317.233 1342.12 317.323 1342.01 317.697C1341.9 318.07 1342.71 318.658 1343.31 318.45C1343.91 318.241 1344.99 319.469 1344.94 319.492L1344.96 319.365C1344.99 319.994 1345.03 320.912 1345.02 322.059C1344.55 321.408 1343.65 320.72 1343.25 320.667C1342.8 320.608 1342.4 320.595 1342.29 320.969C1342.17 321.343 1342.42 322.301 1343.32 322.167C1344.08 322.053 1344.8 322.682 1345 322.875C1344.98 323.657 1344.94 324.525 1344.87 325.463C1344.45 324.767 1343.46 323.874 1343.01 323.929C1342.54 323.985 1342.25 324.012 1342.14 324.386C1342.03 324.76 1342.36 325.548 1343.26 325.413C1344.16 325.279 1344.79 326.41 1344.79 326.41C1344.71 327.252 1344.61 328.143 1344.48 329.073C1344.06 328.38 1343.13 327.628 1342.67 327.684C1342.2 327.74 1341.95 328.277 1341.95 328.277C1341.95 328.277 1341.95 329.136 1342.85 329.002C1343.41 328.918 1343.88 329.237 1344.15 329.486C1343.99 329.535 1343.83 329.582 1343.67 329.625C1343.03 329.8 1342.38 329.979 1341.75 330.16L1343.06 331.151C1343.06 331.151 1344.01 331.53 1346.29 328.577H1346.29ZM1344.24 313.175L1344.24 313.172L1344.24 313.14L1344.24 313.175H1344.24ZM1342.74 310.459L1342.74 310.468L1342.74 310.469L1342.74 310.459ZM1337.34 304.876L1337.33 304.861L1337.33 304.859L1337.34 304.876H1337.34ZM1331.81 301.829C1332.19 302.068 1332.58 302.322 1332.97 302.582C1332.88 302.521 1332.46 302.248 1331.81 301.829Z" fill="#1E4CA1"/>
<path fill-rule="evenodd" clip-rule="evenodd" d="M888.451 667.124C905.558 664.034 951.004 650.111 964.306 638.055C996.915 608.508 971.373 606.167 1026.3 606.167C1055.99 606.167 1047.57 607.97 1075.18 600.728C1128.89 586.639 1160.67 589.711 1190.45 530.834C1203.75 504.507 1206.05 526.317 1206.05 479.293C1206.05 428.264 1217.09 442.579 1230.72 396.541C1232.31 391.189 1280.06 322.607 1354.72 328.831C1391.77 331.918 1421.05 317.793 1423.86 305.002C1430.37 275.264 1437.23 266.574 1437.57 273.148C1442.04 359.54 1436.51 349.065 1436.48 350.25V829.068H0V350.25V340.502C14.0483 349.56 43.2135 409.776 44.9643 414.002C48.5467 422.65 89.7561 426.355 97.9727 424.502L77.4727 424.168C115.1 424.168 118.901 428.776 148.001 452.002C154.102 456.869 157.725 475.594 152.386 483.889C149.548 488.299 148.134 516.063 148.001 522.002C147.64 538.091 117.744 538.033 123.473 557.002C128.391 573.283 148.001 578.162 148.001 606.404C148.001 634.598 157.266 638.453 176.471 651.095C187.42 658.302 228.557 651.2 244.12 661.176C244.211 661.234 268.348 671.181 268.587 671.258C286.309 677.037 295.533 684.113 315.718 688.194C335.08 692.108 334.074 693.886 354.741 693.886C371.418 693.886 381.531 682.267 397.639 675.959C400.833 674.707 415.055 664.145 420.018 663.072C447.611 657.113 472.863 646.934 497.786 668.029C507.372 676.144 509.559 679.618 523.427 680.915C549.632 683.366 547.247 675.672 569.384 667.773C582.999 662.916 591.437 655.166 608.993 651.604C632.545 646.823 631.375 650.989 652.046 663.894C662.709 670.553 658.105 672.717 676.361 677.375C690.159 680.893 686.936 677.55 700.45 685.956C709.122 691.35 722.263 693.886 732.41 693.886C765.401 693.886 759.981 693.517 791.879 677.29C825.241 660.316 829.002 667.122 863.475 667.122C871.802 667.122 880.129 667.122 888.452 667.122L888.451 667.124Z" fill="#1E4CA1"/>
</g>
<defs>
<clipPath id="clip0_331_45993">
<rect width="1439" height="836" fill="white"/>
</clipPath>
</defs>
</svg>
