<svg width="1439" height="830" viewBox="0 0 1439 830" fill="none" xmlns="http://www.w3.org/2000/svg">
<g clip-path="url(#clip0_331_45988)">
<path fill-rule="evenodd" clip-rule="evenodd" d="M745.981 777.371C771.904 757.74 782.88 798.38 816.028 747.039C822.835 736.495 884.24 738.899 890.505 744.873C893.616 747.836 918.299 765.128 924.406 764.372C934.639 763.104 960.162 713.753 997.406 731.13C1069.98 764.985 1049.43 703.1 1102.83 705.872C1114.53 706.481 1121.77 682.353 1158.3 703.152C1179.23 715.077 1223.95 716.304 1242.87 697.393C1268.02 672.239 1257.15 685.546 1286.76 669.786C1315.2 654.653 1314.88 618.676 1325.55 591.045C1332.57 572.86 1328.21 543.577 1354.56 521.157C1385.7 494.657 1286.29 416.479 1353.69 390.559C1355.75 389.77 1392.52 365.621 1410.19 322.872C1431.85 270.499 1443.06 243.713 1445.5 243L1437.63 836.279H0V343.713C32.1763 343.713 19.49 328.713 35.123 368.213C38.314 376.275 35.9069 383.443 35.123 400.213C34.4972 413.603 39.123 430.213 44.7835 450.218C45.2768 464.237 32.2189 500.808 50.2888 521.529C79.6703 555.217 76.9004 544.736 76.9004 601.877C76.9004 641.936 63.1905 660.973 100.095 683.835C106.814 687.999 113.979 685.21 133.995 700.984C160.991 722.26 177.744 746.755 211.176 731.129C221.156 726.464 268.548 725.192 280.759 732.427C313.63 751.909 325.348 755.621 362.375 753.724C365.741 753.552 369.85 735.436 387.202 726.117C404.354 716.904 388.185 713.316 414.118 695.97C427.468 687.04 444.326 639.637 463.461 667.62C471.232 678.971 506.147 677.178 505.111 716.522C504.887 725.159 511.448 755.705 526.373 755.705C552.475 755.705 554.312 764.672 574.548 749.762C579.374 746.205 616.343 729.174 622.87 736.021C649.935 764.389 645.154 773.923 687.255 781.52C702.22 784.218 720.828 792.281 733.496 779.538C736.968 776.043 741.02 777.371 745.981 777.371Z" fill="#102A59"/>
<path fill-rule="evenodd" clip-rule="evenodd" d="M635.309 699.659C637.62 694.098 650.144 694.5 654.074 689.603C658.234 684.425 655.33 684.276 655.225 684.14C653.811 686.264 654.285 686.734 651.877 689.237C651.386 688.242 651.505 688.6 652.542 684.914C647.763 686.833 651.365 691.455 639.484 694.286C641.761 690.487 647.364 690.559 648.983 685.91C645.688 686.246 646.086 687.207 643.402 689.127C649.063 680.288 655.729 678.053 657.021 672.288C654.342 673.612 656.547 672.483 654.35 674.291C653.428 675.055 653.265 675.32 652.189 676.03C652.25 675.867 653.305 673.233 653.305 673.229C653.392 670.204 654.469 672.884 652.657 670.873L646.974 682.605C646.052 681.27 646.527 682.587 646.103 680.401C644.191 670.492 656.404 667.66 656.886 661.634C654.132 663.002 654.761 664.557 651.348 666.375C651.842 664.995 652.328 663.511 652.564 661.921C652.936 659.447 652.696 658.196 651.628 657.119L648.315 666.34C648.178 666.333 648.35 665.925 647.151 666.447C639.065 669.974 643.592 688.905 637.297 691.776C638.088 688.212 639.485 686.707 638.872 682.362C637.73 683.642 638.737 682.15 637.883 684.053C636.172 687.876 636.166 692.701 633.61 695.848C630.236 689.487 640.55 676.617 642.48 669.328C645.395 658.348 644.677 661.31 642.739 659.366C640.155 674.906 637.564 673.142 635.007 681.001C635.586 678.395 636.614 675.964 637.66 673.233C638.207 671.807 638.991 669.874 639.219 668.643L638.828 664.739C634.333 671.341 633.677 683.198 631.102 689.973C631.005 686.111 632.193 683.383 632.696 679.354C633.007 676.878 634.052 671.374 632.739 668.911C631.199 671.128 631.264 674.562 631.018 677.2C630.691 680.683 630.655 681.453 629.549 684.301C630.034 680.861 630.538 676.021 631.107 672.493L632.315 662.908C632.305 662.706 632.227 662.374 632.214 662.212L631.869 660.84C631.716 661.071 631.58 661.377 631.488 661.577L629.313 672.02C628.669 675.583 628.411 680.124 627.347 682.886C625.819 676.936 629.219 670.569 630.139 664.497L629.916 660.11C629.872 659.96 629.618 659.847 629.579 659.515C629.536 659.178 629.355 659.102 629.193 658.941C628.069 662.077 627.188 670.291 626.113 674.813C624.716 680.671 624.659 685.314 627.455 690.142C633.965 701.378 626.708 700.72 619.393 705.432C617.274 706.797 616.008 707.952 613.807 709.322C615.531 702.138 624.133 702.331 626.125 691.276C622.982 692.624 624.904 691.059 622.4 694.147L623.529 683.867C621.529 685.419 623.512 683.286 622.093 685.474L620.509 689.42C620.742 685.516 623.538 673.133 623.179 672.058C618.977 675.218 620.294 684.132 617.971 688.748L617.843 679.007C614.639 683.808 618.535 693.872 615.343 699.945C612.788 694.055 618.21 674.822 615.343 671.316C613.733 673.58 612.384 701.103 612.109 700.136C612.073 700.021 611.96 700.616 611.842 700.837C611.501 694.517 614.25 689.029 611.579 686.687C607.945 697.083 613.124 706.839 609.255 713.426C603.905 704.462 612.534 681.658 609.255 674.2L608.545 675.546C606.466 680.876 609.42 671.574 608.056 676.95L607.118 685.592C606.343 683.125 606.536 679.714 604.907 677.829C603.261 681.62 606.309 689.318 605.981 698.178L603.826 692.199C603.45 689.151 603.814 688.139 602.706 685.309C601.822 685.92 601.677 688.461 600.553 689.263L599.078 681.943C596.398 685.287 599.108 688.692 600.981 691.358C604.882 696.909 605.354 710.203 605.766 712.545C607.315 721.307 608.309 718.696 603.62 722.521L602.299 715.692C598.538 720.04 603.923 724.2 603.572 727.751C601.414 725.922 601.291 725.491 600.561 722.242C599.283 716.582 601.8 706.048 600.556 703.377C598.985 704.851 597.312 717.506 597.251 717.302C597.22 717.187 597.103 717.733 596.972 717.916C593.6 713.226 596.901 712.914 596.805 707.841C595.211 709.04 594.918 709.576 594.099 711.512C593.679 701.256 595.64 699.991 596.91 691.931C593.929 692.862 594.888 693.462 593.044 696.847C591.18 691.147 590.983 691.183 591.455 684.852C588.299 682.967 591.566 683.715 588.426 685.842L587.507 678.855C585.633 680.664 586.036 684.316 587.275 686.758C590.786 693.687 592.125 702.196 591.285 710.416C584.973 708.147 587.218 697.025 584.898 692.304C582.517 696.197 584.273 692.74 583.908 695.305C583.047 701.462 586.5 706.523 588.908 711.654C579.036 705.719 584.733 698.662 580.275 693.973C576.704 709.808 588.9 711.773 593.346 719.011C594.853 721.464 595.584 723.684 596.972 725.846C603.358 735.807 606.629 735.23 605.748 744.842L612.735 744.889L614.648 741.462C621.03 728.18 631.273 737.754 639.266 733.728C641.411 732.648 639.966 733.465 641.371 732.214L633.457 732.768C637.423 730.607 644.65 732.646 648.927 729.213C646.664 727.544 630.538 731.639 625.556 731.767C630.788 728.881 637.656 729.17 643.91 727.395C648.533 726.086 648.923 723.868 650.787 722.991C658.597 719.319 657.779 726.938 666.682 710.965C668.735 707.281 671.786 706.094 674.102 701.842C678.719 693.346 675.573 694.669 675.362 694.407C669.58 704.436 673.974 698.891 670.827 699.491C668.976 699.844 671.033 697.37 668.613 702.363L666.371 705.764C666.446 701.081 668.082 697.988 669.732 695.291C666.139 692.07 669.326 696.389 666.717 695.291C669.729 690.906 672.451 692.652 673.883 686.231L666.096 692.574C665.981 692.386 665.653 692.856 665.42 692.979C665.828 689.736 666.656 689.511 667.916 687.812C668.586 686.91 668.603 686.71 669.3 685.742C671.107 683.235 672.46 683.203 674.604 680.537C676.527 678.145 675.595 679.926 676.676 677.344C673.537 677.35 674.832 679.598 671.327 681.282C673.156 677.529 675.664 676.04 676.724 672.265C670.63 674.864 669.952 682.27 666.1 687.041C664.76 680.752 666.914 681.436 668.297 676.838C662.081 679.614 665.211 685.762 663.184 690.441C658.583 684.876 664.585 675.752 666.191 671.53C661.968 673.497 660.855 677.356 660.208 682.755C658.889 693.785 662.322 689.732 663.359 695.297C664.695 702.437 664.721 715.828 656.109 718.638C658.137 714.522 658.965 713.205 659.122 707.463C659.261 702.21 660.992 699.496 661.503 696.317C653.12 698.568 661.564 711.343 652.709 718.773C654.556 713.383 656.133 707.513 656.531 701.341C656.566 700.806 656.614 698.397 656.531 697.955L652.482 714.523C651.733 711.581 653.059 708.954 652.609 705.84C652.35 704.061 652.346 704.446 651.878 703.651L649.383 696.97C647.789 698.394 647.789 699.647 647.825 702.189C647.889 706.708 648.568 711.963 647.081 716C646.722 712.363 647.072 706.694 644.839 704.147C643.01 708.131 646.052 711.556 644.353 715.028C642.436 711.633 643.732 707.625 643.714 703.625C643.701 701.463 643.768 702.286 643.18 701.32C639.656 706.928 642.226 710.203 641.378 715.783C641.359 715.907 641.254 716.143 641.232 716.262C640.917 718.109 640.099 717.386 641.671 719.258C643.496 721.426 645.085 720.641 645.986 723.125C641.684 726.86 632.487 726.281 626.14 727.853C620.567 729.232 613.524 734.016 612.424 737.32C612.911 734.693 615.213 732.212 616.969 730.815C618.636 729.488 621.744 726.334 623.04 725.642C628.486 722.735 632.886 724.11 638.028 723.676C642.244 723.319 640.379 723.383 641.456 721.774L634.701 720.524C637.24 709.469 636.343 714.538 640.909 707.469C639.788 705.414 639.854 708.479 639.149 705.296C638.881 704.091 639.22 702.45 639.329 701.122L637.219 704.268C637.06 704.617 636.781 705.942 636.645 706.348C636.539 703.18 638.098 700.373 635.31 699.659L635.309 699.659ZM635.309 699.659C634.687 703.926 634.998 707.597 634.476 711.798C634.074 715.047 631.89 718.65 631.816 719.883L631.868 705.184C626.724 710.269 634.301 719.722 625.336 721.916C626.29 720.033 626.86 718.418 627.315 716.008C628.983 707.238 626.728 708.614 626.3 708.156C625.339 714.943 626.834 716.703 622.302 721.284L622.052 717.545C622.07 714.259 623.077 716.176 621.431 713.922C619.741 716.133 619.715 720.807 618.939 723.191C618.065 721.589 618.331 719.567 618.41 718.183C618.59 715.05 619.519 716.068 617.535 713.832L614.405 719.547C614.348 719.547 614.016 719.732 613.977 719.588C613.932 719.44 613.666 719.584 613.455 719.676L616.174 726.883C613.56 729.234 611.936 730.476 609.396 733.622C610.024 727.899 611.91 727.101 613.319 723.301C612.024 723.385 611.489 722.095 609.117 727.479C608.399 729.11 607.484 731.628 607.063 733.196C607.129 729.028 609.511 726.308 610.605 721.864C612.142 715.646 612.518 715.468 616.799 712.393C619.777 710.254 621.877 708.085 625.939 705.901C632.702 702.265 632.491 701.1 635.307 699.659L635.309 699.659Z" fill="#102A59"/>
<path fill-rule="evenodd" clip-rule="evenodd" d="M1125.52 666.041C1123.2 660.482 1110.68 660.883 1106.74 655.985C1102.58 650.806 1105.49 650.657 1105.59 650.522C1107.01 652.647 1106.53 653.117 1108.94 655.621C1109.43 654.626 1109.32 654.982 1108.27 651.295C1113.05 653.216 1109.45 657.837 1121.33 660.669C1119.05 656.868 1113.45 656.942 1111.83 652.294C1115.13 652.629 1114.73 653.59 1117.42 655.51C1111.76 646.671 1105.09 644.436 1103.8 638.671C1106.48 639.995 1104.27 638.865 1106.47 640.676C1107.39 641.438 1107.56 641.703 1108.63 642.412C1108.56 642.25 1107.51 639.615 1107.51 639.611C1107.42 636.587 1106.35 639.266 1108.16 637.256L1113.84 648.987C1114.76 647.653 1114.29 648.969 1114.71 646.782C1116.63 636.875 1104.42 634.043 1103.93 628.016C1106.69 629.384 1106.06 630.94 1109.47 632.756C1108.97 631.377 1108.49 629.894 1108.25 628.303C1107.88 625.83 1108.12 624.576 1109.18 623.502L1112.5 632.723C1112.64 632.716 1112.47 632.308 1113.67 632.829C1121.75 636.355 1117.23 655.287 1123.52 658.159C1122.73 654.594 1121.33 653.09 1121.94 648.744C1123.09 650.025 1122.07 648.532 1122.93 650.435C1124.65 654.258 1124.65 659.081 1127.21 662.231C1130.59 655.871 1120.27 643.001 1118.34 635.711C1115.42 624.731 1116.14 627.693 1118.09 625.749C1120.66 641.287 1123.26 639.526 1125.81 647.385C1125.23 644.779 1124.2 642.348 1123.16 639.616C1122.61 638.189 1121.82 636.256 1121.61 635.026L1121.99 631.123C1126.48 637.723 1127.14 649.581 1129.72 656.355C1129.82 652.496 1128.64 649.766 1128.11 645.737C1127.81 643.262 1126.76 637.759 1128.08 635.294C1129.62 637.51 1129.55 640.945 1129.8 643.583C1130.13 647.066 1130.16 647.835 1131.27 650.683C1130.79 647.244 1130.27 642.403 1129.72 638.877L1128.5 629.289C1128.51 629.089 1128.58 628.757 1128.6 628.594L1128.95 627.223C1129.1 627.452 1129.25 627.76 1129.33 627.96L1131.51 638.404C1132.15 641.966 1132.4 646.507 1133.47 649.269C1135 643.319 1131.6 636.951 1130.68 630.88L1130.9 626.493C1130.94 626.343 1131.2 626.23 1131.24 625.895C1131.28 625.561 1131.47 625.485 1131.62 625.323C1132.76 628.459 1133.64 636.673 1134.71 641.194C1136.1 647.053 1136.16 651.695 1133.37 656.523C1126.85 667.76 1134.11 667.102 1141.43 671.814C1143.54 673.178 1144.81 674.334 1147.01 675.704C1145.28 668.52 1136.68 668.713 1134.69 657.658C1137.84 659.005 1135.91 657.44 1138.42 660.529L1137.29 650.249C1139.29 651.801 1137.3 649.668 1138.72 651.854L1140.3 655.801C1140.08 651.898 1137.28 639.514 1137.64 638.44C1141.84 641.599 1140.52 650.514 1142.85 655.13L1142.98 645.388C1146.17 650.19 1142.28 660.254 1145.47 666.325C1148.03 660.437 1142.61 641.203 1145.47 637.697C1147.09 639.962 1148.43 667.486 1148.71 666.518C1148.74 666.401 1148.86 666.998 1148.97 667.219C1149.31 660.899 1146.57 655.411 1149.24 653.066C1152.87 663.464 1147.69 673.221 1151.57 679.808C1156.91 670.843 1148.29 648.039 1151.57 640.581L1152.27 641.927C1154.35 647.258 1151.39 637.956 1152.77 643.332L1153.7 651.975C1154.47 649.506 1154.28 646.097 1155.91 644.211C1157.56 648.003 1154.51 655.699 1154.83 664.56L1156.99 658.582C1157.37 655.533 1157 654.52 1158.12 651.691C1159 652.302 1159.14 654.843 1160.27 655.644L1161.74 648.325C1164.42 651.669 1161.7 655.074 1159.83 657.741C1155.93 663.291 1155.46 676.586 1155.04 678.928C1153.5 687.689 1152.51 685.078 1157.19 688.904L1158.52 682.074C1162.27 686.422 1156.9 690.582 1157.25 694.132C1159.4 692.304 1159.52 691.875 1160.26 688.625C1161.53 682.964 1159.02 672.429 1160.26 669.76C1161.83 671.233 1163.51 683.889 1163.55 683.685C1163.6 683.57 1163.71 684.116 1163.84 684.299C1167.22 679.608 1163.91 679.297 1164.02 674.223C1165.6 675.421 1165.89 675.958 1166.72 677.896C1167.14 667.639 1165.18 666.373 1163.91 658.315C1166.88 659.244 1165.93 659.845 1167.78 663.228C1169.65 657.53 1169.84 657.564 1169.36 651.236C1172.51 649.35 1169.25 650.096 1172.39 652.224L1173.3 645.237C1175.19 647.045 1174.78 650.698 1173.55 653.139C1170.03 660.068 1168.7 668.578 1169.54 676.797C1175.84 674.53 1173.6 663.406 1175.92 658.686C1178.31 662.578 1176.54 659.121 1176.9 661.686C1177.77 667.843 1174.32 672.905 1171.91 678.036C1181.78 672.099 1176.08 665.045 1180.53 660.356C1184.11 676.19 1171.92 678.155 1167.48 685.393C1165.96 687.846 1165.24 690.064 1163.84 692.227C1157.47 702.188 1154.18 701.61 1155.07 711.222L1148.08 711.269L1146.16 707.843C1139.79 694.56 1129.54 704.135 1121.55 700.109C1119.4 699.029 1120.86 699.845 1119.44 698.593L1127.35 699.149C1123.4 696.987 1116.17 699.027 1111.89 695.594C1114.16 693.924 1130.27 698.019 1135.26 698.147C1130.03 695.262 1123.15 695.551 1116.9 693.775C1112.28 692.465 1111.9 690.249 1110.02 689.372C1102.22 685.701 1103.04 693.319 1094.13 677.346C1092.08 673.661 1089.03 672.475 1086.72 668.223C1082.09 659.726 1085.24 661.048 1085.46 660.785C1091.23 670.816 1086.83 665.271 1089.98 665.872C1091.84 666.225 1089.78 663.752 1092.2 668.744L1094.44 672.145C1094.37 667.461 1092.73 664.37 1091.08 661.671C1094.68 658.451 1091.48 662.768 1094.1 661.671C1091.09 657.284 1088.36 659.031 1086.94 652.611L1094.73 658.954C1094.83 658.767 1095.17 659.236 1095.4 659.36C1094.99 656.116 1094.16 655.892 1092.9 654.193C1092.23 653.289 1092.21 653.09 1091.51 652.122C1089.71 649.614 1088.36 649.583 1086.21 646.916C1084.29 644.526 1085.23 646.304 1084.15 643.725C1087.28 643.729 1085.98 645.979 1089.48 647.662C1087.67 643.909 1085.15 642.42 1084.09 638.644C1090.19 641.245 1090.86 648.65 1094.72 653.421C1096.06 647.132 1093.9 647.815 1092.52 643.218C1098.73 645.994 1095.61 652.143 1097.63 656.82C1102.24 651.256 1096.23 642.134 1094.63 637.909C1098.85 639.878 1099.96 643.736 1100.61 649.134C1101.93 660.166 1098.49 656.112 1097.45 661.677C1096.12 668.817 1096.09 682.208 1104.7 685.018C1102.67 680.902 1101.85 679.584 1101.7 673.843C1101.55 668.591 1099.83 665.877 1099.31 662.697C1107.69 664.949 1099.25 677.724 1108.11 685.153C1106.25 679.763 1104.69 673.892 1104.28 667.721C1104.25 667.187 1104.21 664.776 1104.28 664.336L1108.34 680.903C1109.09 677.962 1107.76 675.333 1108.2 672.222C1108.46 670.441 1108.47 670.826 1108.94 670.03L1111.44 663.351C1113.03 664.775 1113.03 666.027 1113 668.569C1112.93 673.089 1112.24 678.342 1113.73 682.381C1114.1 678.742 1113.74 673.074 1115.98 670.526C1117.8 674.51 1114.76 677.936 1116.46 681.407C1118.37 678.012 1117.08 674.005 1117.1 670.006C1117.12 667.842 1117.05 668.667 1117.64 667.7C1121.16 673.307 1118.6 676.583 1119.43 682.163C1119.45 682.286 1119.57 682.522 1119.58 682.642C1119.9 684.487 1120.72 683.767 1119.14 685.638C1117.33 687.807 1115.73 687.022 1114.83 689.506C1119.13 693.241 1128.33 692.66 1134.67 694.233C1140.26 695.613 1147.3 700.397 1148.39 703.699C1147.91 701.073 1145.6 698.592 1143.85 697.196C1142.18 695.868 1139.06 692.714 1137.77 692.023C1132.33 689.115 1127.93 690.49 1122.8 690.055C1118.57 689.701 1120.45 689.763 1119.36 688.153L1126.12 686.903C1123.58 675.85 1124.47 680.918 1119.91 673.85C1121.04 671.793 1120.97 674.858 1121.67 671.676C1121.94 670.472 1121.6 668.83 1121.48 667.503L1123.6 670.647C1123.75 670.995 1124.03 672.322 1124.18 672.726C1124.28 669.56 1122.72 666.753 1125.51 666.039L1125.52 666.041ZM1125.52 666.041C1126.13 670.307 1125.82 673.979 1126.34 678.18C1126.74 681.43 1128.93 685.032 1129 686.264L1128.95 671.565C1134.1 676.651 1126.52 686.106 1135.48 688.298C1134.52 686.415 1133.96 684.799 1133.51 682.391C1131.82 673.621 1134.08 674.997 1134.52 674.539C1135.48 681.323 1133.98 683.086 1138.52 687.665L1138.76 683.928C1138.74 680.641 1137.74 682.557 1139.39 680.304C1141.08 682.514 1141.09 687.189 1141.88 689.574C1142.75 687.971 1142.49 685.948 1142.41 684.564C1142.23 681.431 1141.29 682.449 1143.29 680.216L1146.41 685.929C1146.46 685.929 1146.8 686.113 1146.84 685.969C1146.89 685.821 1147.15 685.966 1147.37 686.058L1144.64 693.265C1147.25 695.616 1148.87 696.858 1151.42 700.003C1150.8 694.281 1148.9 693.483 1147.5 689.683C1148.8 689.766 1149.33 688.477 1151.7 693.862C1152.41 695.49 1153.34 698.01 1153.75 699.575C1153.68 695.409 1151.31 692.689 1150.21 688.245C1148.67 682.026 1148.29 681.849 1144.01 678.775C1141.04 676.635 1138.94 674.466 1134.86 672.282C1128.11 668.647 1128.31 667.481 1125.52 666.041Z" fill="#102A59"/>
<path fill-rule="evenodd" clip-rule="evenodd" d="M269.944 691.928C272.257 686.366 284.78 686.769 288.713 681.873C292.871 676.694 289.966 676.546 289.865 676.409C288.448 678.533 288.919 679.003 286.514 681.507C286.026 680.512 286.142 680.869 287.18 677.183C282.401 679.103 286.001 683.724 274.122 686.556C276.398 682.755 282.004 682.828 283.619 678.18C280.324 678.515 280.721 679.477 278.037 681.396C283.7 672.559 290.366 670.323 291.657 664.558C288.979 665.882 291.186 664.752 288.99 666.562C288.063 667.325 287.901 667.591 286.826 668.3C286.887 668.137 287.942 665.501 287.942 665.499C288.029 662.473 289.104 665.154 287.294 663.142L281.614 674.875C280.689 673.539 281.163 674.856 280.743 672.669C278.829 662.761 291.039 659.93 291.523 653.902C288.768 655.271 289.399 656.826 285.984 658.642C286.48 657.264 286.963 655.778 287.203 654.19C287.575 651.716 287.335 650.462 286.266 649.389L282.949 658.608C282.817 658.603 282.983 658.193 281.786 658.715C273.702 662.241 278.227 681.172 271.932 684.045C272.724 680.48 274.121 678.975 273.508 674.629C272.364 675.911 273.375 674.417 272.521 676.321C270.807 680.144 270.804 684.967 268.246 688.116C264.87 681.756 275.184 668.885 277.118 661.597C280.03 650.617 279.315 653.579 277.375 651.635C274.793 667.173 272.197 665.41 269.646 673.27C270.224 670.664 271.253 668.234 272.299 665.5C272.845 664.075 273.629 662.144 273.855 660.911L273.466 657.007C268.97 663.607 268.312 675.465 265.74 682.24C265.642 678.38 266.828 675.65 267.333 671.621C267.643 669.145 268.693 663.643 267.378 661.178C265.834 663.396 265.904 666.83 265.654 669.468C265.327 672.95 265.291 673.72 264.187 676.568C264.671 673.128 265.176 668.288 265.743 664.76L266.953 655.175C266.942 654.973 266.866 654.641 266.85 654.48L266.507 653.107C266.352 653.337 266.214 653.644 266.126 653.845L263.947 664.288C263.308 667.85 263.048 672.391 261.985 675.154C260.458 669.204 263.859 662.836 264.777 656.764L264.555 652.378C264.508 652.228 264.256 652.114 264.215 651.78C264.174 651.444 263.994 651.37 263.832 651.207C262.706 654.343 261.825 662.558 260.749 667.081C259.353 672.938 259.295 677.581 262.091 682.407C268.602 693.645 261.346 692.986 254.029 697.699C251.912 699.064 250.646 700.22 248.444 701.589C250.171 694.405 258.772 694.598 260.764 683.544C257.621 684.891 259.543 683.326 257.037 686.414L258.167 676.134C256.166 677.685 258.147 675.553 256.732 677.74L255.148 681.687C255.376 677.784 258.173 665.399 257.817 664.326C253.611 667.485 254.93 676.399 252.607 681.015L252.48 671.273C249.278 676.075 253.171 686.139 249.981 692.211C247.424 686.322 252.85 667.089 249.981 663.582C248.369 665.847 247.021 693.371 246.744 692.402C246.711 692.288 246.598 692.883 246.48 693.104C246.14 686.785 248.886 681.296 246.217 678.953C242.583 689.351 247.762 699.106 243.893 705.694C238.541 696.73 247.169 673.926 243.893 666.468L243.181 667.814C241.104 673.143 244.06 663.842 242.691 669.217L241.755 677.861C240.982 675.392 241.173 671.983 239.543 670.097C237.898 673.888 240.946 681.586 240.618 690.445L238.464 684.467C238.088 681.418 238.453 680.405 237.342 677.578C236.457 678.187 236.316 680.73 235.187 681.531L233.713 674.209C231.033 677.555 233.745 680.959 235.618 683.625C239.517 689.176 239.99 702.471 240.402 704.812C241.952 713.574 242.946 710.964 238.258 714.79L236.933 707.96C233.177 712.308 238.557 716.468 238.207 720.019C236.052 718.19 235.929 717.76 235.197 714.509C233.921 708.85 236.437 698.316 235.193 695.645C233.621 697.118 231.947 709.775 231.889 709.569C231.855 709.455 231.738 710 231.608 710.185C228.235 705.495 231.539 705.183 231.441 700.109C229.846 701.307 229.554 701.844 228.734 703.781C228.314 693.525 230.276 692.258 231.544 684.201C228.566 685.13 229.524 685.73 227.68 689.114C225.815 683.415 225.618 683.449 226.095 677.121C222.937 675.235 226.203 675.981 223.065 678.109L222.145 671.122C220.269 672.932 220.674 676.583 221.911 679.025C225.423 685.955 226.761 694.464 225.92 702.683C219.611 700.416 221.854 689.292 219.537 684.571C217.154 688.463 218.907 685.007 218.546 687.571C217.682 693.729 221.137 698.79 223.546 703.922C213.672 697.985 219.37 690.93 214.911 686.241C211.342 702.075 223.538 704.04 227.982 711.278C229.49 713.732 230.219 715.949 231.607 718.115C237.993 728.074 241.265 727.495 240.384 737.108L247.371 737.156L249.285 733.729C255.666 720.447 265.912 730.021 273.905 725.995C276.049 724.915 274.601 725.732 276.008 724.481L268.095 725.035C272.058 722.873 279.289 724.914 283.566 721.482C281.3 719.812 265.174 723.906 260.192 724.035C265.425 721.149 272.29 721.438 278.55 719.663C283.168 718.354 283.559 716.134 285.424 715.259C293.232 711.589 292.413 719.208 301.318 703.233C303.372 699.549 306.424 698.362 308.737 694.111C313.359 685.614 310.211 686.936 309.998 686.675C304.215 696.704 308.613 691.159 305.464 691.76C303.611 692.112 305.67 689.64 303.251 694.632L301.009 698.033C301.083 693.35 302.722 690.257 304.37 687.56C300.775 684.339 303.963 688.657 301.354 687.56C304.366 683.174 307.087 684.92 308.518 678.499L300.731 684.842C300.617 684.655 300.288 685.125 300.058 685.249C300.465 682.004 301.293 681.779 302.552 680.08C303.223 679.178 303.242 678.978 303.939 678.011C305.742 675.503 307.097 675.471 309.241 672.804C311.162 670.414 310.231 672.194 311.312 669.614C308.175 669.619 309.472 671.867 305.965 673.55C307.794 669.797 310.303 668.308 311.363 664.535C305.267 667.132 304.59 674.539 300.735 679.311C299.399 673.02 301.552 673.705 302.934 669.106C296.717 671.882 299.846 678.032 297.821 682.709C293.222 677.145 299.222 668.022 300.828 663.798C296.605 665.766 295.491 669.624 294.846 675.024C293.525 686.055 296.958 682.001 297.997 687.565C299.329 694.706 299.358 708.097 290.745 710.908C292.776 706.791 293.601 705.474 293.757 699.733C293.9 694.48 295.63 691.766 296.141 688.586C287.759 690.837 296.2 703.613 287.344 711.042C289.196 705.651 290.771 699.781 291.166 693.609C291.2 693.076 291.25 690.664 291.168 690.224L287.117 706.793C286.369 703.85 287.696 701.222 287.246 698.111C286.988 696.329 286.982 696.715 286.514 695.92L284.017 689.239C282.426 690.664 282.425 691.917 282.46 694.459C282.524 698.978 283.206 704.231 281.716 708.269C281.357 704.631 281.708 698.964 279.475 696.414C277.644 700.4 280.689 703.824 278.99 707.296C277.073 703.902 278.369 699.893 278.348 695.894C278.336 693.731 278.404 694.555 277.813 693.588C274.29 699.195 276.86 702.472 276.013 708.053C275.995 708.174 275.889 708.411 275.869 708.531C275.553 710.376 274.732 709.655 276.307 711.526C278.132 713.695 279.721 712.909 280.623 715.394C276.317 719.128 267.12 718.549 260.773 720.121C255.2 721.5 248.161 726.285 247.061 729.588C247.546 726.961 249.849 724.48 251.604 723.083C253.27 721.756 256.381 718.602 257.675 717.91C263.119 715.002 267.522 716.378 272.662 715.945C276.881 715.588 275.013 715.651 276.089 714.042L269.335 712.792C271.876 701.738 270.978 706.806 275.544 699.737C274.423 697.682 274.488 700.747 273.782 697.565C273.516 696.359 273.854 694.718 273.966 693.39L271.856 696.535C271.697 696.884 271.414 698.211 271.281 698.615C271.174 695.448 272.734 692.641 269.944 691.926V691.928ZM269.944 691.928C269.324 696.195 269.633 699.865 269.111 704.068C268.709 707.316 266.525 710.919 266.452 712.151L266.507 697.453C261.363 702.539 268.938 711.991 259.972 714.185C260.927 712.302 261.496 710.687 261.953 708.276C263.621 699.507 261.366 700.883 260.938 700.425C259.978 707.211 261.47 708.972 256.939 713.552L256.692 709.814C256.708 706.528 257.717 708.445 256.069 706.192C254.379 708.401 254.354 713.075 253.577 715.46C252.702 713.858 252.967 711.834 253.048 710.451C253.226 707.318 254.156 708.336 252.172 706.101L249.046 711.814C248.988 711.815 248.656 712 248.612 711.857C248.569 711.709 248.304 711.852 248.093 711.945L250.815 719.151C248.198 721.502 246.575 722.746 244.034 725.891C244.661 720.168 246.549 719.371 247.96 715.569C246.66 715.654 246.13 714.364 243.755 719.748C243.036 721.377 242.124 723.897 241.702 725.464C241.77 721.296 244.149 718.576 245.244 714.132C246.778 707.913 247.156 707.736 251.437 704.661C254.415 702.522 256.513 700.353 260.578 698.168C267.342 694.534 267.131 693.368 269.943 691.928H269.944Z" fill="#102A59"/>
<path fill-rule="evenodd" clip-rule="evenodd" d="M961.038 724.618C962.818 724.913 964.688 725.649 965.656 725.785C968.063 726.123 967.555 725.438 970.388 725.535C970.764 726.057 971.382 724.88 970.847 727.41C970.807 727.595 970.375 728.451 970.26 728.66L973.263 727.723C974.462 728.495 973.57 727.48 974.068 729.328C979.155 725.861 985.019 727.513 989.754 729.312C989.209 725.256 989.573 728.515 987.115 725.536C990.223 725.624 997.111 729.267 998.709 728.332C997.36 727.286 995.159 726.335 993.801 725.489L1000.01 722.594L997.695 721.822C997.188 721.688 996.174 721.562 995.629 721.416C996.528 721.222 998.909 720.812 999.752 720.551C1001.84 719.91 1000.02 720.654 1001.48 719.85C1003.14 718.937 1001.82 719.889 1003.05 718.533L994.633 719.662C997.695 717.177 1001.81 716.233 1005.22 713.131C1003.1 712.423 1003.67 714.581 1002.52 712.285C1000.69 708.685 1004.07 713.037 1002.62 709.67L997.025 712.571C998.212 709.833 998.039 708.773 999.924 706.265C1001.46 704.206 1003.36 702.419 1003.14 699.912C1000.49 700.943 998.708 705.265 996.825 706.679L994.882 707.336C992.261 708.319 993.658 709.12 990.3 711.955C991.132 709.112 992.136 706.777 993.677 704.286C994.566 702.857 996.643 699.851 996.441 698.18L995.198 698.129C992.567 699.041 994.862 698.076 993.811 699.306C991.946 701.496 989.353 704.888 988.233 707.686C988.176 707.54 988.128 707.316 988.109 707.229C988.09 707.143 988.022 706.881 987.994 706.773L987.841 705.842C987.448 702.436 988.501 701.649 988.932 699.42C989.582 696 988.789 697.205 988.826 694.756C988.846 693.44 989.323 692.022 989.429 690.562C987.382 690.507 988.185 689.491 987.258 693.565C986.472 697.01 985.507 703.132 984.119 705.928C981.145 694.031 983.871 702.97 980.427 694.567C979.653 692.693 980.303 693.899 979.71 693.131C977.194 699.594 980.924 704.245 981.107 711.882C979.71 709.134 980.35 707.583 978.494 704.479L977.615 703.171C976.993 702.294 977.136 702.503 976.734 701.998C976.677 701.93 976.467 701.859 976.429 701.661C976.39 701.467 976.247 701.427 976.122 701.34C974.887 704.075 977.069 707.832 977.203 710.671L973.854 705.53C968.894 701.072 971.491 700.551 967.52 696.939C966.088 700.259 968.759 702.66 969.835 706.512C968.203 705.556 969.542 706.476 968.37 705.367C968.123 705.136 967.295 704.139 967.288 704.128C965.212 701.995 967.616 702.94 964.859 702.642C966.131 706.749 967.69 707.36 969.142 710.671C968.972 710.555 968.749 710.41 968.628 710.327L967.165 709.332C964.412 707.304 961.299 702.366 958.449 701.923C959.203 704.032 961.526 706.658 962.682 708.783C966.215 715.276 964.197 711.115 967.56 715.291C962.95 713.028 958.681 709.246 955.863 707.858C956.48 711.131 957.863 712.141 960.547 713.228L957.11 714.443C958.651 715.354 960.752 715.552 961.987 716.724C963.409 718.081 961.803 719.087 964.95 719.525L957.127 719.131L958.463 720.669C959.71 721.679 961.867 721.914 963.623 722.157C966.123 722.501 968.412 722.214 970.401 723.006C966.399 723.419 964.101 722.76 961.037 724.618L961.038 724.618Z" fill="#102A59"/>
<path fill-rule="evenodd" clip-rule="evenodd" d="M855.467 730.811C856.719 731.019 858.028 731.535 858.711 731.63C860.401 731.869 860.046 731.388 862.034 731.455C862.3 731.823 862.733 730.995 862.358 732.773C862.331 732.903 862.025 733.504 861.945 733.652L864.054 732.993C864.896 733.534 864.274 732.822 864.62 734.121C868.192 731.684 872.312 732.846 875.648 734.109C875.258 731.26 875.512 733.549 873.787 731.455C875.972 731.519 880.808 734.078 881.933 733.421C880.987 732.687 879.443 732.019 878.483 731.423L882.848 729.39L881.219 728.847C880.864 728.752 880.151 728.664 879.77 728.562C880.4 728.426 882.069 728.136 882.664 727.954C884.131 727.504 882.856 728.027 883.881 727.461C885.041 726.821 884.117 727.489 884.984 726.537L879.066 727.33C881.224 725.584 884.114 724.921 886.507 722.742C885.019 722.244 885.422 723.76 884.606 722.147C883.325 719.617 885.693 722.676 884.678 720.311L880.751 722.348C881.582 720.424 881.464 719.679 882.782 717.919C883.868 716.472 885.198 715.216 885.041 713.454C883.184 714.179 881.929 717.215 880.611 718.209L879.24 718.67C877.406 719.362 878.383 719.923 876.027 721.916C876.61 719.918 877.314 718.278 878.4 716.527C879.022 715.522 880.479 713.411 880.334 712.238L879.468 712.202C877.621 712.842 879.232 712.164 878.491 713.03C877.179 714.567 875.357 716.951 874.574 718.916C874.53 718.815 874.499 718.657 874.487 718.595C874.473 718.535 874.422 718.35 874.408 718.274L874.299 717.62C874.021 715.228 874.762 714.675 875.059 713.109C875.524 710.706 874.962 711.553 874.985 709.831C874.998 708.908 875.34 707.911 875.418 706.885C873.974 706.846 874.535 706.132 873.882 708.994C873.33 711.414 872.656 715.716 871.68 717.682C869.592 709.322 871.51 715.602 869.084 709.697C868.546 708.381 869.001 709.228 868.585 708.69C866.812 713.23 869.438 716.498 869.561 721.864C868.58 719.933 869.036 718.844 867.732 716.663L867.115 715.744C866.677 715.129 866.774 715.275 866.493 714.92C866.454 714.872 866.31 714.823 866.279 714.684C866.252 714.547 866.152 714.519 866.065 714.458C865.197 716.381 866.73 719.019 866.826 721.013L864.471 717.402C860.987 714.27 862.813 713.904 860.018 711.366C859.017 713.699 860.889 715.386 861.646 718.092C860.501 717.419 861.442 718.067 860.617 717.288C860.443 717.125 859.861 716.424 859.857 716.418C858.399 714.918 860.089 715.583 858.15 715.373C859.042 718.258 860.142 718.689 861.161 721.014C861.043 720.932 860.885 720.831 860.798 720.772L859.774 720.074C857.839 718.649 855.651 715.179 853.65 714.867C854.179 716.349 855.808 718.194 856.622 719.687C859.104 724.25 857.685 721.325 860.051 724.259C856.81 722.67 853.811 720.014 851.828 719.038C852.262 721.339 853.234 722.047 855.121 722.81L852.708 723.665C853.789 724.305 855.265 724.444 856.131 725.267C857.134 726.221 856.004 726.927 858.216 727.235L852.717 726.959L853.654 728.039C854.533 728.749 856.049 728.914 857.283 729.085C859.038 729.326 860.649 729.123 862.042 729.681C859.235 729.971 857.62 729.507 855.466 730.814L855.467 730.811Z" fill="#102A59"/>
<path fill-rule="evenodd" clip-rule="evenodd" d="M1254.93 641.623C1252.77 640.618 1254.7 641.752 1253.36 640.034C1252.1 638.425 1253.73 639.646 1251.81 638.168C1250.7 638.916 1251.11 638.474 1250.24 639.343C1250.47 643.591 1258.08 642.126 1255.51 657.247C1251.08 655.964 1255.06 652.697 1253.68 649.469L1251.52 649.221C1251.43 652.225 1252.78 651.365 1251.12 653.827C1246.85 652.246 1250.14 649.615 1247.09 646.286C1246.34 645.463 1246.86 646.033 1246.23 645.293L1242.6 644.77C1243.75 647.421 1245.63 646.283 1246.46 651.71C1243.07 650.506 1242.78 648.261 1241.78 652.932L1248.48 654.667C1245.98 655.879 1246.38 653.828 1243.85 655.735C1244.88 658.105 1243.56 656.988 1246.83 656.371L1247.14 658.613C1248.8 657.878 1248.04 658.23 1248.62 657.733C1248.74 657.629 1249.2 657.226 1249.31 657.119C1249.4 657.043 1249.56 656.872 1249.62 656.808C1249.69 656.746 1249.84 656.589 1249.95 656.494C1253.76 659.18 1254.11 659.005 1255.14 665.233L1254.37 665.343C1254.23 665.383 1253.07 665.339 1252.43 666.479C1254.09 670.107 1254.62 665.306 1255.11 670.138C1253.66 669.498 1251.29 668.567 1250.18 667.645C1249.81 662.246 1249.99 664.403 1251.31 660.766C1249.33 660.175 1247.19 660.551 1245.45 661.244C1246.44 666.29 1247.97 660.185 1248.36 666.635C1239.93 662.627 1246.1 660.595 1241.85 657.116C1240.15 660.091 1242.45 658.781 1241.22 661.271C1239.67 659.704 1240.5 659.264 1238.46 658.726C1236.71 661.042 1240.68 663.004 1241.64 665.033C1239.21 664.472 1240.11 663.398 1238.09 663.987C1238.67 666.416 1238.82 666.315 1242.53 666.898C1246.62 667.544 1245.64 667.623 1248.12 669.549C1252.11 672.659 1255.24 671.505 1256.46 677.991C1250.31 676.263 1255.11 673.625 1251.18 672.714C1250.06 675.144 1251.54 673.562 1251.14 676.872C1249.84 676.634 1248.65 676.482 1247.82 677.687C1249.42 678.754 1252.15 678.611 1253.85 679.432C1256.88 680.909 1254.37 682.267 1255.35 684.84C1257.48 685.38 1260.44 685.473 1262.6 684.831C1262.66 684.673 1262.7 684.249 1262.72 684.337L1262.78 682.35C1262.61 680.437 1262.27 681.422 1262.46 678.778C1270.88 671.891 1273.75 680.621 1275.47 681.77C1275.57 681.602 1275.66 681.129 1275.7 681.226L1276.72 678.452C1277.98 679.337 1278.32 679.943 1279.47 679.671C1279.94 676.587 1279.16 678.722 1277.34 675.865C1274.28 676.391 1275 677.102 1271.71 675.867C1271.42 669.139 1277.58 673.787 1279.83 673.922C1282.39 669.743 1277.1 673.595 1279.94 670.837C1281.03 669.781 1283.43 670.816 1285.09 671.126C1285.03 668.553 1284.51 670.369 1285.64 668.347C1284.51 667.723 1283.46 668.193 1282.41 667.102L1284.54 664.644L1282.29 663.408C1279.88 666.245 1280.8 668.023 1276.3 669.362C1276.04 665.593 1277.43 668.302 1277.88 664.676C1274.05 664.659 1275.84 663.6 1274.15 667.005C1273.14 669.011 1273.26 669.179 1271.12 670.253C1269.9 668.093 1270.73 668.643 1271.63 666.338L1268.67 666.605L1268.28 672.646C1265.19 672.018 1267.02 669.786 1265.04 667.967C1263.76 669.759 1264.32 668.867 1264.83 671.461C1262.54 672.468 1263.81 670.218 1263.08 672.556C1262.82 673.394 1264.91 673.749 1261.4 673.71C1259.82 668.929 1266.28 664.281 1269.26 662.595C1272.45 661.959 1271.71 665.452 1281.67 660.252C1280.39 657.617 1279.45 658.808 1277.66 659.92C1276.67 659.5 1277.23 658.748 1275.47 658.427C1275.01 659.599 1275.89 662.678 1272.65 660.252C1275.97 656.259 1275.48 656.591 1282.33 656.758C1282.72 655.719 1283.19 654.199 1283.44 652.931C1278.51 652.643 1284.14 654.018 1279.37 653.942C1279.09 651.589 1279.87 651.774 1281 650.126L1278.53 648.714C1278.05 650.565 1277.79 656.076 1275.21 654.802C1272.96 653.686 1276.84 649.71 1277.78 648.857C1276.85 646.357 1278 649.623 1276.75 647.461C1276.71 647.397 1276.62 647.235 1276.59 647.17L1273.53 646.561C1274.46 650.143 1276.2 647.506 1274.14 651.466C1272.77 651.189 1273.62 651.199 1272.59 650.689C1271.02 649.915 1273.31 650.16 1270.69 649.971C1270.6 652.159 1271.82 653.238 1271.73 655.342C1271.57 658.981 1270.57 657.437 1268.38 657.504C1268.19 658.689 1269.39 660.656 1264.38 662.582C1264.65 660.27 1265.25 659.322 1266.48 657.478C1267.57 655.819 1269.02 653.771 1268 651.937C1264.37 652.402 1266.23 651.917 1265.11 655.351L1263.8 655.284C1262.89 655.272 1264.47 654.593 1261.97 655.506C1262.48 657.787 1263.31 657.67 1262.19 660.615C1260.89 664.06 1261.77 664.264 1259.28 665.969C1258.68 664.778 1258.08 661.168 1258.16 659.598C1258.44 654.918 1265.23 649.75 1269.87 648.895L1270.84 646.864C1272.54 645.361 1272.35 647.549 1272.69 644.92C1270.84 643.437 1271.82 644.334 1269.13 645.284C1269.59 640.598 1271.42 643.173 1272.8 639.688L1270.47 638.697C1266.28 642.191 1268.05 645.377 1265.51 647.19C1263.74 644.693 1266.84 641.237 1265.51 638.511L1263.65 638.271C1262.83 640.376 1264.32 639.966 1262.94 641.427C1262.67 641.709 1262.47 641.196 1261.99 642.191C1263.71 646.334 1262.84 650.088 1258.69 653.182C1258.68 644.993 1264.12 639.048 1259.06 637.691C1258.19 641.449 1259.82 642.989 1257.02 643.297C1257.22 640.573 1257.46 638.958 1256.74 636.188C1256.15 633.859 1257.85 634.502 1255.55 633.338C1254.11 634.285 1254.98 632.741 1254.5 634.824C1253.89 637.432 1255.77 638.884 1254.93 641.621L1254.93 641.623Z" fill="#102A59"/>
<path fill-rule="evenodd" clip-rule="evenodd" d="M108.521 626.893C105.734 627.328 101.972 626.131 101.522 622.241C101.066 618.312 103.412 618.515 103.67 615.546C103.85 613.472 104.074 615.214 103.188 613.835C100.101 614.493 101.778 614.104 100.372 616.179L99.8044 617.423C97.549 614.166 100.813 614.774 97.2673 611.591C93.8172 615.905 98.6739 621.527 100.281 628.52C111.541 630.789 109.742 643.25 107.624 651.942C103.349 648.958 105.737 647.405 104.855 641.864C104.284 638.275 103.762 639.936 103.383 636.731C103.197 635.155 103.636 634.398 103.354 632.223C100.005 633.21 99.5205 635.561 97.9802 638.433C99.0655 640.136 100.212 639.944 101.581 641.327L99.4179 642.253C99.337 642.079 99.0872 642.526 98.9199 642.661C102.395 645.595 100.467 642.125 102.44 645.199C98.093 648.927 101.34 643.437 96.3739 645.709C96.3569 651.215 97.6073 647.958 101.68 649.284C104.715 654.4 105.577 655.497 109.611 659.083C114.102 663.077 115.725 662.202 117.149 669.727C116.984 669.805 116.712 669.792 116.609 669.809L113.104 670.573C117.638 677.995 118.238 664.684 119.822 688.942C116.645 688.155 116.612 687.362 117.34 684.033C115.418 683.42 115.592 683.717 113.659 684.561L114.761 679.942C111.658 680.217 113.55 679.336 112 681.204L111.896 676.116C104.045 679.301 116.924 672.67 110.194 677.512C109.703 677.864 109.673 679.706 107.625 676.452C104.155 670.937 106.149 668.423 105.656 665.675C105.248 663.399 104.249 662.071 102.032 661.133C101.907 672.986 106.468 680.548 113.621 688.045L119.859 693.31C121.405 696.928 116.59 706.51 116.553 711.389C116.528 714.887 122.829 713.839 125.179 712.838C126.138 709.907 123.498 710.162 123.413 705.27C123.377 703.157 124.036 698.163 124.23 695.682C124.879 695.291 130.001 691.921 131.002 691.646C135.77 690.346 133.528 696.126 136.726 690.719C134.475 687.883 133.521 688.368 129.786 688.848C128.648 681.684 130.831 688.241 130.729 682.517C122.104 683.434 130.664 685.899 125.18 691.716C122.655 688.308 123.545 681.021 125.718 677.869C129.178 672.847 134.821 673.592 135.047 669.727C133.137 668.326 132.541 669.606 130.502 670.349C131.57 662.814 133.022 664.722 137.512 661.269C135.741 657.387 136.14 660.577 133.926 659.655C135.869 657.751 135.811 658.281 138.559 657.138C137.064 653.461 138.497 656.265 135.654 654.502C136.922 653.375 138.683 653.39 139.039 652.058C139.114 651.777 139.369 651.77 139.497 651.595C138.552 650.217 137.277 650.001 136.213 649.428C137.371 639.864 138.968 641.464 145.56 638.433C145.123 634.051 146.202 637.34 142.977 635.895C144.178 633.371 145.253 633.519 144.634 631.548C141.702 630.513 142.318 632.099 140.751 635.409C139.03 639.045 138.466 638.063 137.436 639.591L137.327 628.002L141.113 626.591C139.746 622.415 139.917 627.028 138.713 622.05C141.697 619.555 140.859 621.874 141.312 617.925L138.713 616.761C137.611 619.194 136.572 621.849 136.758 624.814C134.207 623.662 136.304 623.725 134.032 623.031C133.928 622.999 133.61 622.987 133.524 622.968L132.46 623.065C131.154 627.442 132.67 623.507 134.628 627.437C134.017 629.055 133.624 628.649 131.665 629.974L134.921 632.512L131.88 635.049C133.841 636.483 134.698 636.652 134.655 640.072L131.102 658.572C129.785 654.914 128.847 649.29 128.878 645.199C132.16 642.174 130.819 646.051 132.533 642.661C131.632 639.898 133.011 640.745 128.228 641.537C128.383 641.312 128.616 641.048 128.716 640.874C128.812 640.711 129.052 640.423 129.148 640.227C130.53 637.444 129.471 637.579 128.564 636.668C123.132 639.044 125.878 643.184 126.267 649.597C123.261 647.835 125.166 646.137 121.502 645.117C120.673 648.791 122.933 650.304 125.048 652.11C131.371 657.509 129.529 670.44 122.718 675.047L118.502 662.34C120.515 659.522 120.989 661.564 121.695 658.493L118.699 657.903C120.549 655.961 120.72 657.191 121.441 654.865C119.747 653.811 118.769 654.448 117.31 653.657C118.001 649.664 119.705 647.741 120.188 643.494C120.698 639.006 119.169 635.81 119.54 632.629C119.942 629.17 122.322 628.076 124.325 625.754C128.617 620.782 125.989 624.015 131.657 621.222C130.157 615.912 128.838 618.962 126.058 618.877C124.465 618.828 126.274 617.571 123.502 618.922C122.664 621.879 124.136 615.496 123.763 620.938C123.678 622.177 124.641 621.297 123.217 622.17C120.674 623.728 123.934 619.445 120.92 623.109C119.026 625.412 120.247 623.298 118.157 624.726C116.321 625.983 117.753 626.297 117.624 627.262C116.682 634.354 117.178 633.244 117.307 640.19C117.461 648.555 115.93 645.326 113.538 647.737C114.082 652.066 114.496 648.768 114.928 658.6C104.706 653.33 116.739 650.731 109.225 629.974C110.722 628.291 110.4 628.684 111.636 626.484C112.905 624.225 112.789 624.953 112.718 622.877C112.577 618.771 114.244 617.804 109.06 617.937L108.521 626.893H108.521Z" fill="#102A59"/>
<path fill-rule="evenodd" clip-rule="evenodd" d="M759.882 739.064C758.201 738.283 759.712 739.163 758.665 737.827C757.68 736.576 758.959 737.525 757.462 736.374C756.607 736.959 756.91 736.614 756.24 737.289C756.419 740.596 762.338 739.455 760.333 751.219C756.893 750.22 759.992 747.678 758.915 745.167L757.231 744.974C757.159 747.311 758.211 746.641 756.919 748.557C753.609 747.327 756.158 745.28 753.789 742.69C753.206 742.052 753.614 742.494 753.111 741.918L750.305 741.512C751.193 743.574 752.656 742.689 753.303 746.911C750.664 745.975 750.437 744.227 749.661 747.862L754.87 749.211C752.931 750.154 753.234 748.558 751.268 750.041C752.069 751.886 751.045 751.017 753.588 750.536L753.829 752.279C755.115 751.71 754.529 751.983 754.985 751.595C755.081 751.515 755.427 751.201 755.519 751.12C755.585 751.058 755.716 750.925 755.769 750.876C755.821 750.827 755.921 750.706 756.009 750.632C758.973 752.722 759.252 752.586 760.046 757.431L759.446 757.516C759.34 757.548 758.435 757.513 757.949 758.4C759.236 761.223 759.642 757.488 760.023 761.247C758.898 760.749 757.059 760.025 756.192 759.307C755.904 755.107 756.048 756.784 757.068 753.956C755.536 753.497 753.872 753.788 752.516 754.328C753.278 758.253 754.481 753.503 754.779 758.521C748.217 755.403 753.02 753.822 749.709 751.116C748.401 753.43 750.173 752.41 749.228 754.349C748.016 753.129 748.667 752.787 747.07 752.368C745.717 754.17 748.794 755.696 749.543 757.275C747.657 756.838 748.362 756.003 746.79 756.463C747.237 758.352 747.355 758.272 750.236 758.727C753.417 759.228 752.659 759.29 754.586 760.789C757.693 763.207 760.132 762.31 761.078 767.355C756.302 766.011 760.023 763.959 756.976 763.25C756.101 765.141 757.257 763.911 756.937 766.486C755.921 766.3 755.006 766.183 754.362 767.121C755.601 767.95 757.734 767.837 759.043 768.476C761.406 769.626 759.446 770.683 760.212 772.684C761.874 773.103 764.177 773.176 765.854 772.676C765.902 772.553 765.942 772.223 765.946 772.291L766.002 770.746C765.871 769.258 765.599 770.024 765.744 767.967C772.302 762.609 774.529 769.401 775.869 770.295C775.952 770.164 776.018 769.795 776.044 769.873L776.84 767.716C777.813 768.403 778.094 768.874 778.973 768.661C779.35 766.262 778.737 767.924 777.323 765.701C774.941 766.111 775.507 766.665 772.946 765.703C772.714 760.469 777.503 764.084 779.262 764.189C781.254 760.938 777.139 763.937 779.345 761.791C780.191 760.968 782.063 761.774 783.351 762.014C783.306 760.013 782.899 761.425 783.784 759.853C782.895 759.367 782.094 759.734 781.267 758.884L782.931 756.974L781.171 756.011C779.306 758.218 780.015 759.601 776.513 760.643C776.308 757.711 777.389 759.818 777.743 756.997C774.758 756.984 776.159 756.162 774.836 758.81C774.057 760.37 774.145 760.5 772.481 761.336C771.536 759.655 772.174 760.083 772.88 758.291L770.573 758.497L770.266 763.198C767.862 762.709 769.285 760.972 767.754 759.557C766.755 760.952 767.197 760.258 767.587 762.275C765.804 763.059 766.795 761.31 766.227 763.127C766.024 763.779 767.649 764.056 764.917 764.025C763.692 760.306 768.716 756.691 771.028 755.378C773.518 754.885 772.941 757.602 780.689 753.555C779.692 751.505 778.964 752.432 777.572 753.297C776.797 752.971 777.239 752.387 775.869 752.137C775.51 753.048 776.193 755.444 773.676 753.555C776.259 750.45 775.874 750.707 781.201 750.837C781.511 750.03 781.87 748.848 782.068 747.862C778.23 747.637 782.602 748.707 778.898 748.648C778.688 746.817 779.291 746.962 780.171 745.679L778.249 744.58C777.878 746.021 777.672 750.308 775.668 749.318C773.907 748.449 776.937 745.357 777.66 744.692C776.946 742.749 777.838 745.289 776.858 743.607C776.832 743.556 776.762 743.431 776.735 743.381L774.363 742.908C775.081 745.693 776.433 743.641 774.831 746.722C773.768 746.507 774.434 746.514 773.627 746.117C772.407 745.517 774.184 745.707 772.153 745.56C772.074 747.263 773.024 748.101 772.954 749.738C772.836 752.57 772.052 751.368 770.345 751.42C770.204 752.342 771.132 753.873 767.237 755.371C767.46 753.574 767.91 752.835 768.865 751.4C769.724 750.11 770.852 748.516 770.056 747.089C767.224 747.451 768.674 747.076 767.81 749.745L766.791 749.694C766.085 749.684 767.307 749.157 765.363 749.866C765.757 751.642 766.405 751.549 765.538 753.841C764.523 756.521 765.21 756.68 763.275 758.006C762.806 757.08 762.335 754.27 762.404 753.05C762.619 749.408 767.901 745.389 771.509 744.724L772.267 743.144C773.588 741.974 773.435 743.676 773.698 741.631C772.267 740.478 773.024 741.175 770.941 741.915C771.3 738.268 772.718 740.272 773.791 737.561L771.987 736.791C768.716 739.509 770.096 741.987 768.121 743.396C766.743 741.454 769.149 738.766 768.121 736.646L766.673 736.46C766.029 738.096 767.198 737.778 766.117 738.912C765.906 739.132 765.754 738.734 765.377 739.508C766.712 742.73 766.043 745.65 762.82 748.057C762.804 741.687 767.041 737.063 763.105 736.007C762.421 738.931 763.688 740.128 761.516 740.369C761.674 738.249 761.854 736.993 761.302 734.838C760.838 733.027 762.16 733.527 760.37 732.62C759.253 733.358 759.932 732.155 759.555 733.778C759.082 735.806 760.549 736.935 759.883 739.065L759.882 739.064Z" fill="#102A59"/>
<path fill-rule="evenodd" clip-rule="evenodd" d="M1331.92 579.519C1331.86 579.422 1331.81 579.154 1331.78 579.21C1331.77 579.267 1331.68 578.977 1331.66 578.899C1331.46 578.243 1331.26 576.787 1331.52 566.459C1331.58 563.955 1331.98 554.643 1331.14 552.977C1329.51 554.501 1327.95 562.123 1327.63 564.931L1327.13 576.269C1327.08 580.391 1327.01 579.01 1326.44 579.44C1325.24 576.692 1326.66 571.813 1326.2 568.608C1324.23 554.766 1327.85 550.295 1327.08 546.609C1326.88 545.66 1323.57 540.08 1322.79 538.762C1321.31 536.236 1319.77 533.613 1318.97 530.423C1318.05 526.733 1319.27 523.192 1318.93 519.094C1318.45 513.087 1315.87 501.721 1322.18 500.161C1322.8 509.493 1321.08 507.638 1324.26 520.099C1325.98 526.844 1324.22 532.144 1328.22 538.055C1329.43 532.777 1328.06 523.333 1328.32 517.489C1328.43 514.994 1329.28 509.572 1328.56 507.551C1327.61 504.865 1326.34 503.368 1325.41 500.111C1323.76 494.189 1322.95 489.411 1320.51 484.262C1319.06 481.213 1314.41 471.432 1317.82 468.333C1317.98 468.559 1319.28 473.162 1319.84 474.34C1323.4 482.019 1331.04 496.952 1330.42 504.974C1330.12 508.929 1330.07 508.008 1330.97 511.813C1332.01 516.222 1333.81 529.125 1333.9 533.554C1333.96 536.185 1333.82 538.86 1333.56 541.421C1333.14 545.477 1332.62 544.562 1333.66 548.66C1334.66 552.623 1333.09 559.62 1332.79 563.724C1332.6 566.418 1332.52 568.845 1332.41 571.549L1332.3 578.559C1332.01 579.838 1332.2 579.06 1331.92 579.519ZM1341 490.143C1342.26 487.916 1342.33 481.627 1343.37 478.423C1344.86 473.869 1344.4 473.691 1345.03 469.572C1345.1 469.17 1345.24 468.209 1345.34 467.862C1345.38 467.758 1345.4 467.652 1345.44 467.555L1346.02 466.579C1347.8 469.669 1346.42 479.728 1345.6 483.365C1342.69 496.248 1349.21 507.784 1347.7 517.253C1346.52 524.699 1346.07 523.2 1349.58 532.775C1351.11 530.326 1351.06 523.557 1352.76 519.145C1353.42 517.461 1354.58 516.346 1354.92 515.381C1356.27 511.709 1349.99 498.374 1351.08 485.358C1351.38 481.819 1352.53 479.023 1352.56 475.593C1352.61 473.176 1353.97 458.328 1356.21 455.87C1356.66 456.649 1356.65 461.767 1356.82 463.523C1357.43 469.531 1355.34 471.308 1357.72 487.834C1358.69 494.556 1359.56 495.034 1358.8 502.561C1358.57 505.025 1358.47 507.897 1358 510.311C1357.5 512.921 1356.29 514.238 1356.37 517.08C1356.55 524.406 1355.68 525.92 1354.43 532.136C1353.36 537.523 1353.98 542.957 1353.5 548.427C1352.58 559.054 1354.08 562.565 1352.35 572.756C1351.85 575.727 1352.28 578.363 1351.92 579.727C1351.56 581.104 1351.94 580.032 1351.5 580.683C1349.64 578.383 1352.23 569.34 1352 565.658C1351.74 561.45 1349.78 556.151 1349.21 551.801C1347.9 552.917 1347.86 555.563 1346.84 558.255C1346.11 560.133 1344.38 562.354 1344.18 564.168C1343.79 567.637 1344.81 579.027 1343.64 580.804C1342.71 579.727 1343.15 565.666 1343.17 563.706C1343.22 560.194 1344.43 556.497 1344.94 552.889C1345.54 548.599 1344.15 534.818 1342.92 530.887C1338.94 534.458 1339.87 549.55 1338.88 555.794C1338.1 560.631 1337.25 563.014 1335.84 567.211C1334.46 571.259 1336.33 576.732 1334.71 580.478C1333.58 579.401 1334.46 578.174 1334.53 575.863C1334.59 574.137 1334.35 572.49 1334.35 570.766C1334.35 565.856 1335.07 560.46 1335.23 555.362C1335.4 549.857 1335.79 544.506 1336.03 539.031C1336.27 533.086 1338.1 530.486 1339.13 525.495C1339.67 522.82 1339.62 521.248 1340.44 518.576C1343.43 509 1337.93 510.612 1336.65 499.436C1335.86 492.551 1336.69 490.57 1337.43 484.21C1337.79 481.191 1337.33 478.857 1337.4 475.958C1337.47 473.489 1338.07 470.893 1338.58 468.532C1340.14 461.464 1338.66 455.315 1340.15 453.193C1341.28 453.998 1341.57 455.685 1341.92 456.977C1343.35 462.313 1345.52 465.796 1344.14 470.979C1343.37 473.814 1342.4 476.708 1341.64 479.436C1341.22 480.985 1340.91 488.186 1341 490.144L1341 490.143Z" fill="#102A59"/>
<path fill-rule="evenodd" clip-rule="evenodd" d="M459.791 634.095C457.757 631.997 459.52 635.041 458.772 630.543L458.579 629.257C454.723 630.903 457.668 629.546 455.309 632.923C453.356 627.887 456.491 628.148 455.008 625.574C451.066 626.67 453.812 626.293 451.436 629.414L449.064 624.853C445.368 626.406 449.972 623.81 446.18 627.923C443.481 630.85 444.263 625.794 443.652 631.443C446.921 634.211 445.875 630.887 450.572 634.083C461.879 641.776 468.778 640.834 466.887 647.641C465.828 648.208 466.838 648.287 464.899 648.119C461.152 647.794 463.801 646.258 455.539 641.71L453.222 638.35C450.208 639.297 452.461 638.781 451.33 639.299C449.595 640.093 451.2 639.962 448.768 640.338C447.349 637.258 447.382 636.352 444.134 635.104C441.713 638.181 444.288 638.938 446.323 641.263C446.128 641.427 445.779 641.342 445.668 641.659L443.769 642.699C442.08 643.607 443.14 642.499 441.132 644.246L441.914 647.155C445.443 645.922 442.186 645.606 447.007 644.988C449.294 644.696 452.743 644.817 454.476 645.94C451.973 646.401 450.036 646.104 448.091 647.513L449.778 650.782C454.287 649.277 452.146 647.768 458.899 647.365C461.762 652.707 466.27 653.918 463.043 658.566C460.273 656.902 461.451 659.534 462.418 654.416C457.519 655.082 459.821 655.341 457.397 653.252C455.917 651.978 458.549 652.878 455.729 651.995C449.683 658.524 464.461 659.92 461.257 667.254C458.009 664.854 459.468 663.857 454.72 661.19C448.267 657.563 452.789 656.304 448.952 654.159L446.695 655.147C447.154 662.089 452.851 660.833 454.902 665.363C442.098 665.387 445.861 659.12 439.571 658.068C437.866 663.032 438.588 662.586 442.76 664.339C442.241 667.19 441.732 667.401 442.084 670.259C444.075 669.686 450.426 665.538 456.573 670.041C463.656 675.228 456.109 681.6 458.767 683.458C458.776 683.465 469.552 685.725 468.466 681.214C468.151 679.898 464.829 676.274 468.392 672.538C470.629 670.196 477.869 670.1 474.651 663.636C470.647 664.608 474.13 663.266 471.885 666.16C470.121 668.434 472.897 667.531 468.572 668.652C465.32 662.295 473.321 662.621 475.821 656.208L471.689 654.594L470.151 653.089C474.491 653.28 476.902 652.455 480.443 654.244C484.121 656.103 484.961 659.726 486.869 654.657C484.194 651.635 483.88 653.907 481.152 651.084C482.343 648.882 485.245 646.938 487.933 646.335C491.834 645.462 487.977 647.291 491.115 645.727C489.745 640.388 489.767 645.661 488.629 641.129C487.671 637.315 492.665 637.734 485.362 637.253C485.223 637.487 485.139 637.607 485.101 638.031C485.065 638.452 484.912 638.606 484.863 638.814C484.816 639.018 484.721 639.354 484.663 639.607C484.171 641.822 485.21 645.206 479.016 645.898C477.248 638.406 484.474 641.566 485.026 631.814C478.36 630.424 485.621 632.515 478.626 633.64C478.127 637.21 479.073 635.001 478.709 636.911C478.021 640.551 478.866 637.072 476.752 639.756C474.081 643.149 475.548 644.495 474.931 648.711C472.992 648.174 470.147 647.599 469.534 641.288C471.652 639.404 472.169 640.184 473.539 637.76L471.105 636.172C466.311 637.399 470.961 640.337 465.008 637.519C464.211 629.346 474.576 634.888 475.303 626.995C473.404 625.496 476.503 626.227 473.206 625.795C467.314 625.025 476.309 628.357 464.71 630.062C466.153 626.409 467.288 626.74 467.739 622.517C460.997 622.187 464.174 622.389 462.976 627.859C462.81 627.672 462.692 627.049 462.644 627.183L461.611 624.522C460.692 622.825 463.243 623.341 459.469 622.782C457.127 626.77 463.086 629.193 459.789 634.095L459.791 634.095Z" fill="#102A59"/>
<path fill-rule="evenodd" clip-rule="evenodd" d="M677.056 768.994C678.308 769.201 679.617 769.719 680.299 769.813C681.99 770.051 681.635 769.57 683.621 769.639C683.89 770.006 684.322 769.177 683.946 770.956C683.919 771.086 683.613 771.687 683.534 771.834L685.644 771.176C686.484 771.719 685.859 771.005 686.209 772.303C689.781 769.867 693.9 771.03 697.231 772.292C696.846 769.442 697.101 771.732 695.375 769.639C697.56 769.701 702.397 772.261 703.522 771.604C702.572 770.868 701.032 770.201 700.068 769.607L704.432 767.573L702.808 767.03C702.454 766.935 701.74 766.847 701.358 766.746C701.988 766.609 703.658 766.32 704.253 766.137C705.719 765.688 704.445 766.21 705.47 765.644C706.629 765.003 705.706 765.672 706.573 764.719L700.654 765.513C702.812 763.767 705.701 763.104 708.097 760.924C706.608 760.426 707.011 761.943 706.197 760.329C704.914 757.801 707.281 760.858 706.266 758.493L702.339 760.53C703.171 758.607 703.054 757.863 704.371 756.101C705.457 754.653 706.788 753.398 706.629 751.636C704.774 752.361 703.516 755.398 702.2 756.39L700.829 756.852C698.995 757.544 699.971 758.105 697.616 760.096C698.198 758.1 698.904 756.46 699.989 754.709C700.611 753.705 702.068 751.593 701.924 750.42L701.057 750.385C699.21 751.025 700.821 750.347 700.081 751.211C698.767 752.75 696.947 755.133 696.163 757.099C696.119 756.997 696.088 756.839 696.076 756.778C696.063 756.718 696.01 756.533 695.995 756.458L695.883 755.803C695.607 753.41 696.351 752.857 696.648 751.291C697.113 748.888 696.552 749.735 696.573 748.013C696.587 747.089 696.929 746.092 697.004 745.067C695.563 745.027 696.123 744.314 695.471 747.177C694.92 749.597 694.245 753.898 693.27 755.863C691.181 747.505 693.099 753.785 690.673 747.881C690.135 746.564 690.59 747.41 690.174 746.871C688.401 751.412 691.028 754.68 691.151 760.046C690.17 758.115 690.625 757.025 689.317 754.844L688.699 753.926C688.266 753.31 688.362 753.457 688.081 753.102C688.042 753.055 687.893 753.005 687.868 752.865C687.841 752.728 687.741 752.699 687.654 752.639C686.786 754.562 688.318 757.201 688.415 759.196L686.059 755.584C682.571 752.453 684.4 752.086 681.608 749.548C680.605 751.881 682.478 753.568 683.237 756.274C682.09 755.603 683.031 756.249 682.203 755.47C682.033 755.307 681.449 754.607 681.445 754.6C679.988 753.1 681.678 753.765 679.738 753.554C680.631 756.44 681.73 756.869 682.75 759.196C682.631 759.114 682.475 759.013 682.386 758.954L681.358 758.255C679.423 756.831 677.239 753.361 675.238 753.049C675.767 754.53 677.396 756.375 678.21 757.869C680.691 762.431 679.274 759.506 681.638 762.44C678.397 760.851 675.399 758.195 673.416 757.219C673.849 759.52 674.822 760.228 676.708 760.992L674.296 761.845C675.378 762.486 676.853 762.625 677.719 763.448C678.722 764.401 677.593 765.108 679.804 765.416L674.305 765.138L675.242 766.22C676.123 766.93 677.637 767.095 678.871 767.266C680.627 767.507 682.237 767.306 683.63 767.862C680.819 768.151 679.204 767.688 677.055 768.995L677.056 768.994Z" fill="#102A59"/>
<path fill-rule="evenodd" clip-rule="evenodd" d="M1200.44 686.462C1198.37 684.665 1198.62 683.285 1197.96 680.691C1197.05 681.739 1197.69 680.196 1197.42 681.899C1196.9 685.304 1200.12 687.152 1200.14 690.996C1196.85 688.682 1197.85 688.119 1195.7 684.891C1193.85 688.606 1200.03 690.505 1200.52 694.993C1198.85 694.05 1199.02 693.244 1197.5 692.872C1197.8 694.176 1198.28 694.746 1199.04 695.491C1201.02 697.44 1200.47 695.449 1201.11 698.302C1200.04 699.01 1200.88 697.975 1199.48 698.302C1200.03 699.998 1203.47 703.488 1204.42 705.379C1202.04 703.831 1201.99 703.274 1200.25 701.293C1199.85 704.535 1203.41 706.381 1205.61 707.598C1206.12 710.319 1205.34 706.41 1204.57 709.182L1207.84 709.86C1208.53 713.144 1206.47 713.139 1210.03 713.299C1210.11 713.17 1210.17 712.788 1210.19 712.866L1211.24 709.975C1211.8 709.173 1212.81 708.73 1213.88 707.671C1215.1 706.484 1217.22 703.13 1216.25 701.276C1214.65 703.006 1215.61 702.344 1214.65 704.612C1213.76 706.724 1213.71 706.004 1212.42 707.374C1212.41 705.714 1213.36 704.965 1214.24 703.052C1215.6 700.125 1215.01 700.686 1217.26 698.915C1222.65 694.648 1224.44 695.995 1225.36 693.402C1223.69 693.66 1222.69 694.418 1220.74 694.984C1223.09 691.612 1225.36 692.647 1226.53 688.152C1224.03 689.243 1225.47 689.903 1222.75 691.31L1223.63 686.519C1220.82 688.895 1222.79 692.897 1215.99 698.184C1216.86 694.483 1220.43 689.085 1220.53 686.297C1218.63 687.613 1215.82 694.717 1214.85 697.615C1213.4 701.978 1211.17 705.467 1209.6 709.319C1209.38 709.095 1207.8 709.643 1209.32 706.496C1209.86 705.383 1210.47 704.441 1210.95 703.05C1212.68 698.056 1212.99 692.4 1218.4 685.733C1219.96 683.808 1220.02 685.022 1221.21 682.521C1219.23 683.105 1218.75 683.752 1217.58 684.577L1218.56 679.833C1215.5 681.601 1217.51 688.359 1214.19 689.792C1214.33 686.885 1215.17 680.648 1213.89 678.463C1213.66 678.891 1213.67 678.507 1213.55 679.642C1213.49 680.217 1213.54 681.155 1213.55 681.759L1211.89 682.311C1215.56 686.749 1211.1 699.659 1209.02 704.934C1208.08 703.472 1208.3 700.896 1208.76 699.239C1209.21 697.573 1210 696.213 1210.48 694.314C1211.39 690.769 1211.19 686.231 1209.48 683.334C1209.1 683.998 1209.09 682.645 1209.22 684.814C1209.22 684.94 1209.5 686.226 1209.57 686.52C1210.28 690.045 1210.12 694.906 1207.94 697.684C1207.2 693.413 1207.76 692.597 1208.51 688.766C1206.78 689.781 1207.47 690.104 1206.82 690.031C1205.64 687.254 1204.3 685.945 1203.69 682.711C1202.19 684.363 1203.15 685.626 1204.69 688.194C1205.98 690.352 1206.36 691.336 1205.78 694.04C1204.09 701.804 1207.82 698.98 1207.06 706.42C1203.06 700.958 1205.53 693.449 1203.95 688.962C1203.41 689.619 1203.74 688.733 1203.41 690.137C1203.23 690.852 1203.25 690.903 1203.21 691.638C1202.98 695.447 1204.02 700.394 1203.61 702.068C1200.71 695.633 1202.13 679.923 1200.1 677.616L1200.44 686.463L1200.44 686.462Z" fill="#102A59"/>
<path fill-rule="evenodd" clip-rule="evenodd" d="M566.484 717.301C564.641 717.482 566.387 717.472 564.807 716.857C563.323 716.277 564.907 716.447 563.035 716.217C562.597 717.153 562.679 716.704 562.447 717.624C564.281 720.38 568.799 716.391 573.054 727.539C569.582 728.428 570.957 724.666 568.751 723.049L567.201 723.74C568.33 725.787 568.896 724.677 568.756 726.984C565.28 727.608 566.435 724.549 563.082 723.523C562.251 723.268 562.829 723.443 562.102 723.202L559.479 724.278C561.291 725.603 562.102 724.096 564.807 727.404C562.057 727.938 560.973 726.551 562.154 730.074L567.328 728.588C566.134 730.384 565.581 728.858 564.645 731.133C566.273 732.316 564.946 732.087 566.89 730.382L567.99 731.76C568.803 730.616 568.44 731.15 568.637 730.584C568.676 730.464 568.817 730.019 568.851 729.902C568.878 729.817 568.921 729.637 568.942 729.566C568.96 729.499 568.991 729.342 569.026 729.234C572.642 729.527 572.812 729.265 575.96 733.036L575.488 733.413C575.409 733.496 574.613 733.926 574.648 734.936C577.191 736.712 575.64 733.29 577.877 736.334C576.656 736.476 574.708 736.787 573.591 736.61C571.211 733.14 572.187 734.512 571.626 731.556C570.076 731.939 568.795 733.037 567.897 734.19C570.548 737.182 569.17 732.483 571.981 736.651C564.74 737.302 568.071 733.5 563.847 732.851C563.895 735.509 564.906 733.73 565.073 735.881C563.409 735.445 563.799 734.819 562.215 735.27C561.961 737.51 565.388 737.26 566.837 738.239C564.986 738.823 565.169 737.744 564.049 738.939C565.397 740.337 565.458 740.21 568.168 739.138C571.167 737.951 570.545 738.39 572.965 738.703C576.871 739.206 578.516 737.193 581.891 741.058C577.098 742.327 579.256 738.669 576.275 739.606C576.481 741.679 576.853 740.032 577.886 742.412C576.915 742.77 576.069 743.132 575.99 744.27C577.479 744.353 579.256 743.173 580.71 743.057C583.331 742.847 582.176 744.753 583.852 746.087C585.499 745.603 587.521 744.496 588.711 743.212C588.688 743.083 588.554 742.779 588.594 742.835L587.857 741.475C586.987 740.261 587.144 741.059 586.225 739.212C589.144 731.267 594.516 735.982 596.127 736.071C596.131 735.918 596 735.567 596.061 735.617L595.65 733.357C596.841 733.455 597.318 733.718 597.969 733.087C597.073 730.83 597.388 732.573 595.046 731.377C593.199 732.94 593.964 733.132 591.272 733.604C588.414 729.214 594.376 729.894 595.943 729.09C596.009 725.277 593.987 729.952 594.796 726.981C595.107 725.844 597.125 725.586 598.36 725.139C597.305 723.439 597.672 724.859 597.633 723.057C596.622 723.091 596.113 723.814 594.976 723.502L595.436 721.011L593.431 721.077C592.945 723.926 594.259 724.755 591.776 727.432C590.108 725.011 592.108 726.277 590.98 723.666C588.4 725.174 589.189 723.753 589.4 726.706C589.521 728.445 589.661 728.514 588.655 730.079C586.987 729.111 587.753 729.155 587.45 727.251L585.569 728.602L587.691 732.808C585.376 733.608 585.717 731.388 583.677 730.948C583.527 732.658 583.554 731.835 584.916 733.374C583.777 734.956 583.743 732.945 584.176 734.799C584.334 735.465 585.874 734.877 583.507 736.238C580.561 733.659 583.052 727.99 584.374 725.687C586.269 723.995 587.149 726.628 591.767 719.206C589.868 717.947 589.714 719.112 588.952 720.566C588.121 720.679 588.204 719.952 586.895 720.432C587.049 721.402 588.856 723.117 585.731 722.768C586.375 718.783 586.173 719.201 590.827 716.605C590.681 715.752 590.393 714.551 590.061 713.602C586.641 715.358 590.953 714.057 587.731 715.887C586.619 714.419 587.215 714.237 587.32 712.685L585.105 712.715C585.521 714.144 587.521 717.941 585.289 718.108C583.332 718.253 584.37 714.049 584.655 713.11C583.052 711.801 585.114 713.533 583.411 712.582C583.363 712.555 583.236 712.483 583.192 712.451L580.908 713.252C582.944 715.285 583.061 712.829 583.25 716.298C582.225 716.653 582.803 716.321 581.905 716.388C580.548 716.491 582.177 715.749 580.352 716.657C581.147 718.163 582.395 718.402 583.166 719.847C584.502 722.346 583.218 721.71 581.774 722.622C582.12 723.489 583.7 724.333 581.105 727.604C580.382 725.943 580.394 725.078 580.491 723.357C580.575 721.809 580.736 719.863 579.327 719.038C577.068 720.791 578.127 719.73 578.736 722.469L577.834 722.943C577.221 723.292 578.006 722.218 576.696 723.814C577.935 725.145 578.447 724.735 578.867 727.15C579.352 729.973 580.022 729.762 579.034 731.886C578.158 731.328 576.324 729.149 575.764 728.061C574.096 724.818 576.605 718.67 579.375 716.262L579.222 714.517C579.765 712.84 580.5 714.382 579.685 712.488C577.864 712.221 578.871 712.437 577.453 714.134C575.909 710.812 578.153 711.813 577.693 708.935L575.751 709.19C574.318 713.191 576.766 714.625 575.781 716.844C573.605 715.872 574.314 712.332 572.349 711.03L571.005 711.605C571.285 713.342 572.126 712.473 571.776 714.001C571.706 714.296 571.372 714.03 571.438 714.889C574.227 716.984 575.133 719.84 573.588 723.55C570.332 718.074 571.631 711.937 567.705 713.028C568.602 715.893 570.301 716.283 568.554 717.592C567.608 715.687 567.126 714.513 565.56 712.938C564.238 711.613 565.629 711.373 563.625 711.504C563.038 712.705 563.016 711.324 563.515 712.912C564.137 714.9 565.971 715.129 566.484 717.299L566.484 717.301Z" fill="#102A59"/>
<path fill-rule="evenodd" clip-rule="evenodd" d="M1174.61 675.386C1174.09 671.789 1175.53 670.625 1177.12 667.457C1175.31 667.72 1177.29 666.729 1175.54 668.204C1172.07 671.156 1173.69 675.793 1170.37 679.656C1169.08 674.481 1170.57 674.79 1171.2 669.689C1166.14 671.805 1170.7 679.076 1167.29 683.984C1166.44 681.596 1167.31 680.934 1166.1 679.242C1165.28 680.811 1165.26 681.793 1165.38 683.196C1165.66 686.861 1166.84 684.388 1165.01 687.809C1163.34 687.589 1165.06 687.276 1163.38 686.386C1162.47 688.566 1162.88 695.045 1162.19 697.748C1161.14 694.133 1161.59 693.546 1161.57 690.055C1158.35 692.949 1160.31 697.869 1161.46 701.004C1159.61 704.161 1162.21 699.57 1159.04 701.685L1161.73 705.199C1159.57 709.075 1157.53 707.289 1160.92 710.53C1161.12 710.476 1161.53 710.139 1161.47 710.239L1165.02 708.256C1166.27 707.93 1167.68 708.368 1169.67 708.244C1171.91 708.103 1176.95 706.598 1177.58 703.897C1174.48 704.245 1176.01 704.413 1173.09 705.848C1170.37 707.187 1170.94 706.428 1168.47 706.682C1169.89 705.006 1171.47 705.072 1174.03 703.926C1177.9 702.173 1176.86 702.233 1180.62 702.402C1189.72 702.811 1190.34 705.706 1193.51 703.915C1191.62 702.719 1189.96 702.613 1187.53 701.499C1192.79 700.157 1194.17 703.159 1199.23 699.676C1195.77 698.596 1196.67 700.518 1192.72 699.559L1197.75 695.528C1192.88 695.474 1191.37 701.182 1180 700.575C1184.05 697.617 1192.33 695.328 1194.83 692.618C1191.79 692.284 1182.84 696.963 1179.35 699.027C1174.12 702.131 1168.87 703.689 1163.97 706.179C1163.93 705.769 1161.87 704.939 1166.13 703.111C1167.62 702.464 1169.06 702.056 1170.74 701.081C1176.79 697.577 1182.01 692.191 1193.2 690.214C1196.43 689.643 1195.43 690.901 1198.79 689.43C1196.3 688.296 1195.26 688.53 1193.38 688.344L1198.46 684.441C1193.87 683.563 1190.04 692.07 1185.48 690.625C1188.12 687.832 1194.37 682.327 1194.98 679.027C1194.38 679.255 1194.73 678.883 1193.61 679.912C1193.06 680.432 1192.3 681.412 1191.77 682.025L1189.65 681.143C1189.47 688.765 1173.83 697.808 1167.2 701.302C1167.5 699.014 1169.96 696.627 1171.84 695.359C1173.74 694.088 1175.73 693.423 1177.85 691.937C1181.81 689.163 1185.55 684.452 1186.35 680.076C1185.4 680.419 1186.56 679.054 1184.8 681.335C1184.71 681.466 1183.88 682.997 1183.69 683.342C1181.35 687.489 1176.95 692.203 1172.39 693.109C1175.33 688.182 1176.61 687.862 1180.68 684.679C1178.06 684.189 1178.47 685.114 1177.89 684.477C1179.12 680.67 1178.92 678.209 1181.09 674.432C1178.17 674.801 1178.04 676.892 1177.35 680.791C1176.77 684.067 1176.3 685.382 1173.37 687.58C1164.96 693.886 1171.13 694.294 1163.94 701.085C1164.66 692.145 1173.64 686.776 1175.95 680.927C1174.83 681.101 1175.93 680.505 1174.38 681.619C1173.58 682.187 1173.57 682.258 1172.89 682.955C1169.36 686.566 1166.12 692.418 1164.23 693.725C1166.93 684.79 1181.96 670.3 1181.93 666.232L1174.61 675.385L1174.61 675.386Z" fill="#102A59"/>
<path fill-rule="evenodd" clip-rule="evenodd" d="M197.653 708.338C194.267 708.105 193.487 706.555 190.908 704.481C190.789 706.191 190.274 704.192 191.278 706.071C193.29 709.826 197.845 709.262 200.72 713.045C195.736 713.21 196.313 711.908 191.78 710.321C192.714 715.365 200.253 712.635 204.063 716.717C201.715 717.024 201.283 716.1 199.497 716.867C200.77 717.926 201.663 718.137 202.967 718.312C206.371 718.768 204.344 717.21 207.11 719.545C206.579 721.04 206.634 719.396 205.486 720.766C207.3 722.026 213.301 722.916 215.632 724.088C212.122 724.331 211.675 723.806 208.482 723.14C210.492 726.644 215.37 725.835 218.462 725.394C220.98 727.71 217.3 724.429 218.608 727.733L222.349 725.971C225.463 728.71 223.426 730.235 227.059 727.753C227.048 727.562 226.817 727.143 226.899 727.202L225.788 723.566C225.735 722.365 226.414 721.169 226.691 719.324C227.005 717.25 226.623 712.349 224.28 711.244C223.99 714.137 224.443 712.773 225.178 715.728C225.864 718.48 225.284 717.802 225.028 720.114C223.778 718.484 224.152 717.044 223.607 714.496C222.771 710.596 222.615 711.579 223.515 708.167C225.682 699.937 228.446 699.942 227.437 696.689C225.968 698.191 225.546 699.684 224.051 701.683C223.864 696.607 226.874 695.944 224.691 690.632C223.025 693.572 224.954 693.143 223.301 696.561L220.611 691.173C219.603 695.607 224.521 698.1 221.723 708.379C219.822 704.082 219.36 696.081 217.379 693.257C216.473 695.975 218.983 705.078 220.181 708.659C221.987 714.052 222.373 719.158 223.682 724.133C223.301 724.071 222.138 725.794 221.305 721.552C221.011 720.051 220.919 718.663 220.36 716.934C218.35 710.719 214.461 704.891 214.86 694.276C214.975 691.212 215.928 692.374 215.245 689.019C213.717 691.07 213.728 692.063 213.187 693.747L210.622 688.335C208.918 692.349 215.932 697.533 213.712 701.419C211.684 698.446 207.887 691.652 204.993 690.446C205.082 691.043 204.812 690.652 205.532 691.865C205.897 692.48 206.641 693.371 207.101 693.959L205.875 695.736C212.803 697.395 217.978 713.474 219.863 720.218C217.833 719.484 216.139 716.77 215.352 714.798C214.566 712.816 214.346 710.873 213.408 708.642C211.655 704.477 208.088 700.136 204.252 698.537C204.375 699.475 203.358 698.144 205.096 700.194C205.196 700.313 206.429 701.373 206.708 701.618C210.034 704.574 213.476 709.508 213.404 713.857C209.484 710.197 209.442 708.967 207.338 704.621C206.374 706.917 207.3 706.719 206.605 707.13C203.366 705.267 201.081 704.96 198.059 702.227C197.821 704.962 199.705 705.5 203.13 706.899C206.008 708.074 207.116 708.762 208.547 711.871C212.65 720.795 214.239 715.234 219.024 723.146C210.999 720.729 207.865 711.468 202.98 708.198C202.917 709.265 202.589 708.14 203.301 709.776C203.665 710.61 203.725 710.643 204.226 711.402C206.83 715.339 211.536 719.453 212.36 721.424C204.73 717.204 194.456 700.625 190.735 699.851L197.653 708.338V708.338Z" fill="#102A59"/>
<path fill-rule="evenodd" clip-rule="evenodd" d="M414.835 702.131C416.033 701.713 417.432 701.538 418.075 701.295C419.674 700.692 419.13 700.441 420.908 699.547C421.317 699.741 421.3 698.807 421.824 700.547C421.862 700.674 421.882 701.348 421.882 701.517L423.42 699.926C424.417 699.998 423.527 699.673 424.456 700.645C426.423 696.793 430.593 695.837 434.124 695.348C432.416 693.034 433.738 694.919 431.219 693.912C433.164 692.919 438.639 692.842 439.312 691.727C438.127 691.538 436.451 691.691 435.324 691.63L438.179 687.753L436.491 688.056C436.135 688.143 435.468 688.408 435.081 688.503C435.572 688.079 436.898 687.025 437.332 686.579C438.402 685.48 437.533 686.553 438.161 685.563C438.873 684.445 438.384 685.474 438.686 684.223L433.875 687.756C434.93 685.191 437.148 683.222 438.204 680.161C436.657 680.441 437.74 681.576 436.248 680.552C433.911 678.948 437.457 680.496 435.431 678.906L432.962 682.578C432.769 680.491 432.311 679.894 432.621 677.717C432.878 675.927 433.442 674.187 432.461 672.715C431.177 674.243 431.536 677.508 430.853 679.014L429.872 680.076C428.594 681.562 429.721 681.587 428.609 684.464C428.164 682.432 427.994 680.655 428.106 678.598C428.171 677.418 428.438 674.865 427.747 673.906L426.97 674.29C425.654 675.739 426.744 674.371 426.511 675.484C426.095 677.466 425.641 680.428 425.896 682.529C425.809 682.46 425.706 682.336 425.665 682.289C425.625 682.242 425.491 682.105 425.442 682.046L425.031 681.524C423.64 679.558 424.025 678.717 423.538 677.199C422.79 674.869 422.706 675.88 421.901 674.36C421.469 673.541 421.29 672.504 420.864 671.568C419.578 672.227 419.73 671.331 420.531 674.155C421.209 676.543 422.678 680.641 422.766 682.831C416.922 676.501 421.619 681.09 416.659 677.072C415.554 676.177 416.359 676.7 415.736 676.428C416.358 681.263 420.23 682.869 422.913 687.519C421.127 686.295 421 685.122 418.81 683.834L417.827 683.325C417.149 682.993 417.304 683.076 416.887 682.899C416.831 682.875 416.679 682.903 416.588 682.793C416.499 682.686 416.393 682.709 416.291 682.697C416.453 684.799 419.062 686.381 420.103 688.085L416.304 686.046C411.743 684.97 413.169 683.773 409.503 682.885C409.741 685.413 412.195 685.996 414.159 688.006C412.828 687.966 413.964 688.081 412.868 687.795C412.638 687.734 411.793 687.398 411.782 687.395C409.787 686.776 411.586 686.551 409.785 687.298C411.953 689.399 413.12 689.25 415.134 690.801C414.99 690.787 414.803 690.774 414.699 690.764L413.462 690.644C411.08 690.321 407.499 688.325 405.592 689.011C406.767 690.058 409.084 690.894 410.513 691.816C414.881 694.628 412.231 692.741 415.714 694.183C412.108 694.342 408.204 693.449 405.997 693.544C407.481 695.354 408.674 695.51 410.695 695.275L408.987 697.181C410.242 697.224 411.605 696.639 412.76 696.945C414.096 697.302 413.444 698.464 415.532 697.674L410.577 700.066L411.917 700.566C413.026 700.766 414.435 700.185 415.6 699.742C417.259 699.113 418.573 698.164 420.063 697.983C417.737 699.586 416.098 699.953 414.835 702.131H414.835Z" fill="#102A59"/>
<path fill-rule="evenodd" clip-rule="evenodd" d="M495.929 705.495C494.983 705.387 494.004 705.212 492.986 704.954L494.852 703.106C494.852 703.106 496.449 703.321 498.046 704.098C498.529 704.333 498.94 704.398 499.28 704.375C499.588 704.262 499.905 704.143 500.229 704.019C500.384 703.899 500.463 703.796 500.463 703.796C500.463 703.796 500.636 702.285 499.341 701.725C498.046 701.164 496.579 701.336 496.579 701.336L499.298 698.143C499.298 698.143 500.765 697.97 502.707 698.574C504.649 699.178 505.685 698.056 505.685 698.056C505.685 698.056 506.246 696.804 504.304 696.028C502.361 695.251 500.722 696.33 500.722 696.33C500.722 696.33 502.368 694.735 504.5 691.56C505.703 691.384 506.53 691.911 508.535 692.166C510.909 692.468 511.038 690.655 511.038 690.655C511.038 690.655 510.563 689.058 508.621 689.015C507.472 688.99 506.323 689.478 505.576 689.881C506.335 688.642 507.127 687.224 507.908 685.629C508.757 685.805 510.323 686.021 511.685 685.606C513.67 685.001 514.232 684.138 514.232 683.146C514.232 682.153 512.333 682.067 511.599 682.455C510.866 682.843 508.447 684.499 508.447 684.499L508.446 684.501C509.236 682.791 510.005 680.895 510.705 678.816L510.909 677.19L510.704 678.82C510.704 678.82 515.009 676.975 515.44 676.241C515.871 675.507 516.044 673.997 515.569 673.35C515.095 672.702 513.411 673.522 512.937 674.558C512.631 675.226 511.877 676.125 511.38 676.681C511.575 676.019 511.764 675.34 511.943 674.644C511.943 674.644 512.305 673.092 512.377 670.307C513.234 670.007 515.037 669.24 516.001 667.825C517.296 665.926 515.872 664.502 515.872 664.502C515.872 664.502 513.973 664.33 513.628 666.142C513.407 667.305 512.795 668.166 512.384 668.633C512.358 667.208 512.253 665.554 512.011 663.699L511.297 662.085L512.011 663.7C513.848 662.682 515.354 658.719 515.354 658.719C515.354 658.719 515.57 656.388 514.491 655.828C513.412 655.266 512.937 656.389 512.937 656.389C512.937 656.389 512.463 657.899 512.333 659.884C512.265 660.939 511.976 661.495 511.721 661.783L511.722 661.781C511.41 659.95 510.967 657.956 510.349 655.82L509.571 654.533L510.349 655.821C510.349 655.821 512.117 651.081 512.592 649.872C513.066 648.664 512.98 647.196 511.858 646.506C510.735 645.815 510.217 647.585 510.217 647.585C510.217 647.585 509.743 650.433 509.959 651.728C510.091 652.517 509.917 653.386 509.762 653.945L509.766 653.93C509.059 651.765 508.173 649.471 507.066 647.067L507.059 647.051C507.439 645.925 508.398 643.153 509.009 641.931C509.786 640.378 508.319 639.039 508.319 639.039C508.319 639.039 506.636 639.169 506.204 640.722C505.773 642.276 505.989 644.674 505.989 644.674V644.672C505.273 643.043 504.674 641.593 504.172 640.298C504.166 640.195 504.023 637.421 505.082 636.32C506.161 635.198 505.687 633.99 505.687 633.99C505.687 633.99 504.78 632.738 504.003 633.687C503.237 634.624 503.213 637.592 503.212 637.675C500.701 630.312 502.233 629.717 502.233 629.717C502.233 629.717 502.406 627.559 501.025 628.163C499.643 628.768 499.385 630.321 499.385 630.321C499.385 630.321 499.428 633.342 501.543 637.011C502.128 638.027 502.999 640.041 503.952 642.422C503.265 640.707 501.497 640.118 500.336 640.118C499.17 640.118 498.782 641.37 498.782 641.37C498.782 641.37 498.523 642.06 501.026 642.664C503.523 643.267 505.034 645.194 505.042 645.203C505.596 646.644 506.151 648.128 506.673 649.54C506.669 649.537 504.563 648.059 503.097 647.671C501.63 647.282 501.199 648.534 501.199 648.534C501.199 648.534 501.285 650.735 503.615 650.95C505.942 651.166 508.089 653.433 508.096 653.441C508.644 654.96 509.072 656.169 509.301 656.817C508.432 656.125 507.537 655.531 506.768 655.33C505.525 655.006 503.851 655.215 503.686 656.014C503.521 656.813 505.317 657.884 506.529 657.335C507.315 656.98 508.873 657.992 509.844 658.763C510.134 660.038 510.528 662.094 510.757 664.623C509.659 663.26 509.463 664.288 508.205 663.426C506.947 662.564 506.026 661.364 505.728 662.152C505.429 662.939 505.401 664.195 506.554 664.999C507.328 665.54 509.564 666.543 510.915 667.157C510.961 668.51 510.949 669.95 510.847 671.444C510.358 670.461 509.805 669.557 509.202 669.054C508.215 668.232 506.61 667.71 506.121 668.363C505.633 669.016 506.803 670.749 508.133 670.767C509.051 670.781 510.102 672.567 510.628 673.676C510.326 676.028 509.779 678.463 508.878 680.857C508.612 679.404 508.101 677.957 507.478 677.052C506.751 675.993 504.922 675.294 504.275 675.79C503.627 676.287 504.284 678.271 505.56 678.65C506.787 679.015 508.248 682.153 508.257 682.372C507.628 683.784 506.864 685.173 505.944 686.512C505.944 686.512 505.869 686.646 505.72 686.896C505.836 685.337 505.749 683.656 505.126 683.072C504.435 682.424 502.57 681.315 501.922 681.811C501.275 682.307 501.932 684.292 503.207 684.67C504.482 685.049 504.821 688.451 504.709 688.433L504.892 688.236C504.185 689.347 503.122 690.945 501.707 692.88C501.714 691.208 501.026 688.945 500.399 688.358C499.709 687.71 499.051 687.205 498.405 687.701C497.757 688.197 497.013 690.129 498.696 690.992C500.124 691.724 500.583 693.672 500.69 694.247C499.703 695.551 498.577 696.973 497.314 698.478C497.443 696.781 496.859 694.063 496.019 693.6C495.156 693.126 494.638 692.824 493.99 693.32C493.343 693.816 492.955 695.564 494.638 696.427C496.321 697.29 496.023 699.987 496.023 699.987C494.863 701.32 493.601 702.705 492.239 704.118C492.381 702.437 491.71 700.022 490.861 699.555C489.998 699.08 488.919 699.685 488.919 699.685C488.919 699.685 487.883 701.152 489.566 702.015C490.623 702.557 491.024 703.667 491.177 704.419C490.854 704.311 490.529 704.198 490.199 704.075C488.893 703.584 487.584 703.104 486.281 702.635L487.303 705.92C487.303 705.92 488.45 707.718 495.93 705.495L495.929 705.495ZM511.218 676.86L511.223 676.855L511.268 676.804L511.218 676.86H511.218ZM511.996 670.431L511.974 670.437L511.971 670.438L511.996 670.431ZM509.63 654.369L509.64 654.338L509.642 654.334L509.63 654.369H509.63ZM503.967 642.461C504.311 643.322 504.666 644.23 505.022 645.156C504.936 644.935 504.558 643.962 503.967 642.461Z" fill="#102A59"/>
<path fill-rule="evenodd" clip-rule="evenodd" d="M835.331 753.706C836.277 753.598 837.256 753.422 838.273 753.165L836.408 751.317C836.408 751.317 834.811 751.532 833.214 752.309C832.731 752.544 832.319 752.609 831.98 752.586C831.672 752.473 831.355 752.354 831.031 752.23C830.876 752.11 830.797 752.007 830.797 752.007C830.797 752.007 830.624 750.496 831.919 749.935C833.214 749.374 834.681 749.547 834.681 749.547L831.962 746.353C831.962 746.353 830.495 746.181 828.553 746.785C826.611 747.389 825.575 746.267 825.575 746.267C825.575 746.267 825.014 745.015 826.956 744.239C828.898 743.462 830.538 744.541 830.538 744.541C830.538 744.541 828.891 742.946 826.76 739.77C825.557 739.595 824.729 740.122 822.725 740.377C820.351 740.679 820.222 738.866 820.222 738.866C820.222 738.866 820.696 737.269 822.638 737.226C823.788 737.201 824.937 737.689 825.684 738.092C824.925 736.852 824.133 735.435 823.351 733.84C822.503 734.016 820.937 734.231 819.574 733.817C817.589 733.212 817.028 732.349 817.028 731.357C817.028 730.364 818.927 730.278 819.66 730.666C820.394 731.054 822.812 732.71 822.812 732.71L822.814 732.712C822.024 731.002 821.255 729.106 820.554 727.027L820.351 725.401L820.555 727.031C820.555 727.031 816.251 725.185 815.82 724.452C815.388 723.718 815.216 722.208 815.691 721.561C816.165 720.913 817.848 721.733 818.323 722.769C818.629 723.437 819.382 724.336 819.88 724.892C819.685 724.23 819.496 723.551 819.317 722.855C819.317 722.855 818.955 721.303 818.882 718.518C818.026 718.218 816.223 717.451 815.259 716.036C813.964 714.137 815.388 712.713 815.388 712.713C815.388 712.713 817.287 712.54 817.632 714.353C817.853 715.516 818.465 716.377 818.876 716.844C818.901 715.419 819.007 713.765 819.249 711.91L819.962 710.296L819.248 711.911C817.412 710.892 815.905 706.93 815.905 706.93C815.905 706.93 815.69 704.599 816.769 704.039C817.848 703.477 818.323 704.6 818.323 704.6C818.323 704.6 818.797 706.11 818.927 708.095C818.995 709.15 819.284 709.705 819.539 709.994L819.537 709.992C819.849 708.161 820.292 706.167 820.911 704.031L821.689 702.744L820.911 704.032C820.911 704.032 819.143 699.292 818.668 698.083C818.194 696.875 818.28 695.407 819.402 694.717C820.524 694.026 821.042 695.796 821.042 695.796C821.042 695.796 821.517 698.644 821.301 699.939C821.169 700.728 821.342 701.597 821.498 702.155L821.494 702.141C822.201 699.976 823.087 697.682 824.194 695.278L824.201 695.262C823.82 694.136 822.862 691.364 822.251 690.142C821.474 688.589 822.941 687.25 822.941 687.25C822.941 687.25 824.624 687.38 825.055 688.933C825.487 690.487 825.271 692.885 825.271 692.885V692.883C825.987 691.254 826.586 689.804 827.088 688.509C827.094 688.406 827.236 685.632 826.177 684.531C825.098 683.409 825.573 682.201 825.573 682.201C825.573 682.201 826.48 680.949 827.256 681.898C828.022 682.835 828.047 685.803 828.047 685.885C830.559 678.523 829.027 677.928 829.027 677.928C829.027 677.928 828.854 675.77 830.235 676.374C831.616 676.979 831.875 678.532 831.875 678.532C831.875 678.532 831.832 681.553 829.717 685.221C829.132 686.238 828.26 688.252 827.307 690.633C827.994 688.918 829.763 688.329 830.924 688.329C832.09 688.329 832.478 689.581 832.478 689.581C832.478 689.581 832.736 690.271 830.233 690.875C827.736 691.478 826.225 693.405 826.218 693.414C825.664 694.855 825.109 696.339 824.587 697.751C824.591 697.748 826.697 696.27 828.162 695.881C829.63 695.493 830.061 696.745 830.061 696.745C830.061 696.745 829.975 698.945 827.644 699.161C825.318 699.377 823.17 701.644 823.164 701.652C822.616 703.171 822.188 704.38 821.959 705.028C822.828 704.336 823.723 703.742 824.492 703.541C825.735 703.217 827.409 703.426 827.574 704.225C827.738 705.024 825.943 706.095 824.731 705.546C823.945 705.191 822.387 706.203 821.416 706.974C821.126 708.249 820.732 710.305 820.503 712.834C821.601 711.471 821.796 712.499 823.055 711.637C824.313 710.775 825.233 709.575 825.532 710.363C825.83 711.15 825.859 712.406 824.706 713.21C823.932 713.751 821.696 714.754 820.345 715.368C820.299 716.72 820.311 718.161 820.413 719.655C820.902 718.671 821.454 717.767 822.058 717.265C823.045 716.443 824.65 715.921 825.138 716.574C825.627 717.227 824.456 718.96 823.127 718.978C822.209 718.992 821.158 720.778 820.632 721.887C820.934 724.239 821.481 726.673 822.382 729.068C822.648 727.615 823.159 726.168 823.782 725.263C824.509 724.204 826.338 723.505 826.985 724.001C827.632 724.498 826.975 726.482 825.7 726.861C824.473 727.225 823.012 730.364 823.003 730.583C823.632 731.995 824.395 733.384 825.315 734.723C825.315 734.723 825.391 734.857 825.54 735.107C825.424 733.548 825.51 731.867 826.134 731.282C826.825 730.635 828.69 729.525 829.337 730.022C829.985 730.518 829.328 732.503 828.053 732.881C826.778 733.259 826.439 736.662 826.551 736.643L826.368 736.447C827.074 737.558 828.137 739.156 829.552 741.091C829.546 739.419 830.234 737.156 830.86 736.569C831.551 735.921 832.208 735.416 832.855 735.912C833.503 736.408 834.247 738.34 832.563 739.203C831.136 739.935 830.676 741.883 830.57 742.458C831.557 743.761 832.683 745.184 833.946 746.688C833.817 744.992 834.401 742.273 835.241 741.811C836.104 741.337 836.622 741.035 837.269 741.531C837.917 742.027 838.305 743.775 836.622 744.638C834.939 745.501 835.237 748.198 835.237 748.198C836.397 749.531 837.659 750.916 839.021 752.329C838.879 750.648 839.55 748.233 840.399 747.766C841.262 747.291 842.341 747.895 842.341 747.895C842.341 747.895 843.376 749.363 841.694 750.226C840.637 750.768 840.235 751.878 840.083 752.63C840.406 752.522 840.731 752.409 841.061 752.286C842.367 751.795 843.676 751.315 844.978 750.846L843.957 754.131C843.957 754.131 842.809 755.929 835.33 753.706L835.331 753.706ZM820.041 725.071L820.037 725.065L819.991 725.015L820.042 725.071H820.041ZM819.264 718.642L819.286 718.648L819.289 718.649L819.264 718.642ZM821.63 702.58L821.619 702.549L821.618 702.545L821.63 702.58H821.63ZM827.293 690.672C826.949 691.533 826.594 692.441 826.238 693.367C826.323 693.146 826.701 692.173 827.293 690.672Z" fill="#102A59"/>
</g>
<defs>
<clipPath id="clip0_331_45988">
<rect width="1440" height="836" fill="white"/>
</clipPath>
</defs>
</svg>
